CommonSans-Medium.ufo
<glyph name="quotesingle" format="2">
	<unicode hex="0027"/>
	<advance width="180"/>
	<outline>
		<contour>
			<point x="70" y="450" type="line"/>
			<point x="50" y="580" type="line"/>
			<point x="50" y="670" type="line"/>
			<point x="130" y="670" type="line"/>
			<point x="130" y="580" type="line"/>
			<point x="110" y="450" type="line"/>
		</contour>
	</outline>
</glyph>
<glyph name="parenright" format="2">
	<unicode hex="0029"/>
	<advance width="241"/>
	<outline>
		<contour>
			<point x="39" y="-180" type="line"/>
			<point x="89" y="-45"/>
			<point x="120" y="89"/>
			<point x="120" y="230" type="curve" smooth="yes"/>
			<point x="120" y="385"/>
			<point x="92" y="535"/>
			<point x="39" y="680" type="curve"/>
			<point x="79" y="680" type="line"/>
			<point x="153" y="533"/>
			<point x="200" y="398"/>
			<point x="200" y="230" type="curve" smooth="yes"/>
			<point x="200" y="109"/>
			<point x="158" y="-14"/>
			<point x="113" y="-125" type="curve" smooth="yes"/>
			<point x="90" y="-180" type="line"/>
		</contour>
	</outline>
</glyph>
<glyph name="period" format="2">
	<unicode hex="002E"/>
	<advance width="160"/>
	<outline>
		<contour>
			<point x="105" y="0" type="line"/>
			<point x="55" y="0" type="line"/>
			<point x="55" y="80" type="line"/>
			<point x="105" y="80" type="line"/>
		</contour>
	</outline>
</glyph>
<glyph name="less" format="2">
	<unicode hex="003C"/>
	<advance width="514"/>
	<outline>
		<contour>
			<point x="466" y="100" type="line"/>
			<point x="34" y="300" type="line"/>
			<point x="34" y="370" type="line"/>
			<point x="466" y="570" type="line"/>
			<point x="466" y="500" type="line"/>
			<point x="108" y="336" type="line"/>
			<point x="466" y="170" type="line"/>
		</contour>
	</outline>
</glyph>
<glyph name="A" format="2">
	<unicode hex="0041"/>
	<advance width="565"/>
	<outline>
		<contour>
			<point x="366" y="282.5" type="line"/>
			<point x="282.5" y="545.5" type="line"/>
			<point x="199" y="282.5" type="line"/>
		</contour>
		<contour>
			<point x="454" y="0" type="line"/>
			<point x="396.5" y="182.5" type="line"/>
			<point x="168.5" y="182.5" type="line"/>
			<point x="111" y="0" type="line"/>
			<point x="10" y="0" type="line"/>
			<point x="223.5" y="680" type="line"/>
			<point x="340.5" y="680" type="line"/>
			<point x="555" y="0" type="line"/>
		</contour>
	</outline>
	<anchor name="top" x="276" y="740"/>
</glyph>
<glyph name="B" format="2">
	<unicode hex="0042"/>
	<advance width="609"/>
	<outline>
		<contour>
			<point x="299.5" y="323.5" type="curve" smooth="yes"/>
			<point x="176" y="323.5" type="line"/>
			<point x="176" y="90" type="line"/>
			<point x="282.5" y="90" type="line" smooth="yes"/>
			<point x="382.5" y="90"/>
			<point x="427.5" y="131"/>
			<point x="427.5" y="210" type="curve" smooth="yes"/>
			<point x="427.5" y="282.5"/>
			<point x="392" y="323.5"/>
		</contour>
		<contour>
			<point x="289" y="590" type="curve" smooth="yes"/>
			<point x="176" y="590" type="line"/>
			<point x="176" y="413.5" type="line"/>
			<point x="299.5" y="413.5" type="line" smooth="yes"/>
			<point x="350" y="413.5"/>
			<point x="385" y="442"/>
			<point name=".hr01" x="385" y="495.5" type="curve" smooth="yes"/>
			<point x="385" y="553"/>
			<point x="359.5" y="590"/>
		</contour>
		<contour>
			<point x="282.5" y="0" type="curve" smooth="yes"/>
			<point x="75" y="0" type="line"/>
			<point x="75" y="680" type="line"/>
			<point x="289" y="680" type="line" smooth="yes"/>
			<point x="427.5" y="680"/>
			<point x="486" y="614"/>
			<point name=".hr02" x="486" y="509.5" type="curve" smooth="yes"/>
			<point name=".hr03" x="486" y="456"/>
			<point x="461" y="398"/>
			<point x="389" y="373.5" type="curve"/>
			<point x="467" y="359.5"/>
			<point x="528.5" y="304.5"/>
			<point x="528.5" y="204" type="curve" smooth="yes"/>
			<point name=".hr04" x="528.5" y="79"/>
			<point x="459.5" y="0"/>
		</contour>
	</outline>
	<anchor name="top" x="271" y="740"/>
</glyph>
<glyph name="C" format="2">
	<unicode hex="0043"/>
	<advance width="675"/>
	<outline>
		<contour>
			<point x="353" y="600" type="curve" smooth="yes"/>
			<point x="231.5" y="600"/>
			<point x="156" y="499.5"/>
			<point x="156" y="340" type="curve" smooth="yes"/>
			<point x="156" y="180.5"/>
			<point x="231.5" y="80"/>
			<point x="353" y="80" type="curve" smooth="yes"/>
			<point x="437" y="80"/>
			<point x="505" y="128"/>
			<point x="522.5" y="204" type="curve"/>
			<point x="612.5" y="204" type="line"/>
			<point x="589" y="75.5"/>
			<point x="489.5" y="-10"/>
			<point x="353" y="-10" type="curve" smooth="yes"/>
			<point x="166" y="-10"/>
			<point x="55" y="120.5"/>
			<point x="55" y="340" type="curve" smooth="yes"/>
			<point x="55" y="559.5"/>
			<point x="166" y="690"/>
			<point x="353" y="690" type="curve" smooth="yes"/>
			<point x="495" y="690"/>
			<point x="593.5" y="600"/>
			<point x="620" y="449" type="curve"/>
			<point x="530" y="449" type="line"/>
			<point x="509" y="545.5"/>
			<point x="443.5" y="600"/>
		</contour>
	</outline>
	<anchor name="top" x="351" y="740"/>
</glyph>
<glyph name="D" format="2">
	<unicode hex="0044"/>
	<advance width="635"/>
	<outline>
		<contour>
			<point x="176" y="590" type="line"/>
			<point x="176" y="90" type="line"/>
			<point x="298" y="90" type="line" smooth="yes"/>
			<point x="415" y="90"/>
			<point x="479.5" y="195"/>
			<point x="479.5" y="340" type="curve" smooth="yes"/>
			<point x="479.5" y="503"/>
			<point x="417" y="590"/>
			<point x="298" y="590" type="curve" smooth="yes"/>
		</contour>
		<contour>
			<point x="75" y="680" type="line"/>
			<point x="298" y="680" type="line" smooth="yes"/>
			<point x="488" y="680"/>
			<point x="580" y="549"/>
			<point x="580" y="340" type="curve" smooth="yes"/>
			<point x="580" y="129.5"/>
			<point x="488.5" y="0"/>
			<point x="298" y="0" type="curve" smooth="yes"/>
			<point x="75" y="0" type="line"/>
		</contour>
	</outline>
	<anchor name="top" x="281" y="740"/>
</glyph>
<glyph name="E" format="2">
	<unicode hex="0045"/>
	<advance width="510"/>
	<outline>
		<contour>
			<point x="420" y="305" type="line"/>
			<point x="176" y="305" type="line"/>
			<point x="176" y="85" type="line"/>
			<point x="460" y="85" type="line"/>
			<point x="460" y="0" type="line"/>
			<point x="75" y="0" type="line"/>
			<point x="75" y="680" type="line"/>
			<point x="460" y="680" type="line"/>
			<point x="460" y="595" type="line"/>
			<point x="176" y="595" type="line"/>
			<point x="176" y="390" type="line"/>
			<point x="420" y="390" type="line"/>
		</contour>
	</outline>
	<anchor name="top" x="266" y="740"/>
</glyph>
<glyph name="F" format="2">
	<unicode hex="0046"/>
	<advance width="510"/>
	<outline>
		<contour>
			<point x="420" y="305" type="line"/>
			<point x="176" y="305" type="line"/>
			<point x="176" y="0" type="line"/>
			<point x="75" y="0" type="line"/>
			<point x="75" y="680" type="line"/>
			<point x="460" y="680" type="line"/>
			<point x="460" y="595" type="line"/>
			<point x="176" y="595" type="line"/>
			<point x="176" y="390" type="line"/>
			<point x="420" y="390" type="line"/>
		</contour>
	</outline>
	<anchor name="top" x="266" y="740"/>
</glyph>
<glyph name="G" format="2">
	<unicode hex="0047"/>
	<advance width="677"/>
	<outline>
		<contour>
			<point x="353" y="600" type="curve" smooth="yes"/>
			<point x="231.5" y="600"/>
			<point x="156" y="499.5"/>
			<point x="156" y="340" type="curve" smooth="yes"/>
			<point x="156" y="180.5"/>
			<point x="231.5" y="80"/>
			<point x="353" y="80" type="curve" smooth="yes"/>
			<point x="425" y="80"/>
			<point x="492.5" y="122.5"/>
			<point x="526" y="181.5" type="curve"/>
			<point x="526" y="255" type="line"/>
			<point x="367.5" y="255" type="line"/>
			<point x="367.5" y="325" type="line"/>
			<point x="612" y="325" type="line"/>
			<point x="612" y="0" type="line"/>
			<point x="526" y="0" type="line"/>
			<point x="526" y="68" type="line"/>
			<point x="490.5" y="24"/>
			<point x="417.5" y="-10"/>
			<point x="353" y="-10" type="curve" smooth="yes"/>
			<point x="166" y="-10"/>
			<point x="55" y="120.5"/>
			<point x="55" y="340" type="curve" smooth="yes"/>
			<point x="55" y="559.5"/>
			<point x="166" y="690"/>
			<point x="353" y="690" type="curve" smooth="yes"/>
			<point x="495" y="690"/>
			<point x="593.5" y="600"/>
			<point x="620" y="449" type="curve"/>
			<point x="530" y="449" type="line"/>
			<point x="509" y="545.5"/>
			<point x="443.5" y="600"/>
		</contour>
	</outline>
	<anchor name="top" x="346" y="740"/>
</glyph>
<glyph name="H" format="2">
	<unicode hex="0048"/>
	<advance width="631"/>
	<outline>
		<contour>
			<point x="556" y="680" type="line"/>
			<point x="556" y="0" type="line"/>
			<point x="455" y="0" type="line"/>
			<point x="455" y="297" type="line"/>
			<point x="176" y="297" type="line"/>
			<point x="176" y="0" type="line"/>
			<point x="75" y="0" type="line"/>
			<point x="75" y="680" type="line"/>
			<point x="176" y="680" type="line"/>
			<point x="176" y="387" type="line"/>
			<point x="455" y="387" type="line"/>
			<point x="455" y="680" type="line"/>
		</contour>
	</outline>
	<anchor name="top" x="316.5" y="740"/>
</glyph>
<glyph name="I" format="2">
	<unicode hex="0049"/>
	<advance width="251"/>
	<outline>
		<contour>
			<point x="176" y="0" type="line"/>
			<point x="75" y="0" type="line"/>
			<point x="75" y="680" type="line"/>
			<point x="176" y="680" type="line"/>
		</contour>
	</outline>
	<anchor name="top" x="124.5" y="740"/>
</glyph>
<glyph name="J" format="2">
	<unicode hex="004A"/>
	<advance width="324"/>
	<outline>
		<contour>
			<point x="99" y="0" type="curve" smooth="yes"/>
			<point x="50" y="0" type="line"/>
			<point x="50" y="90" type="line"/>
			<point x="76" y="90" type="line" smooth="yes"/>
			<point x="116" y="90"/>
			<point x="148" y="131"/>
			<point x="148" y="195" type="curve" smooth="yes"/>
			<point x="148" y="680" type="line"/>
			<point x="249" y="680" type="line"/>
			<point x="249" y="204" type="line" smooth="yes"/>
			<point x="249" y="85"/>
			<point x="212" y="0"/>
		</contour>
	</outline>
	<anchor name="top" x="194.5" y="740"/>
</glyph>
<glyph name="K" format="2">
	<unicode hex="004B"/>
	<advance width="603"/>
	<outline>
		<contour>
			<point x="176" y="273.5" type="line"/>
			<point x="176" y="0" type="line"/>
			<point x="75" y="0" type="line"/>
			<point x="75" y="680" type="line"/>
			<point x="176" y="680" type="line"/>
			<point x="176" y="358.5" type="line"/>
			<point x="257.5" y="375.5" type="line"/>
			<point x="440" y="680" type="line"/>
			<point x="553" y="680" type="line"/>
			<point x="353" y="350" type="line"/>
			<point x="593" y="0" type="line"/>
			<point x="470" y="0" type="line"/>
			<point x="269" y="296.5" type="line"/>
		</contour>
	</outline>
	<anchor name="top" x="280.5" y="740"/>
</glyph>
<glyph name="L" format="2">
	<unicode hex="004C"/>
	<advance width="535"/>
	<outline>
		<contour>
			<point x="176" y="680" type="line"/>
			<point x="176" y="90" type="line"/>
			<point x="475.5" y="90" type="line"/>
			<point x="475.5" y="0" type="line"/>
			<point x="75" y="0" type="line"/>
			<point x="75" y="680" type="line"/>
		</contour>
	</outline>
	<anchor name="top" x="125.5" y="740"/>
</glyph>
<glyph name="M" format="2">
	<unicode hex="004D"/>
	<advance width="817"/>
	<outline>
		<contour>
			<point x="742" y="680" type="line"/>
			<point x="742" y="0" type="line"/>
			<point x="641" y="0" type="line"/>
			<point x="641" y="452" type="line"/>
			<point x="466.5" y="0" type="line"/>
			<point x="349.5" y="0" type="line"/>
			<point x="176" y="450.5" type="line"/>
			<point x="176" y="0" type="line"/>
			<point x="75" y="0" type="line"/>
			<point x="75" y="680" type="line"/>
			<point x="187" y="680" type="line"/>
			<point x="376" y="207.5" type="line" smooth="yes"/>
			<point x="386.5" y="181.5"/>
			<point x="398.5" y="146.5"/>
			<point x="408.5" y="113" type="curve"/>
			<point x="418.5" y="146.5"/>
			<point x="430.5" y="181.5"/>
			<point x="441" y="207.5" type="curve" smooth="yes"/>
			<point x="630" y="680" type="line"/>
		</contour>
	</outline>
	<anchor name="top" x="413.5" y="740"/>
</glyph>
<glyph name="N" format="2">
	<unicode hex="004E"/>
	<advance width="666"/>
	<outline>
		<contour>
			<point x="176" y="450" type="curve" smooth="yes"/>
			<point x="176" y="0" type="line"/>
			<point x="75" y="0" type="line"/>
			<point x="75" y="680" type="line"/>
			<point x="187" y="680" type="line"/>
			<point x="492.5" y="164.5" type="line"/>
			<point x="490" y="189.5"/>
			<point x="490" y="212.5"/>
			<point x="490" y="230" type="curve" smooth="yes"/>
			<point x="490" y="680" type="line"/>
			<point x="591" y="680" type="line"/>
			<point x="591" y="0" type="line"/>
			<point x="479" y="0" type="line"/>
			<point x="173.5" y="515.5" type="line"/>
			<point x="176" y="490.5"/>
			<point x="176" y="467.5"/>
		</contour>
	</outline>
	<anchor name="top" x="327.5" y="740"/>
</glyph>
<glyph name="O" format="2">
	<unicode hex="004F"/>
	<advance width="706"/>
	<outline>
		<contour>
			<point x="353" y="600" type="curve" smooth="yes"/>
			<point x="231.5" y="600"/>
			<point x="156" y="499.5"/>
			<point x="156" y="340" type="curve" smooth="yes"/>
			<point x="156" y="180.5"/>
			<point x="231.5" y="80"/>
			<point x="353" y="80" type="curve" smooth="yes"/>
			<point x="474.5" y="80"/>
			<point x="550" y="180.5"/>
			<point x="550" y="340" type="curve" smooth="yes"/>
			<point x="550" y="499.5"/>
			<point x="474.5" y="600"/>
		</contour>
		<contour>
			<point x="353" y="-10" type="curve" smooth="yes"/>
			<point x="166" y="-10"/>
			<point x="55" y="120.5"/>
			<point x="55" y="340" type="curve" smooth="yes"/>
			<point x="55" y="559.5"/>
			<point x="166" y="690"/>
			<point x="353" y="690" type="curve" smooth="yes"/>
			<point x="540" y="690"/>
			<point x="651" y="559.5"/>
			<point x="651" y="340" type="curve" smooth="yes"/>
			<point x="651" y="120.5"/>
			<point x="540" y="-10"/>
		</contour>
	</outline>
	<anchor name="top" x="349.5" y="740"/>
</glyph>
<glyph name="P" format="2">
	<unicode hex="0050"/>
	<advance width="580"/>
	<outline>
		<contour>
			<point x="297.5" y="590" type="curve" smooth="yes"/>
			<point x="176" y="590" type="line"/>
			<point x="176" y="340" type="line"/>
			<point x="297.5" y="340" type="line" smooth="yes"/>
			<point x="387.5" y="340"/>
			<point x="434" y="397"/>
			<point x="434" y="472" type="curve" smooth="yes"/>
			<point x="434" y="546"/>
			<point x="381.5" y="590"/>
		</contour>
		<contour>
			<point x="282.5" y="250" type="curve" smooth="yes"/>
			<point x="176" y="250" type="line"/>
			<point x="176" y="0" type="line"/>
			<point x="75" y="0" type="line"/>
			<point x="75" y="680" type="line"/>
			<point x="282.5" y="680" type="line" smooth="yes"/>
			<point x="422.5" y="680"/>
			<point x="525" y="627"/>
			<point x="525" y="472" type="curve" smooth="yes"/>
			<point x="525" y="344.5"/>
			<point x="457" y="250"/>
		</contour>
	</outline>
	<anchor name="top" x="266" y="740"/>
</glyph>
<glyph name="Q" format="2">
	<unicode hex="0051"/>
	<advance width="706"/>
	<outline>
		<component base="O"/>
		<contour>
			<point x="608" y="-25" type="line"/>
			<point x="553.5" y="-72" type="line"/>
			<point x="360.5" y="129.5" type="line"/>
			<point x="415" y="176.5" type="line"/>
		</contour>
	</outline>
	<anchor name="top" x="351" y="740"/>
</glyph>
<glyph name="R" format="2">
	<unicode hex="0052"/>
	<advance width="530"/>
	<outline>
		<contour>
			<point x="305" y="660" type="curve" smooth="yes"/>
			<point x="122" y="660" type="line"/>
			<point x="122" y="300" type="line"/>
			<point x="305" y="300" type="line" smooth="yes"/>
			<point x="445" y="300"/>
			<point x="498" y="397"/>
			<point x="498" y="487" type="curve" smooth="yes"/>
			<point x="498" y="591"/>
			<point x="433" y="660"/>
		</contour>
		<contour>
			<point x="275" y="280" type="curve" smooth="yes"/>
			<point x="122" y="280" type="line"/>
			<point x="122" y="0" type="line"/>
			<point x="100" y="0" type="line"/>
			<point x="100" y="680" type="line"/>
			<point x="275" y="680" type="line" smooth="yes"/>
			<point x="415" y="680"/>
			<point x="520" y="637"/>
			<point x="520" y="487" type="curve" smooth="yes"/>
			<point x="520" y="400"/>
			<point x="490" y="299"/>
			<point x="324" y="282" type="curve"/>
			<point x="506" y="0" type="line"/>
			<point x="480" y="0" type="line"/>
			<point x="299" y="281" type="line"/>
			<point x="291" y="280"/>
			<point x="283" y="280"/>
		</contour>
	</outline>
	<anchor name="top" x="280" y="740"/>
</glyph>
<glyph name="S" format="2">
	<unicode hex="0053"/>
	<advance width="611"/>
	<outline>
		<contour>
			<point x="55" y="208" type="curve"/>
			<point x="161" y="208" type="line"/>
			<point x="161" y="132.5"/>
			<point x="216.5" y="80"/>
			<point x="307.5" y="80" type="curve" smooth="yes"/>
			<point x="397" y="80"/>
			<point x="450" y="123"/>
			<point x="450" y="185.5" type="curve" smooth="yes"/>
			<point x="450" y="235"/>
			<point x="421.5" y="268.5"/>
			<point x="365.5" y="287" type="curve"/>
			<point name=".hr01" x="180" y="364.5" type="line"/>
			<point x="115.5" y="390"/>
			<point x="73.5" y="442"/>
			<point x="73.5" y="510.5" type="curve" smooth="yes"/>
			<point x="73.5" y="619.5"/>
			<point name=".hr02" x="160.5" y="690"/>
			<point x="305.5" y="690" type="curve" smooth="yes"/>
			<point x="450" y="690"/>
			<point x="554" y="601"/>
			<point x="554" y="491" type="curve"/>
			<point x="448" y="491" type="line"/>
			<point x="448" y="553.5"/>
			<point x="391.5" y="600"/>
			<point x="293.5" y="600" type="curve" smooth="yes"/>
			<point x="221.5" y="600"/>
			<point name=".hr03" x="179.5" y="568.5"/>
			<point x="179.5" y="511" type="curve" smooth="yes"/>
			<point x="179.5" y="469.5"/>
			<point x="205.5" y="437.5"/>
			<point x="255.5" y="420" type="curve"/>
			<point x="438.5" y="346" type="line"/>
			<point x="516.5" y="315.5"/>
			<point x="556" y="264.5"/>
			<point x="556" y="182.5" type="curve" smooth="yes"/>
			<point x="556" y="64"/>
			<point x="466" y="-10"/>
			<point x="305.5" y="-10" type="curve" smooth="yes"/>
			<point x="154.5" y="-10"/>
			<point name=".hr04" x="55" y="79"/>
		</contour>
	</outline>
	<anchor name="top" x="288.5" y="740"/>
</glyph>
<glyph name="T" format="2">
	<unicode hex="0054"/>
	<advance width="480"/>
	<outline>
		<contour>
			<point x="290.5" y="590" type="line"/>
			<point x="290.5" y="0" type="line"/>
			<point x="189.5" y="0" type="line"/>
			<point x="189.5" y="590" type="line"/>
			<point x="10" y="590" type="line"/>
			<point x="10" y="680" type="line"/>
			<point x="470" y="680" type="line"/>
			<point x="470" y="590" type="line"/>
		</contour>
	</outline>
	<anchor name="top" x="235.5" y="740"/>
</glyph>
<glyph name="U" format="2">
	<unicode hex="0055"/>
	<advance width="600"/>
	<outline>
		<contour>
			<point x="50" y="250" type="curve" smooth="yes"/>
			<point x="50" y="680" type="line"/>
			<point x="150" y="680" type="line"/>
			<point x="150" y="280" type="line" smooth="yes"/>
			<point x="150" y="145.5"/>
			<point x="200" y="85"/>
			<point x="300" y="85" type="curve" smooth="yes"/>
			<point x="400" y="85"/>
			<point x="450" y="145.5"/>
			<point x="450" y="280" type="curve" smooth="yes"/>
			<point x="450" y="680" type="line"/>
			<point x="550" y="680" type="line"/>
			<point x="550" y="250" type="line" smooth="yes"/>
			<point x="550" y="78"/>
			<point x="460" y="-10"/>
			<point x="300" y="-10" type="curve" smooth="yes"/>
			<point x="140" y="-10"/>
			<point x="50" y="78"/>
		</contour>
	</outline>
	<anchor name="top" x="301.5" y="740"/>
</glyph>
<glyph name="V" format="2">
	<unicode hex="0056"/>
	<advance width="565"/>
	<outline>
		<contour>
			<point x="305" y="207.5" type="curve" smooth="yes"/>
			<point x="454" y="680" type="line"/>
			<point x="555" y="680" type="line"/>
			<point x="340.5" y="0" type="line"/>
			<point x="223.5" y="0" type="line"/>
			<point x="10" y="680" type="line"/>
			<point x="111" y="680" type="line"/>
			<point x="260" y="207.5" type="line" smooth="yes"/>
			<point x="268" y="182"/>
			<point x="276" y="150"/>
			<point x="282.5" y="118.5" type="curve"/>
			<point x="289" y="150"/>
			<point x="297" y="182"/>
		</contour>
	</outline>
	<anchor name="top" x="282.5" y="740"/>
</glyph>
<glyph name="W" format="2">
	<unicode hex="0057"/>
	<advance width="1009"/>
	<outline>
		<contour>
			<point x="749" y="207.5" type="curve" smooth="yes"/>
			<point x="898" y="680" type="line"/>
			<point x="999" y="680" type="line"/>
			<point x="784.5" y="0" type="line"/>
			<point x="667.5" y="0" type="line"/>
			<point x="504.5" y="516.5" type="line"/>
			<point x="340.5" y="0" type="line"/>
			<point x="223.5" y="0" type="line"/>
			<point x="10" y="680" type="line"/>
			<point x="111" y="680" type="line"/>
			<point x="260" y="207.5" type="line" smooth="yes"/>
			<point x="268" y="182"/>
			<point x="276" y="150"/>
			<point x="282.5" y="118.5" type="curve"/>
			<point x="289" y="150"/>
			<point x="297" y="182"/>
			<point x="305" y="207.5" type="curve" smooth="yes"/>
			<point x="454" y="680" type="line"/>
			<point x="555" y="680" type="line"/>
			<point x="704" y="207.5" type="line" smooth="yes"/>
			<point x="712" y="182"/>
			<point x="720" y="150"/>
			<point x="726.5" y="118.5" type="curve"/>
			<point x="733" y="150"/>
			<point x="741" y="182"/>
		</contour>
	</outline>
	<anchor name="top" x="505.5" y="740"/>
</glyph>
<glyph name="X" format="2">
	<unicode hex="0058"/>
	<advance width="660"/>
	<outline>
		<contour>
			<point x="580" y="680" type="line"/>
			<point x="386" y="348" type="line"/>
			<point x="590" y="0" type="line"/>
			<point x="468" y="0" type="line"/>
			<point x="325" y="244.5" type="line"/>
			<point x="181.5" y="0" type="line"/>
			<point x="61" y="0" type="line"/>
			<point x="265" y="347.5" type="line"/>
			<point x="70" y="680" type="line"/>
			<point x="191" y="680" type="line"/>
			<point x="325.5" y="450.5" type="line"/>
			<point x="460.5" y="680" type="line"/>
		</contour>
	</outline>
	<anchor name="top" x="327.5" y="740"/>
</glyph>
<glyph name="Y" format="2">
	<unicode hex="0059"/>
	<advance width="594"/>
	<outline>
		<contour>
			<point x="246.5" y="260" type="line"/>
			<point x="34.5" y="680" type="line"/>
			<point x="138" y="680" type="line"/>
			<point x="296" y="373" type="line"/>
			<point x="298" y="373" type="line"/>
			<point x="459" y="680" type="line"/>
			<point x="560" y="680" type="line"/>
			<point x="347.5" y="260" type="line"/>
			<point x="347.5" y="0" type="line"/>
			<point x="246.5" y="0" type="line"/>
		</contour>
	</outline>
	<anchor name="top" x="298.5" y="740"/>
</glyph>
<glyph name="Z" format="2">
	<unicode hex="005A"/>
	<advance width="563"/>
	<outline>
		<contour>
			<point x="515" y="90" type="line"/>
			<point x="515" y="0" type="line"/>
			<point x="29.5" y="0" type="line"/>
			<point x="29.5" y="47" type="line"/>
			<point x="364" y="590" type="line"/>
			<point x="45" y="590" type="line"/>
			<point x="45" y="680" type="line"/>
			<point x="510" y="680" type="line"/>
			<point x="510" y="633" type="line"/>
			<point x="176" y="90" type="line"/>
		</contour>
	</outline>
	<anchor name="top" x="266.5" y="740"/>
</glyph>
<glyph name="bracketleft" format="2">
	<unicode hex="005B"/>
	<advance width="410"/>
	<outline>
		<contour>
			<point x="70" y="830" type="line"/>
			<point x="340" y="830" type="line"/>
			<point x="340" y="740" type="line"/>
			<point x="170" y="740" type="line"/>
			<point x="170" y="-41" type="line"/>
			<point x="340" y="-41" type="line"/>
			<point x="340" y="-131" type="line"/>
			<point x="70" y="-131" type="line"/>
		</contour>
	</outline>
</glyph>
<glyph name="backslash" format="2">
	<unicode hex="005C"/>
	<advance width="544"/>
	<outline>
		<contour>
			<point x="387" y="0" type="line"/>
			<point x="40" y="700" type="line"/>
			<point x="155" y="700" type="line"/>
			<point x="504" y="0" type="line"/>
		</contour>
	</outline>
</glyph>
<glyph name="bracketright" format="2">
	<unicode hex="005D"/>
	<advance width="410"/>
	<outline>
		<contour>
			<point x="70" y="-131" type="line"/>
			<point x="70" y="-41" type="line"/>
			<point x="240" y="-41" type="line"/>
			<point x="240" y="740" type="line"/>
			<point x="70" y="740" type="line"/>
			<point x="70" y="830" type="line"/>
			<point x="340" y="830" type="line"/>
			<point x="340" y="-131" type="line"/>
		</contour>
	</outline>
</glyph>
<glyph name="asciicircum" format="2">
	<unicode hex="005E"/>
	<advance width="528"/>
	<outline>
		<contour>
			<point x="44.5" y="520" type="line"/>
			<point x="199.5" y="800" type="line"/>
			<point x="328.5" y="800" type="line"/>
			<point x="483.5" y="520" type="line"/>
			<point x="372.5" y="520" type="line"/>
			<point x="250.5" y="737" type="line"/>
			<point x="282.5" y="737" type="line"/>
			<point x="160.5" y="520" type="line"/>
		</contour>
	</outline>
</glyph>
<glyph name="underscore" format="2">
	<unicode hex="005F"/>
	<advance width="545"/>
	<outline>
		<contour>
			<point x="20" y="-140" type="line"/>
			<point x="20" y="-50" type="line"/>
			<point x="525" y="-50" type="line"/>
			<point x="525" y="-140" type="line"/>
		</contour>
	</outline>
</glyph>
<glyph name="grave" format="2">
	<unicode hex="0060"/>
	<advance width="277"/>
	<outline>
		<contour>
			<point x="123" y="520" type="line"/>
			<point x="40" y="710" type="line"/>
			<point x="162" y="710" type="line"/>
			<point x="212" y="520" type="line"/>
		</contour>
	</outline>
</glyph>
<glyph name="a" format="2">
	<unicode hex="0061"/>
	<advance width="493"/>
	<outline>
		<contour>
			<point x="50" y="123" type="curve" smooth="yes"/>
			<point x="50" y="207.5"/>
			<point x="110" y="252.5"/>
			<point x="246.5" y="272.5" type="curve"/>
			<point x="351" y="289.5" type="line"/>
			<point x="351" y="247" type="line"/>
			<point x="260" y="227" type="line" smooth="yes"/>
			<point x="178" y="209"/>
			<point x="155" y="185.5"/>
			<point x="155" y="133" type="curve" smooth="yes"/>
			<point x="155" y="90.5"/>
			<point x="191" y="60"/>
			<point x="235.5" y="60" type="curve" smooth="yes"/>
			<point x="269" y="60"/>
			<point x="313" y="80"/>
			<point x="342" y="110" type="curve"/>
			<point x="357.5" y="127" type="line"/>
			<point x="357.5" y="52" type="line"/>
			<point x="338.5" y="52" type="line"/>
			<point x="296.5" y="12"/>
			<point x="248.5" y="-12"/>
			<point x="187" y="-12" type="curve" smooth="yes"/>
			<point x="106" y="-12"/>
			<point x="50" y="44"/>
		</contour>
		<contour>
			<point x="355" y="0" type="line"/>
			<point x="342" y="54" type="line"/>
			<point x="342" y="330" type="line" smooth="yes"/>
			<point x="342" y="379"/>
			<point x="313" y="407.5"/>
			<point x="257" y="407.5" type="curve" smooth="yes"/>
			<point x="212" y="407.5"/>
			<point x="180" y="375"/>
			<point x="175" y="330" type="curve"/>
			<point name=".hr01" x="73" y="330" type="line"/>
			<point x="80.5" y="413"/>
			<point x="148.5" y="472"/>
			<point x="263" y="472" type="curve" smooth="yes"/>
			<point x="382.5" y="472"/>
			<point x="442" y="410.5"/>
			<point x="442" y="329" type="curve" smooth="yes"/>
			<point x="442" y="0" type="line"/>
		</contour>
	</outline>
	<anchor name="top" x="262" y="520"/>
</glyph>
<glyph name="b" format="2">
	<unicode hex="0062"/>
	<advance width="554"/>
	<outline>
		<contour>
			<point x="157.5" y="242" type="curve" smooth="yes"/>
			<point x="157.5" y="216" type="line" smooth="yes"/>
			<point x="157.5" y="105"/>
			<point x="224" y="60"/>
			<point x="277.5" y="60" type="curve" smooth="yes"/>
			<point x="342" y="60"/>
			<point x="400" y="115"/>
			<point x="400" y="233" type="curve" smooth="yes"/>
			<point x="400" y="350.5"/>
			<point x="348" y="400"/>
			<point x="275" y="400" type="curve" smooth="yes"/>
			<point x="208.5" y="400"/>
			<point x="157.5" y="333.5"/>
		</contour>
		<contour>
			<point x="148" y="97.5" type="line"/>
			<point x="146.5" y="348.5" type="line"/>
			<point x="157.5" y="369.5" type="line"/>
			<point x="189" y="434.5"/>
			<point x="237.5" y="472"/>
			<point x="310.5" y="472" type="curve" smooth="yes"/>
			<point x="421.5" y="472"/>
			<point x="505" y="389.5"/>
			<point x="505" y="233" type="curve" smooth="yes"/>
			<point x="505" y="82"/>
			<point x="406.5" y="-12"/>
			<point x="308.5" y="-12" type="curve" smooth="yes"/>
			<point x="242.5" y="-12"/>
			<point x="192.5" y="21"/>
			<point x="157.5" y="97.5" type="curve"/>
		</contour>
		<contour>
			<point x="57.5" y="0" type="line"/>
			<point x="57.5" y="700" type="line"/>
			<point x="157.5" y="700" type="line"/>
			<point x="157.5" y="97.5" type="line"/>
			<point x="155.5" y="97.5" type="line"/>
			<point x="140.5" y="0" type="line"/>
		</contour>
	</outline>
</glyph>
<glyph name="h" format="2">
	<unicode hex="0068"/>
	<advance width="554"/>
	<outline>
		<contour>
			<point x="152" y="285.5" type="line"/>
			<point x="152" y="372" type="line"/>
			<point x="170" y="372" type="line"/>
			<point x="211.5" y="437.5"/>
			<point x="269" y="472"/>
			<point x="333.5" y="472" type="curve" smooth="yes"/>
			<point x="431" y="472"/>
			<point x="483.5" y="414.5"/>
			<point x="483.5" y="307" type="curve" smooth="yes"/>
			<point x="483.5" y="0" type="line"/>
			<point x="383.5" y="0" type="line"/>
			<point x="383.5" y="278.5" type="line" smooth="yes"/>
			<point x="383.5" y="353.5"/>
			<point x="346" y="394"/>
			<point x="288" y="394" type="curve" smooth="yes"/>
			<point x="229.5" y="394"/>
			<point x="176" y="344"/>
			<point x="170" y="285.5" type="curve"/>
		</contour>
		<contour>
			<point x="70" y="0" type="line"/>
			<point x="70" y="700" type="line"/>
			<point x="170" y="700" type="line"/>
			<point x="170" y="0" type="line"/>
		</contour>
	</outline>
</glyph>
<glyph name="i" format="2">
	<unicode hex="0069"/>
	<advance width="260"/>
	<outline>
		<contour>
			<point x="180" y="0" type="line"/>
			<point x="80" y="0" type="line"/>
			<point x="80" y="460" type="line"/>
			<point x="180" y="460" type="line"/>
		</contour>
		<contour>
			<point x="180" y="520" type="line"/>
			<point x="80" y="520" type="line"/>
			<point x="80" y="645" type="line"/>
			<point x="180" y="645" type="line"/>
		</contour>
	</outline>
</glyph>
<glyph name="j" format="2">
	<unicode hex="006A"/>
	<advance width="230"/>
	<outline>
		<contour>
			<point x="160" y="560" type="line"/>
			<point x="80" y="560" type="line"/>
			<point x="80" y="640" type="line"/>
			<point x="160" y="640" type="line"/>
		</contour>
		<contour>
			<point x="-68" y="-100" type="curve"/>
			<point x="-3" y="-100" type="line"/>
			<point x="0" y="-132"/>
			<point x="21" y="-140"/>
			<point x="36" y="-140" type="curve" smooth="yes"/>
			<point x="60" y="-140"/>
			<point x="80" y="-136"/>
			<point x="80" y="-80" type="curve" smooth="yes"/>
			<point x="80" y="460" type="line"/>
			<point x="160" y="460" type="line"/>
			<point x="160" y="-60" type="line" smooth="yes"/>
			<point x="160" y="-181"/>
			<point x="104" y="-200"/>
			<point x="40" y="-200" type="curve" smooth="yes"/>
			<point x="-16" y="-200"/>
			<point x="-64" y="-162"/>
		</contour>
	</outline>
</glyph>
<glyph name="k" format="2">
	<unicode hex="006B"/>
	<advance width="544"/>
	<outline>
		<contour>
			<point x="145" y="185.5" type="line"/>
			<point x="145" y="287" type="line"/>
			<point x="197.5" y="301.5" type="line"/>
			<point x="315" y="460" type="line"/>
			<point x="440.5" y="460" type="line"/>
			<point x="291.5" y="264.5" type="line"/>
			<point x="453" y="0" type="line"/>
			<point x="330.5" y="0" type="line"/>
			<point x="207.5" y="202.5" type="line"/>
		</contour>
		<contour>
			<point x="45" y="0" type="line"/>
			<point x="45" y="700" type="line"/>
			<point x="145" y="700" type="line"/>
			<point x="145" y="0" type="line"/>
		</contour>
	</outline>
</glyph>
<glyph name="l" format="2">
	<unicode hex="006C"/>
	<advance width="240"/>
	<outline>
		<contour>
			<point x="170" y="0" type="line"/>
			<point x="70" y="0" type="line"/>
			<point x="70" y="700" type="line"/>
			<point x="170" y="700" type="line"/>
		</contour>
	</outline>
</glyph>
<glyph name="n" format="2">
	<unicode hex="006E"/>
	<advance width="554"/>
	<outline>
		<contour>
			<point x="152" y="285.5" type="line"/>
			<point x="152" y="372" type="line"/>
			<point x="170" y="372" type="line"/>
			<point x="211.5" y="437.5"/>
			<point x="269" y="472"/>
			<point x="333.5" y="472" type="curve" smooth="yes"/>
			<point x="431" y="472"/>
			<point x="483.5" y="414.5"/>
			<point x="483.5" y="307" type="curve" smooth="yes"/>
			<point x="483.5" y="0" type="line"/>
			<point x="383.5" y="0" type="line"/>
			<point x="383.5" y="278.5" type="line" smooth="yes"/>
			<point x="383.5" y="353.5"/>
			<point x="346" y="394"/>
			<point x="288" y="394" type="curve" smooth="yes"/>
			<point x="229.5" y="394"/>
			<point x="176" y="344"/>
			<point x="170" y="285.5" type="curve"/>
		</contour>
		<contour>
			<point x="70" y="0" type="line"/>
			<point x="70" y="460" type="line"/>
			<point x="158" y="460" type="line"/>
			<point x="167.5" y="372" type="line"/>
			<point x="170" y="372" type="line"/>
			<point x="170" y="0" type="line"/>
		</contour>
	</outline>
</glyph>
<glyph name="o" format="2">
	<unicode hex="006F"/>
	<advance width="535"/>
	<outline>
		<contour>
			<point x="137.5" y="230" type="curve" smooth="yes"/>
			<point x="137.5" y="113.5"/>
			<point x="192" y="50"/>
			<point x="267.5" y="50" type="curve" smooth="yes"/>
			<point x="343" y="50"/>
			<point x="397.5" y="111"/>
			<point x="397.5" y="230" type="curve" smooth="yes"/>
			<point x="397.5" y="346.5"/>
			<point x="343" y="410"/>
			<point x="267.5" y="410" type="curve" smooth="yes"/>
			<point x="192" y="410"/>
			<point x="137.5" y="349"/>
		</contour>
		<contour>
			<point x="32.5" y="230" type="curve" smooth="yes"/>
			<point x="32.5" y="372.5"/>
			<point x="116" y="472"/>
			<point x="267.5" y="472" type="curve" smooth="yes"/>
			<point x="420" y="472"/>
			<point x="502.5" y="372.5"/>
			<point x="502.5" y="230" type="curve" smooth="yes"/>
			<point x="502.5" y="87.5"/>
			<point x="419" y="-12"/>
			<point x="267.5" y="-12" type="curve" smooth="yes"/>
			<point x="115" y="-12"/>
			<point x="32.5" y="87.5"/>
		</contour>
	</outline>
	<anchor name="top" x="265.5" y="525"/>
</glyph>
<glyph name="p" format="2">
	<unicode hex="0070"/>
	<advance width="499"/>
	<outline>
		<contour>
			<point x="132.5" y="231" type="curve" smooth="yes"/>
			<point x="132.5" y="226" type="line" smooth="yes"/>
			<point x="132.5" y="123"/>
			<point x="183.5" y="55"/>
			<point x="252.5" y="55" type="curve" smooth="yes"/>
			<point x="345.5" y="55"/>
			<point x="383.5" y="123"/>
			<point x="383.5" y="231" type="curve" smooth="yes"/>
			<point x="383.5" y="306"/>
			<point x="364.5" y="405"/>
			<point x="252.5" y="405" type="curve" smooth="yes"/>
			<point x="169.5" y="405"/>
			<point x="132.5" y="315"/>
		</contour>
		<contour>
			<point x="52.5" y="-200" type="line"/>
			<point x="52.5" y="460" type="line"/>
			<point x="112.5" y="460" type="line"/>
			<point x="131" y="378" type="line"/>
			<point x="160" y="436"/>
			<point x="206" y="470"/>
			<point x="277.5" y="470" type="curve" smooth="yes"/>
			<point x="402.5" y="470"/>
			<point x="463.5" y="350"/>
			<point x="463.5" y="231" type="curve" smooth="yes"/>
			<point x="463.5" y="111"/>
			<point x="399.5" y="-10"/>
			<point x="273.5" y="-10" type="curve" smooth="yes"/>
			<point x="205.5" y="-10"/>
			<point x="159.5" y="19.5"/>
			<point x="132.5" y="69.5" type="curve"/>
			<point x="132.5" y="-200" type="line"/>
		</contour>
	</outline>
</glyph>
<glyph name="section" format="2">
	<unicode hex="00A7"/>
	<advance width="465"/>
	<outline>
		<contour>
			<point x="120" y="402" type="curve" smooth="yes"/>
			<point x="120" y="360"/>
			<point x="145" y="342"/>
			<point x="173" y="322" type="curve"/>
			<point x="271" y="263" type="line" smooth="yes"/>
			<point x="279" y="258"/>
			<point x="287" y="256"/>
			<point x="294" y="256" type="curve" smooth="yes"/>
			<point x="325" y="256"/>
			<point x="345" y="293"/>
			<point x="345" y="314" type="curve" smooth="yes"/>
			<point x="345" y="344"/>
			<point x="337" y="371"/>
			<point x="280" y="413" type="curve"/>
			<point x="173" y="476" type="line"/>
			<point x="140" y="469"/>
			<point x="120" y="434"/>
		</contour>
		<contour>
			<point x="40" y="400" type="curve" smooth="yes"/>
			<point x="40" y="457"/>
			<point x="77" y="498"/>
			<point x="123" y="515" type="curve"/>
			<point x="99" y="537"/>
			<point x="85" y="571"/>
			<point name=".hr01" x="85" y="599" type="curve" smooth="yes"/>
			<point x="85" y="602" type="line"/>
			<point x="86" y="669"/>
			<point x="153" y="710"/>
			<point x="229" y="710" type="curve" smooth="yes"/>
			<point x="320" y="710"/>
			<point x="375" y="661"/>
			<point x="375" y="568" type="curve"/>
			<point x="295" y="568" type="line"/>
			<point x="295" y="618"/>
			<point x="278" y="645"/>
			<point x="229" y="645" type="curve" smooth="yes"/>
			<point x="200" y="645"/>
			<point x="165" y="627"/>
			<point x="165" y="591" type="curve" smooth="yes"/>
			<point x="165" y="560"/>
			<point x="204" y="534"/>
			<point x="239" y="511" type="curve" smooth="yes"/>
			<point x="360" y="432" type="line"/>
			<point x="399" y="408"/>
			<point x="425" y="378"/>
			<point name=".hr02" x="425" y="319" type="curve" smooth="yes"/>
			<point x="425" y="264"/>
			<point x="382" y="234"/>
			<point x="341" y="215" type="curve"/>
			<point x="366" y="199"/>
			<point x="387" y="157"/>
			<point name=".hr03" x="387" y="116" type="curve" smooth="yes"/>
			<point x="387" y="48"/>
			<point x="320" y="-10"/>
			<point x="233" y="-10" type="curve" smooth="yes"/>
			<point x="142" y="-10"/>
			<point x="75" y="59"/>
			<point x="75" y="148" type="curve"/>
			<point x="155" y="148" type="line"/>
			<point x="155" y="78"/>
			<point x="215" y="55"/>
			<point x="243" y="55" type="curve" smooth="yes"/>
			<point x="285" y="55"/>
			<point x="319" y="75"/>
			<point x="319" y="112" type="curve" smooth="yes"/>
			<point x="319" y="143"/>
			<point x="296" y="173"/>
			<point x="247" y="202" type="curve" smooth="yes"/>
			<point x="211" y="223"/>
			<point x="176" y="244"/>
			<point x="140" y="265" type="curve" smooth="yes"/>
			<point x="73" y="302"/>
			<point x="40" y="349"/>
		</contour>
	</outline>
</glyph>
<glyph name="dieresis" format="2">
	<unicode hex="00A8"/>
	<advance width="319"/>
	<outline>
		<contour>
			<point x="105" y="520" type="line"/>
			<point x="55" y="520" type="line"/>
			<point x="55" y="600" type="line"/>
			<point x="105" y="600" type="line"/>
		</contour>
		<contour>
			<point x="264" y="520" type="line"/>
			<point x="214" y="520" type="line"/>
			<point x="214" y="600" type="line"/>
			<point x="264" y="600" type="line"/>
		</contour>
	</outline>
</glyph>
<glyph name="acute" format="2">
	<unicode hex="00B4"/>
	<advance width="309"/>
	<outline>
		<contour>
			<point x="167" y="505" type="line"/>
			<point x="70" y="505" type="line"/>
			<point x="130" y="700" type="line"/>
			<point x="243" y="700" type="line"/>
		</contour>
	</outline>
</glyph>
<glyph name="periodcentered" format="2">
	<unicode hex="00B7"/>
	<advance width="180"/>
	<outline>
		<contour>
			<point x="130" y="230" type="line"/>
			<point x="50" y="230" type="line"/>
			<point x="50" y="310" type="line"/>
			<point x="130" y="310" type="line"/>
		</contour>
	</outline>
</glyph>
<glyph name="threequarters" format="2">
	<unicode hex="00BE"/>
	<advance width="742"/>
	<outline>
		<contour>
			<point x="595" y="101" type="line"/>
			<point x="595" y="214" type="line"/>
			<point x="495" y="101" type="line"/>
		</contour>
		<contour>
			<point x="595" y="-13" type="line"/>
			<point x="595" y="53" type="line"/>
			<point x="428" y="53" type="line"/>
			<point x="428" y="107" type="line"/>
			<point x="603" y="312" type="line"/>
			<point x="657" y="312" type="line"/>
			<point x="657" y="101" type="line"/>
			<point x="702" y="101" type="line"/>
			<point x="702" y="53" type="line"/>
			<point x="657" y="53" type="line"/>
			<point x="657" y="-13" type="line"/>
		</contour>
		<contour>
			<point x="23" y="404" type="curve"/>
			<point x="86" y="410" type="line"/>
			<point x="93" y="392"/>
			<point x="104" y="361"/>
			<point x="153" y="361" type="curve" smooth="yes"/>
			<point x="191" y="361"/>
			<point x="222" y="384"/>
			<point x="222" y="419" type="curve" smooth="yes"/>
			<point x="222" y="454"/>
			<point x="195" y="464"/>
			<point x="169" y="466" type="curve"/>
			<point x="163" y="467"/>
			<point x="158" y="467"/>
			<point x="153" y="467" type="curve" smooth="yes"/>
			<point x="145" y="467"/>
			<point x="141" y="467"/>
			<point x="129" y="466" type="curve"/>
			<point x="138" y="514" type="line"/>
			<point x="165" y="514"/>
			<point name=".hr01" x="206" y="523"/>
			<point x="206" y="558" type="curve" smooth="yes"/>
			<point x="206" y="586"/>
			<point x="178" y="596"/>
			<point x="154" y="596" type="curve" smooth="yes"/>
			<point x="114" y="596"/>
			<point x="101" y="577"/>
			<point x="93" y="553" type="curve"/>
			<point x="30" y="562" type="line"/>
			<point x="47" y="612"/>
			<point x="77" y="645"/>
			<point x="155" y="645" type="curve" smooth="yes"/>
			<point x="208" y="645"/>
			<point x="274" y="630"/>
			<point x="274" y="564" type="curve" smooth="yes"/>
			<point x="274" y="534"/>
			<point x="256" y="506"/>
			<point x="214" y="495" type="curve"/>
			<point x="214" y="485"/>
			<point name=".hr02" x="289" y="460"/>
			<point x="289" y="411" type="curve" smooth="yes"/>
			<point x="289" y="340"/>
			<point x="219" y="311"/>
			<point x="158" y="311" type="curve" smooth="yes"/>
			<point x="71" y="311"/>
			<point x="31" y="351"/>
		</contour>
		<contour>
			<point x="657" y="651" type="line"/>
			<point x="178" y="-22" type="line"/>
			<point x="109" y="-22" type="line"/>
			<point x="589" y="651" type="line"/>
		</contour>
	</outline>
</glyph>
<glyph name="Aring" format="2">
	<unicode hex="00C5"/>
	<advance width="565"/>
	<outline>
		<contour>
			<point x="366" y="282.5" type="line"/>
			<point x="282.5" y="545.5" type="line"/>
			<point x="199" y="282.5" type="line"/>
		</contour>
		<contour>
			<point x="251.5" y="859" type="curve" smooth="yes"/>
			<point x="251.5" y="842"/>
			<point x="265.5" y="828"/>
			<point x="282.5" y="828" type="curve" smooth="yes"/>
			<point x="299.5" y="828"/>
			<point x="313.5" y="842"/>
			<point x="313.5" y="859" type="curve" smooth="yes"/>
			<point x="313.5" y="876"/>
			<point x="299.5" y="890"/>
			<point x="282.5" y="890" type="curve" smooth="yes"/>
			<point x="265.5" y="890"/>
			<point x="251.5" y="876"/>
		</contour>
		<contour>
			<point x="454" y="0" type="line"/>
			<point x="396.5" y="182.5" type="line"/>
			<point x="168.5" y="182.5" type="line"/>
			<point x="111" y="0" type="line"/>
			<point x="10" y="0" type="line"/>
			<point x="223.5" y="680" type="line"/>
			<point x="340.5" y="680" type="line"/>
			<point x="555" y="0" type="line"/>
		</contour>
		<contour>
			<point x="204.5" y="859" type="curve" smooth="yes"/>
			<point x="204.5" y="902"/>
			<point x="239.5" y="937"/>
			<point x="282.5" y="937" type="curve" smooth="yes"/>
			<point x="325.5" y="937"/>
			<point x="360.5" y="902"/>
			<point x="360.5" y="859" type="curve" smooth="yes"/>
			<point x="360.5" y="816"/>
			<point x="325.5" y="781"/>
			<point x="282.5" y="781" type="curve" smooth="yes"/>
			<point x="239.5" y="781"/>
			<point x="204.5" y="816"/>
		</contour>
	</outline>
</glyph>
<glyph name="Ccedilla" format="2">
	<unicode hex="00C7"/>
	<advance width="675"/>
	<outline>
		<contour>
			<point x="253" y="-193" type="curve"/>
			<point x="253" y="-164" type="line"/>
			<point x="266" y="-167"/>
			<point x="287" y="-170"/>
			<point x="307" y="-170" type="curve" smooth="yes"/>
			<point x="348" y="-170"/>
			<point x="366" y="-148"/>
			<point x="366" y="-118" type="curve" smooth="yes"/>
			<point x="366" y="-82"/>
			<point x="317" y="-70"/>
			<point x="287" y="-67" type="curve"/>
			<point x="314.5" y="-8.5" type="line"/>
			<point x="151" y="8.5"/>
			<point x="55" y="135.5"/>
			<point x="55" y="340" type="curve" smooth="yes"/>
			<point x="55" y="559.5"/>
			<point x="166" y="690"/>
			<point x="353" y="690" type="curve" smooth="yes"/>
			<point x="495" y="690"/>
			<point x="593.5" y="600"/>
			<point x="620" y="449" type="curve"/>
			<point x="530" y="449" type="line"/>
			<point x="509" y="545.5"/>
			<point x="443.5" y="600"/>
			<point x="353" y="600" type="curve" smooth="yes"/>
			<point x="231.5" y="600"/>
			<point x="156" y="499.5"/>
			<point x="156" y="340" type="curve" smooth="yes"/>
			<point x="156" y="180.5"/>
			<point x="231.5" y="80"/>
			<point x="353" y="80" type="curve" smooth="yes"/>
			<point x="437" y="80"/>
			<point x="505" y="128"/>
			<point x="522.5" y="204" type="curve"/>
			<point x="612.5" y="204" type="line"/>
			<point x="590.5" y="82"/>
			<point x="500" y="-1"/>
			<point x="374.5" y="-9" type="curve"/>
			<point x="356" y="-46" type="line"/>
			<point x="379" y="-54"/>
			<point x="423" y="-70"/>
			<point x="423" y="-123" type="curve" smooth="yes"/>
			<point x="423" y="-177"/>
			<point x="378" y="-209"/>
			<point x="323" y="-209" type="curve" smooth="yes"/>
			<point x="290" y="-209"/>
			<point x="267" y="-200"/>
		</contour>
	</outline>
</glyph>
<glyph name="Ntilde" format="2">
	<unicode hex="00D1"/>
	<advance width="666"/>
	<outline>
		<contour>
			<point x="176" y="450" type="curve" smooth="yes"/>
			<point x="176" y="0" type="line"/>
			<point x="75" y="0" type="line"/>
			<point x="75" y="680" type="line"/>
			<point x="187" y="680" type="line"/>
			<point x="492.5" y="164.5" type="line"/>
			<point x="490" y="189.5"/>
			<point x="490" y="212.5"/>
			<point x="490" y="230" type="curve" smooth="yes"/>
			<point x="490" y="680" type="line"/>
			<point x="591" y="680" type="line"/>
			<point x="591" y="0" type="line"/>
			<point x="479" y="0" type="line"/>
			<point x="173.5" y="515.5" type="line"/>
			<point x="176" y="490.5"/>
			<point x="176" y="467.5"/>
		</contour>
		<contour>
			<point x="252" y="760" type="curve"/>
			<point x="202" y="760" type="line"/>
			<point x="216" y="847"/>
			<point x="252" y="880"/>
			<point name=".hr01" x="292" y="880" type="curve" smooth="yes"/>
			<point x="317" y="880"/>
			<point x="339" y="870"/>
			<point x="361" y="859" type="curve"/>
			<point x="377" y="850"/>
			<point x="398" y="840"/>
			<point name=".hr02" x="418" y="840" type="curve" smooth="yes"/>
			<point x="438" y="840"/>
			<point x="453" y="852"/>
			<point x="458" y="880" type="curve"/>
			<point name=".hr03" x="508" y="880" type="line"/>
			<point x="494" y="793"/>
			<point x="458" y="760"/>
			<point name=".hr04" x="418" y="760" type="curve" smooth="yes"/>
			<point x="393" y="760"/>
			<point x="372" y="769"/>
			<point x="351" y="780" type="curve" smooth="yes"/>
			<point x="334" y="789"/>
			<point x="312" y="800"/>
			<point name=".hr05" x="292" y="800" type="curve" smooth="yes"/>
			<point x="272" y="800"/>
			<point x="257" y="788"/>
		</contour>
	</outline>
</glyph>
<glyph name="multiply" format="2">
	<unicode hex="00D7"/>
	<advance width="520"/>
	<outline>
		<contour>
			<point x="123" y="125" type="line"/>
			<point x="70" y="178" type="line"/>
			<point x="207" y="314" type="line"/>
			<point x="71" y="451" type="line"/>
			<point x="124" y="505" type="line"/>
			<point x="261" y="368" type="line"/>
			<point x="397" y="504" type="line"/>
			<point x="449" y="451" type="line"/>
			<point x="313" y="315" type="line"/>
			<point x="449" y="179" type="line"/>
			<point x="397" y="125" type="line"/>
			<point x="260" y="263" type="line"/>
		</contour>
	</outline>
</glyph>
<glyph name="Oslash" format="2">
	<unicode hex="00D8"/>
	<advance width="660"/>
	<outline>
		<contour>
			<point x="148" y="349" type="curve" smooth="yes"/>
			<point x="148" y="301"/>
			<point x="153" y="255"/>
			<point x="164" y="215" type="curve"/>
			<point x="467" y="576" type="line"/>
			<point x="437" y="609"/>
			<point x="395" y="629"/>
			<point x="336" y="629" type="curve" smooth="yes"/>
			<point x="197" y="629"/>
			<point x="148" y="501"/>
		</contour>
		<contour>
			<point x="509" y="501" type="curve"/>
			<point x="201" y="135" type="line"/>
			<point x="231" y="94"/>
			<point x="275" y="69"/>
			<point x="337" y="69" type="curve" smooth="yes"/>
			<point x="487" y="69"/>
			<point x="529" y="236"/>
			<point x="529" y="349" type="curve" smooth="yes"/>
			<point x="529" y="405"/>
			<point x="523" y="457"/>
		</contour>
		<contour>
			<point x="147" y="69" type="curve"/>
			<point x="84" y="-6" type="line"/>
			<point x="23" y="45" type="line"/>
			<point x="101" y="138" type="line"/>
			<point x="74" y="196"/>
			<point x="61" y="268"/>
			<point x="61" y="349" type="curve" smooth="yes"/>
			<point x="61" y="559"/>
			<point x="157" y="709"/>
			<point x="339" y="709" type="curve" smooth="yes"/>
			<point x="416" y="709"/>
			<point x="477" y="684"/>
			<point x="522" y="640" type="curve"/>
			<point x="576" y="705" type="line"/>
			<point x="637" y="654" type="line"/>
			<point x="571" y="575" type="line"/>
			<point x="604" y="514"/>
			<point x="620" y="436"/>
			<point x="620" y="350" type="curve"/>
			<point x="619" y="349" type="line"/>
			<point x="619" y="140"/>
			<point x="530" y="-11"/>
			<point x="343" y="-11" type="curve" smooth="yes"/>
			<point x="258" y="-11"/>
			<point x="193" y="18"/>
		</contour>
	</outline>
</glyph>
<glyph name="ugrave" format="2">
	<unicode hex="00F9"/>
	<advance width="478"/>
	<outline>
		<contour>
			<point x="354" y="154" type="curve"/>
			<point x="354" y="460" type="line"/>
			<point x="433" y="460" type="line"/>
			<point x="433" y="0" type="line"/>
			<point x="374" y="0" type="line"/>
			<point x="357" y="83" type="line"/>
			<point x="323" y="36"/>
			<point x="275" y="-10"/>
			<point x="200" y="-10" type="curve" smooth="yes"/>
			<point x="51" y="-10"/>
			<point x="45" y="98"/>
			<point x="45" y="165" type="curve" smooth="yes"/>
			<point x="45" y="460" type="line"/>
			<point x="125" y="460" type="line"/>
			<point x="125" y="165" type="line" smooth="yes"/>
			<point x="125" y="121"/>
			<point x="134" y="55"/>
			<point x="222" y="55" type="curve" smooth="yes"/>
			<point x="266" y="55"/>
			<point x="330" y="90"/>
		</contour>
		<contour>
			<point x="271" y="520" type="line"/>
			<point x="207" y="520" type="line"/>
			<point x="141" y="680" type="line"/>
			<point x="221" y="680" type="line"/>
		</contour>
	</outline>
</glyph>
<glyph name="ucircumflex" format="2">
	<unicode hex="00FB"/>
	<advance width="478"/>
	<outline>
		<contour>
			<point x="354" y="154" type="curve"/>
			<point x="354" y="460" type="line"/>
			<point x="433" y="460" type="line"/>
			<point x="433" y="0" type="line"/>
			<point x="374" y="0" type="line"/>
			<point x="357" y="83" type="line"/>
			<point x="323" y="36"/>
			<point x="275" y="-10"/>
			<point x="200" y="-10" type="curve" smooth="yes"/>
			<point x="51" y="-10"/>
			<point x="45" y="98"/>
			<point x="45" y="165" type="curve" smooth="yes"/>
			<point x="45" y="460" type="line"/>
			<point x="125" y="460" type="line"/>
			<point x="125" y="165" type="line" smooth="yes"/>
			<point x="125" y="121"/>
			<point x="134" y="55"/>
			<point x="222" y="55" type="curve" smooth="yes"/>
			<point x="266" y="55"/>
			<point x="330" y="90"/>
		</contour>
		<contour>
			<point x="239" y="633" type="line"/>
			<point x="141" y="520" type="line"/>
			<point x="84" y="520" type="line"/>
			<point x="194" y="690" type="line"/>
			<point x="284" y="690" type="line"/>
			<point x="394" y="520" type="line"/>
			<point x="337" y="520" type="line"/>
		</contour>
	</outline>
</glyph>
<glyph name="Abreve" format="2">
	<unicode hex="0102"/>
	<advance width="570"/>
	<outline>
		<contour>
			<point x="356" y="282.5" type="line"/>
			<point x="272.5" y="545.5" type="line"/>
			<point x="189" y="282.5" type="line"/>
		</contour>
		<contour>
			<point x="444" y="0" type="line"/>
			<point x="386.5" y="182.5" type="line"/>
			<point x="158.5" y="182.5" type="line"/>
			<point x="101" y="0" type="line"/>
			<point x="0" y="0" type="line"/>
			<point x="213.5" y="680" type="line"/>
			<point x="330.5" y="680" type="line"/>
			<point x="545" y="0" type="line"/>
		</contour>
		<contour>
			<point x="130" y="890" type="curve"/>
			<point x="210" y="890" type="line"/>
			<point x="210" y="830"/>
			<point x="250" y="810"/>
			<point x="285" y="810" type="curve" smooth="yes"/>
			<point x="320" y="810"/>
			<point x="360" y="830"/>
			<point x="360" y="890" type="curve"/>
			<point x="440" y="890" type="line"/>
			<point x="440" y="790"/>
			<point x="365" y="750"/>
			<point x="285" y="750" type="curve" smooth="yes"/>
			<point x="205" y="750"/>
			<point x="130" y="790"/>
		</contour>
	</outline>
</glyph>
<glyph name="Cacute" format="2">
	<unicode hex="0106"/>
	<advance width="675"/>
	<outline>
		<contour>
			<point x="353" y="600" type="curve" smooth="yes"/>
			<point x="231.5" y="600"/>
			<point x="156" y="499.5"/>
			<point x="156" y="340" type="curve" smooth="yes"/>
			<point x="156" y="180.5"/>
			<point x="231.5" y="80"/>
			<point x="353" y="80" type="curve" smooth="yes"/>
			<point x="437" y="80"/>
			<point x="505" y="128"/>
			<point x="522.5" y="204" type="curve"/>
			<point x="612.5" y="204" type="line"/>
			<point x="589" y="75.5"/>
			<point x="489.5" y="-10"/>
			<point x="353" y="-10" type="curve" smooth="yes"/>
			<point x="166" y="-10"/>
			<point x="55" y="120.5"/>
			<point x="55" y="340" type="curve" smooth="yes"/>
			<point x="55" y="559.5"/>
			<point x="166" y="690"/>
			<point x="353" y="690" type="curve" smooth="yes"/>
			<point x="495" y="690"/>
			<point x="593.5" y="600"/>
			<point x="620" y="449" type="curve"/>
			<point x="530" y="449" type="line"/>
			<point x="509" y="545.5"/>
			<point x="443.5" y="600"/>
		</contour>
		<contour>
			<point x="464.5" y="905" type="line"/>
			<point x="392.5" y="710" type="line"/>
			<point x="295.5" y="710" type="line"/>
			<point x="355.5" y="905" type="line"/>
		</contour>
	</outline>
</glyph>
<glyph name="Ccircumflex" format="2">
	<unicode hex="0108"/>
	<advance width="675"/>
	<outline>
		<contour>
			<point x="353" y="600" type="curve" smooth="yes"/>
			<point x="231.5" y="600"/>
			<point x="156" y="499.5"/>
			<point x="156" y="340" type="curve" smooth="yes"/>
			<point x="156" y="180.5"/>
			<point x="231.5" y="80"/>
			<point x="353" y="80" type="curve" smooth="yes"/>
			<point x="437" y="80"/>
			<point x="505" y="128"/>
			<point x="522.5" y="204" type="curve"/>
			<point x="612.5" y="204" type="line"/>
			<point x="589" y="75.5"/>
			<point x="489.5" y="-10"/>
			<point x="353" y="-10" type="curve" smooth="yes"/>
			<point x="166" y="-10"/>
			<point x="55" y="120.5"/>
			<point x="55" y="340" type="curve" smooth="yes"/>
			<point x="55" y="559.5"/>
			<point x="166" y="690"/>
			<point x="353" y="690" type="curve" smooth="yes"/>
			<point x="495" y="690"/>
			<point x="593.5" y="600"/>
			<point x="620" y="449" type="curve"/>
			<point x="530" y="449" type="line"/>
			<point x="509" y="545.5"/>
			<point x="443.5" y="600"/>
		</contour>
		<contour>
			<point x="345" y="853" type="line"/>
			<point x="247" y="740" type="line"/>
			<point x="190" y="740" type="line"/>
			<point x="300" y="910" type="line"/>
			<point x="390" y="910" type="line"/>
			<point x="500" y="740" type="line"/>
			<point x="443" y="740" type="line"/>
		</contour>
	</outline>
</glyph>
<glyph name="ccircumflex" format="2">
	<unicode hex="0109"/>
	<advance width="510"/>
	<outline>
		<contour>
			<point x="50" y="230" type="curve" smooth="yes"/>
			<point x="50" y="348"/>
			<point x="95" y="470"/>
			<point x="259" y="470" type="curve" smooth="yes"/>
			<point x="378" y="470"/>
			<point x="437" y="405"/>
			<point x="459" y="320" type="curve"/>
			<point x="370" y="320" type="line"/>
			<point x="367" y="335"/>
			<point x="338" y="402"/>
			<point x="259" y="402" type="curve" smooth="yes"/>
			<point x="168" y="402"/>
			<point x="134" y="335"/>
			<point x="134" y="230" type="curve" smooth="yes"/>
			<point x="134" y="147"/>
			<point x="160" y="58"/>
			<point x="259" y="58" type="curve" smooth="yes"/>
			<point x="336" y="58"/>
			<point x="365" y="118"/>
			<point x="372" y="150" type="curve"/>
			<point x="460" y="150" type="line"/>
			<point x="440" y="79"/>
			<point x="387" y="-10"/>
			<point x="259" y="-10" type="curve" smooth="yes"/>
			<point x="94" y="-10"/>
			<point x="50" y="122"/>
		</contour>
		<contour>
			<point x="255" y="633" type="line"/>
			<point x="157" y="520" type="line"/>
			<point x="100" y="520" type="line"/>
			<point x="210" y="690" type="line"/>
			<point x="300" y="690" type="line"/>
			<point x="410" y="520" type="line"/>
			<point x="353" y="520" type="line"/>
		</contour>
	</outline>
</glyph>
<glyph name="Cdotaccent" format="2">
	<unicode hex="010A"/>
	<advance width="675"/>
	<outline>
		<contour>
			<point x="353" y="600" type="curve" smooth="yes"/>
			<point x="231.5" y="600"/>
			<point x="156" y="499.5"/>
			<point x="156" y="340" type="curve" smooth="yes"/>
			<point x="156" y="180.5"/>
			<point x="231.5" y="80"/>
			<point x="353" y="80" type="curve" smooth="yes"/>
			<point x="437" y="80"/>
			<point x="505" y="128"/>
			<point x="522.5" y="204" type="curve"/>
			<point x="612.5" y="204" type="line"/>
			<point x="589" y="75.5"/>
			<point x="489.5" y="-10"/>
			<point x="353" y="-10" type="curve" smooth="yes"/>
			<point x="166" y="-10"/>
			<point x="55" y="120.5"/>
			<point x="55" y="340" type="curve" smooth="yes"/>
			<point x="55" y="559.5"/>
			<point x="166" y="690"/>
			<point x="353" y="690" type="curve" smooth="yes"/>
			<point x="495" y="690"/>
			<point x="593.5" y="600"/>
			<point x="620" y="449" type="curve"/>
			<point x="530" y="449" type="line"/>
			<point x="509" y="545.5"/>
			<point x="443.5" y="600"/>
		</contour>
		<contour>
			<point x="395" y="850" type="line"/>
			<point x="395" y="740" type="line"/>
			<point x="295" y="740" type="line"/>
			<point x="295" y="850" type="line"/>
		</contour>
	</outline>
</glyph>
<glyph name="Ccaron" format="2">
	<unicode hex="010C"/>
	<advance width="675"/>
	<outline>
		<contour>
			<point x="353" y="600" type="curve" smooth="yes"/>
			<point x="231.5" y="600"/>
			<point x="156" y="499.5"/>
			<point x="156" y="340" type="curve" smooth="yes"/>
			<point x="156" y="180.5"/>
			<point x="231.5" y="80"/>
			<point x="353" y="80" type="curve" smooth="yes"/>
			<point x="437" y="80"/>
			<point x="505" y="128"/>
			<point x="522.5" y="204" type="curve"/>
			<point x="612.5" y="204" type="line"/>
			<point x="589" y="75.5"/>
			<point x="489.5" y="-10"/>
			<point x="353" y="-10" type="curve" smooth="yes"/>
			<point x="166" y="-10"/>
			<point x="55" y="120.5"/>
			<point x="55" y="340" type="curve" smooth="yes"/>
			<point x="55" y="559.5"/>
			<point x="166" y="690"/>
			<point x="353" y="690" type="curve" smooth="yes"/>
			<point x="495" y="690"/>
			<point x="593.5" y="600"/>
			<point x="620" y="449" type="curve"/>
			<point x="530" y="449" type="line"/>
			<point x="509" y="545.5"/>
			<point x="443.5" y="600"/>
		</contour>
		<contour>
			<point x="385" y="740" type="line"/>
			<point x="305" y="740" type="line"/>
			<point x="205" y="900" type="line"/>
			<point x="269" y="900" type="line"/>
			<point x="345" y="815" type="line"/>
			<point x="421" y="900" type="line"/>
			<point x="485" y="900" type="line"/>
		</contour>
	</outline>
</glyph>
<glyph name="Dcaron" format="2">
	<unicode hex="010E"/>
	<advance width="635"/>
	<outline>
		<contour>
			<point x="176" y="590" type="line"/>
			<point x="176" y="90" type="line"/>
			<point x="298" y="90" type="line" smooth="yes"/>
			<point x="415" y="90"/>
			<point x="479.5" y="195"/>
			<point x="479.5" y="340" type="curve" smooth="yes"/>
			<point x="479.5" y="503"/>
			<point x="417" y="590"/>
			<point x="298" y="590" type="curve" smooth="yes"/>
		</contour>
		<contour>
			<point x="75" y="680" type="line"/>
			<point x="298" y="680" type="line" smooth="yes"/>
			<point x="488" y="680"/>
			<point x="580" y="549"/>
			<point x="580" y="340" type="curve" smooth="yes"/>
			<point x="580" y="129.5"/>
			<point x="488.5" y="0"/>
			<point x="298" y="0" type="curve" smooth="yes"/>
			<point x="75" y="0" type="line"/>
		</contour>
		<contour>
			<point x="357.5" y="760" type="line"/>
			<point x="277.5" y="760" type="line"/>
			<point x="177.5" y="920" type="line"/>
			<point x="241.5" y="920" type="line"/>
			<point x="317.5" y="835" type="line"/>
			<point x="393.5" y="920" type="line"/>
			<point x="457.5" y="920" type="line"/>
		</contour>
	</outline>
</glyph>
<glyph name="dcroat" format="2">
	<unicode hex="0111"/>
	<advance width="491"/>
	<outline>
		<contour>
			<point x="115" y="230" type="curve" smooth="yes"/>
			<point x="115" y="132"/>
			<point x="166" y="70"/>
			<point x="245" y="70" type="curve" smooth="yes"/>
			<point x="314" y="70"/>
			<point x="365" y="132"/>
			<point x="365" y="230" type="curve" smooth="yes"/>
			<point x="365" y="304"/>
			<point x="330" y="390"/>
			<point x="245" y="390" type="curve" smooth="yes"/>
			<point x="159" y="390"/>
			<point x="115" y="309"/>
		</contour>
		<contour>
			<point x="35" y="230" type="curve"/>
			<point x="36" y="231" type="line"/>
			<point x="36" y="345"/>
			<point x="102" y="471"/>
			<point x="226" y="471" type="curve" smooth="yes"/>
			<point x="286" y="471"/>
			<point x="338" y="437"/>
			<point x="366" y="381" type="curve"/>
			<point x="366" y="530" type="line"/>
			<point x="250" y="530" type="line"/>
			<point x="250" y="610" type="line"/>
			<point x="366" y="610" type="line"/>
			<point x="366" y="700" type="line"/>
			<point name=".hr01" x="446" y="700" type="line"/>
			<point x="446" y="610" type="line"/>
			<point name=".hr02" x="490" y="610" type="line"/>
			<point x="490" y="530" type="line"/>
			<point x="446" y="530" type="line"/>
			<point x="446" y="0" type="line"/>
			<point x="366" y="0" type="line"/>
			<point x="366" y="72" type="line"/>
			<point x="343" y="21"/>
			<point x="283" y="-10"/>
			<point x="225" y="-10" type="curve" smooth="yes"/>
			<point x="95" y="-10"/>
			<point x="35" y="111"/>
		</contour>
	</outline>
</glyph>
<glyph name="Emacron" format="2">
	<unicode hex="0112"/>
	<advance width="510"/>
	<outline>
		<contour>
			<point x="420" y="305" type="line"/>
			<point x="176" y="305" type="line"/>
			<point x="176" y="85" type="line"/>
			<point x="460" y="85" type="line"/>
			<point x="460" y="0" type="line"/>
			<point x="75" y="0" type="line"/>
			<point x="75" y="680" type="line"/>
			<point x="460" y="680" type="line"/>
			<point x="460" y="595" type="line"/>
			<point x="176" y="595" type="line"/>
			<point x="176" y="390" type="line"/>
			<point x="420" y="390" type="line"/>
		</contour>
		<contour>
			<point name=".hr01" x="390" y="860" type="line"/>
			<point x="390" y="790" type="line"/>
			<point x="120" y="790" type="line"/>
			<point x="120" y="860" type="line"/>
		</contour>
	</outline>
</glyph>
<glyph name="Ebreve" format="2">
	<unicode hex="0114"/>
	<advance width="510"/>
	<outline>
		<contour>
			<point x="420" y="305" type="line"/>
			<point x="176" y="305" type="line"/>
			<point x="176" y="85" type="line"/>
			<point x="460" y="85" type="line"/>
			<point x="460" y="0" type="line"/>
			<point x="75" y="0" type="line"/>
			<point x="75" y="680" type="line"/>
			<point x="460" y="680" type="line"/>
			<point x="460" y="595" type="line"/>
			<point x="176" y="595" type="line"/>
			<point x="176" y="390" type="line"/>
			<point x="420" y="390" type="line"/>
		</contour>
		<contour>
			<point name=".hr01" x="100" y="880" type="curve"/>
			<point x="180" y="880" type="line"/>
			<point x="180" y="820"/>
			<point x="220" y="800"/>
			<point x="255" y="800" type="curve" smooth="yes"/>
			<point x="290" y="800"/>
			<point x="330" y="820"/>
			<point x="330" y="880" type="curve"/>
			<point x="410" y="880" type="line"/>
			<point x="410" y="780"/>
			<point x="335" y="740"/>
			<point x="255" y="740" type="curve" smooth="yes"/>
			<point x="175" y="740"/>
			<point x="100" y="780"/>
		</contour>
	</outline>
</glyph>
<glyph name="Ecaron" format="2">
	<unicode hex="011A"/>
	<advance width="510"/>
	<outline>
		<contour>
			<point x="420" y="305" type="line"/>
			<point x="176" y="305" type="line"/>
			<point x="176" y="85" type="line"/>
			<point x="460" y="85" type="line"/>
			<point x="460" y="0" type="line"/>
			<point x="75" y="0" type="line"/>
			<point x="75" y="680" type="line"/>
			<point x="460" y="680" type="line"/>
			<point x="460" y="595" type="line"/>
			<point x="176" y="595" type="line"/>
			<point x="176" y="390" type="line"/>
			<point x="420" y="390" type="line"/>
		</contour>
		<contour>
			<point x="295" y="740" type="line"/>
			<point x="215" y="740" type="line"/>
			<point x="115" y="900" type="line"/>
			<point x="179" y="900" type="line"/>
			<point x="255" y="815" type="line"/>
			<point x="331" y="900" type="line"/>
			<point x="395" y="900" type="line"/>
		</contour>
	</outline>
</glyph>
<glyph name="Gcircumflex" format="2">
	<unicode hex="011C"/>
	<advance width="677"/>
	<outline>
		<contour>
			<point x="353" y="600" type="curve" smooth="yes"/>
			<point x="231.5" y="600"/>
			<point x="156" y="499.5"/>
			<point x="156" y="340" type="curve" smooth="yes"/>
			<point x="156" y="180.5"/>
			<point x="231.5" y="80"/>
			<point x="353" y="80" type="curve" smooth="yes"/>
			<point x="425" y="80"/>
			<point x="492.5" y="122.5"/>
			<point x="526" y="181.5" type="curve"/>
			<point x="526" y="255" type="line"/>
			<point x="367.5" y="255" type="line"/>
			<point x="367.5" y="325" type="line"/>
			<point x="612" y="325" type="line"/>
			<point x="612" y="0" type="line"/>
			<point x="526" y="0" type="line"/>
			<point x="526" y="68" type="line"/>
			<point x="490.5" y="24"/>
			<point x="417.5" y="-10"/>
			<point x="353" y="-10" type="curve" smooth="yes"/>
			<point x="166" y="-10"/>
			<point x="55" y="120.5"/>
			<point x="55" y="340" type="curve" smooth="yes"/>
			<point x="55" y="559.5"/>
			<point x="166" y="690"/>
			<point x="353" y="690" type="curve" smooth="yes"/>
			<point x="495" y="690"/>
			<point x="593.5" y="600"/>
			<point x="620" y="449" type="curve"/>
			<point x="530" y="449" type="line"/>
			<point x="509" y="545.5"/>
			<point x="443.5" y="600"/>
		</contour>
		<contour>
			<point x="339" y="853" type="line"/>
			<point x="241" y="740" type="line"/>
			<point x="184" y="740" type="line"/>
			<point x="294" y="910" type="line"/>
			<point x="384" y="910" type="line"/>
			<point x="494" y="740" type="line"/>
			<point x="437" y="740" type="line"/>
		</contour>
	</outline>
</glyph>
<glyph name="Gbreve" format="2">
	<unicode hex="011E"/>
	<advance width="677"/>
	<outline>
		<contour>
			<point x="353" y="600" type="curve" smooth="yes"/>
			<point x="231.5" y="600"/>
			<point x="156" y="499.5"/>
			<point x="156" y="340" type="curve" smooth="yes"/>
			<point x="156" y="180.5"/>
			<point x="231.5" y="80"/>
			<point x="353" y="80" type="curve" smooth="yes"/>
			<point x="425" y="80"/>
			<point x="492.5" y="122.5"/>
			<point x="526" y="181.5" type="curve"/>
			<point x="526" y="255" type="line"/>
			<point x="367.5" y="255" type="line"/>
			<point x="367.5" y="325" type="line"/>
			<point x="612" y="325" type="line"/>
			<point x="612" y="0" type="line"/>
			<point x="526" y="0" type="line"/>
			<point x="526" y="68" type="line"/>
			<point x="490.5" y="24"/>
			<point x="417.5" y="-10"/>
			<point x="353" y="-10" type="curve" smooth="yes"/>
			<point x="166" y="-10"/>
			<point x="55" y="120.5"/>
			<point x="55" y="340" type="curve" smooth="yes"/>
			<point x="55" y="559.5"/>
			<point x="166" y="690"/>
			<point x="353" y="690" type="curve" smooth="yes"/>
			<point x="495" y="690"/>
			<point x="593.5" y="600"/>
			<point x="620" y="449" type="curve"/>
			<point x="530" y="449" type="line"/>
			<point x="509" y="545.5"/>
			<point x="443.5" y="600"/>
		</contour>
		<contour>
			<point x="184" y="880" type="curve"/>
			<point x="264" y="880" type="line"/>
			<point x="264" y="820"/>
			<point x="304" y="800"/>
			<point x="339" y="800" type="curve" smooth="yes"/>
			<point x="374" y="800"/>
			<point x="414" y="820"/>
			<point x="414" y="880" type="curve"/>
			<point x="494" y="880" type="line"/>
			<point x="494" y="780"/>
			<point x="419" y="740"/>
			<point x="339" y="740" type="curve" smooth="yes"/>
			<point x="259" y="740"/>
			<point x="184" y="780"/>
		</contour>
	</outline>
</glyph>
<glyph name="Gdotaccent" format="2">
	<unicode hex="0120"/>
	<advance width="677"/>
	<outline>
		<contour>
			<point x="353" y="600" type="curve" smooth="yes"/>
			<point x="231.5" y="600"/>
			<point x="156" y="499.5"/>
			<point x="156" y="340" type="curve" smooth="yes"/>
			<point x="156" y="180.5"/>
			<point x="231.5" y="80"/>
			<point x="353" y="80" type="curve" smooth="yes"/>
			<point x="425" y="80"/>
			<point x="492.5" y="122.5"/>
			<point x="526" y="181.5" type="curve"/>
			<point x="526" y="255" type="line"/>
			<point x="367.5" y="255" type="line"/>
			<point x="367.5" y="325" type="line"/>
			<point x="612" y="325" type="line"/>
			<point x="612" y="0" type="line"/>
			<point x="526" y="0" type="line"/>
			<point x="526" y="68" type="line"/>
			<point x="490.5" y="24"/>
			<point x="417.5" y="-10"/>
			<point x="353" y="-10" type="curve" smooth="yes"/>
			<point x="166" y="-10"/>
			<point x="55" y="120.5"/>
			<point x="55" y="340" type="curve" smooth="yes"/>
			<point x="55" y="559.5"/>
			<point x="166" y="690"/>
			<point x="353" y="690" type="curve" smooth="yes"/>
			<point x="495" y="690"/>
			<point x="593.5" y="600"/>
			<point x="620" y="449" type="curve"/>
			<point x="530" y="449" type="line"/>
			<point x="509" y="545.5"/>
			<point x="443.5" y="600"/>
		</contour>
		<contour>
			<point x="389" y="850" type="line"/>
			<point x="389" y="740" type="line"/>
			<point x="289" y="740" type="line"/>
			<point x="289" y="850" type="line"/>
		</contour>
	</outline>
</glyph>
<glyph name="uni0122" format="2">
	<unicode hex="0122"/>
	<advance width="677"/>
	<outline>
		<contour>
			<point x="353" y="600" type="curve" smooth="yes"/>
			<point x="231.5" y="600"/>
			<point x="156" y="499.5"/>
			<point x="156" y="340" type="curve" smooth="yes"/>
			<point x="156" y="180.5"/>
			<point x="231.5" y="80"/>
			<point x="353" y="80" type="curve" smooth="yes"/>
			<point x="425" y="80"/>
			<point x="492.5" y="122.5"/>
			<point x="526" y="181.5" type="curve"/>
			<point x="526" y="255" type="line"/>
			<point x="367.5" y="255" type="line"/>
			<point x="367.5" y="325" type="line"/>
			<point x="612" y="325" type="line"/>
			<point x="612" y="0" type="line"/>
			<point x="526" y="0" type="line"/>
			<point x="526" y="68" type="line"/>
			<point x="490.5" y="24"/>
			<point x="417.5" y="-10"/>
			<point x="353" y="-10" type="curve" smooth="yes"/>
			<point x="166" y="-10"/>
			<point x="55" y="120.5"/>
			<point x="55" y="340" type="curve" smooth="yes"/>
			<point x="55" y="559.5"/>
			<point x="166" y="690"/>
			<point x="353" y="690" type="curve" smooth="yes"/>
			<point x="495" y="690"/>
			<point x="593.5" y="600"/>
			<point x="620" y="449" type="curve"/>
			<point x="530" y="449" type="line"/>
			<point x="509" y="545.5"/>
			<point x="443.5" y="600"/>
		</contour>
		<contour>
			<point x="321" y="-140" type="line"/>
			<point x="299" y="-140" type="line"/>
			<point x="299" y="-60" type="line"/>
			<point x="379" y="-60" type="line"/>
			<point x="379" y="-140" type="line"/>
			<point x="333" y="-270" type="line"/>
			<point x="299" y="-270" type="line"/>
		</contour>
	</outline>
</glyph>
<glyph name="Hcircumflex" format="2">
	<unicode hex="0124"/>
	<advance width="631"/>
	<outline>
		<contour>
			<point x="556" y="680" type="line"/>
			<point x="556" y="0" type="line"/>
			<point x="455" y="0" type="line"/>
			<point x="455" y="297" type="line"/>
			<point x="176" y="297" type="line"/>
			<point x="176" y="0" type="line"/>
			<point x="75" y="0" type="line"/>
			<point x="75" y="680" type="line"/>
			<point x="176" y="680" type="line"/>
			<point x="176" y="387" type="line"/>
			<point x="455" y="387" type="line"/>
			<point x="455" y="680" type="line"/>
		</contour>
		<contour>
			<point x="315.5" y="873" type="line"/>
			<point x="217.5" y="760" type="line"/>
			<point x="160.5" y="760" type="line"/>
			<point x="270.5" y="930" type="line"/>
			<point x="360.5" y="930" type="line"/>
			<point x="470.5" y="760" type="line"/>
			<point x="413.5" y="760" type="line"/>
		</contour>
	</outline>
</glyph>
<glyph name="Itilde" format="2">
	<unicode hex="0128"/>
	<advance width="251"/>
	<outline>
		<contour>
			<point x="176" y="0" type="line"/>
			<point x="75" y="0" type="line"/>
			<point x="75" y="680" type="line"/>
			<point x="176" y="680" type="line"/>
		</contour>
		<contour>
			<point x="22.5" y="760" type="curve"/>
			<point x="-27.5" y="760" type="line"/>
			<point x="-13.5" y="847"/>
			<point name=".hr01" x="22.5" y="880"/>
			<point x="62.5" y="880" type="curve" smooth="yes"/>
			<point x="87.5" y="880"/>
			<point x="109.5" y="870"/>
			<point x="131.5" y="859" type="curve"/>
			<point x="147.5" y="850"/>
			<point name=".hr02" x="168.5" y="840"/>
			<point x="188.5" y="840" type="curve" smooth="yes"/>
			<point x="208.5" y="840"/>
			<point x="223.5" y="852"/>
			<point name=".hr03" x="228.5" y="880" type="curve"/>
			<point x="278.5" y="880" type="line"/>
			<point x="264.5" y="793"/>
			<point name=".hr04" x="228.5" y="760"/>
			<point x="188.5" y="760" type="curve" smooth="yes"/>
			<point x="163.5" y="760"/>
			<point x="142.5" y="769"/>
			<point x="121.5" y="780" type="curve" smooth="yes"/>
			<point x="104.5" y="789"/>
			<point name=".hr05" x="82.5" y="800"/>
			<point x="62.5" y="800" type="curve" smooth="yes"/>
			<point x="42.5" y="800"/>
			<point x="27.5" y="788"/>
		</contour>
	</outline>
</glyph>
<glyph name="Ibreve" format="2">
	<unicode hex="012C"/>
	<advance width="251"/>
	<outline>
		<contour>
			<point x="176" y="0" type="line"/>
			<point x="75" y="0" type="line"/>
			<point x="75" y="680" type="line"/>
			<point x="176" y="680" type="line"/>
		</contour>
		<contour>
			<point x="-29.5" y="880" type="curve"/>
			<point x="50.5" y="880" type="line"/>
			<point x="50.5" y="820"/>
			<point x="90.5" y="800"/>
			<point x="125.5" y="800" type="curve" smooth="yes"/>
			<point x="160.5" y="800"/>
			<point x="200.5" y="820"/>
			<point x="200.5" y="880" type="curve"/>
			<point x="280.5" y="880" type="line"/>
			<point x="280.5" y="780"/>
			<point x="205.5" y="740"/>
			<point x="125.5" y="740" type="curve" smooth="yes"/>
			<point x="45.5" y="740"/>
			<point x="-29.5" y="780"/>
		</contour>
	</outline>
</glyph>
<glyph name="ibreve" format="2">
	<unicode hex="012D"/>
	<advance width="280"/>
	<outline>
		<contour>
			<point x="-15" y="660" type="curve"/>
			<point x="65" y="660" type="line"/>
			<point x="65" y="600"/>
			<point x="105" y="580"/>
			<point x="140" y="580" type="curve" smooth="yes"/>
			<point x="175" y="580"/>
			<point x="215" y="600"/>
			<point x="215" y="660" type="curve"/>
			<point x="295" y="660" type="line"/>
			<point x="295" y="560"/>
			<point x="220" y="520"/>
			<point x="140" y="520" type="curve" smooth="yes"/>
			<point x="60" y="520"/>
			<point x="-15" y="560"/>
		</contour>
		<contour>
			<point x="200" y="0" type="line"/>
			<point x="100" y="0" type="line"/>
			<point x="100" y="460" type="line"/>
			<point x="200" y="460" type="line"/>
		</contour>
	</outline>
</glyph>
<glyph name="Iogonek" format="2">
	<unicode hex="012E"/>
	<advance width="251"/>
	<outline>
		<contour>
			<point x="41" y="-133.5" type="curve" smooth="yes"/>
			<point x="41" y="-83"/>
			<point x="69" y="-40.5"/>
			<point x="109.5" y="0" type="curve"/>
			<point name=".hr01" x="75" y="0" type="line"/>
			<point x="75" y="680" type="line"/>
			<point x="176" y="680" type="line"/>
			<point x="176" y="0" type="line"/>
			<point x="179.5" y="0" type="line"/>
			<point x="134.5" y="-45"/>
			<point name=".hr02" x="121.5" y="-74"/>
			<point x="121.5" y="-105.5" type="curve" smooth="yes"/>
			<point x="121.5" y="-131.5"/>
			<point x="136" y="-145"/>
			<point x="161.5" y="-145" type="curve" smooth="yes"/>
			<point x="174" y="-145"/>
			<point x="187" y="-138"/>
			<point x="196.5" y="-129.5" type="curve"/>
			<point x="209.5" y="-185.5" type="line"/>
			<point x="189.5" y="-200.5"/>
			<point x="160.5" y="-210"/>
			<point x="126.5" y="-210" type="curve" smooth="yes"/>
			<point x="72.5" y="-210"/>
			<point x="41" y="-182.5"/>
		</contour>
	</outline>
</glyph>
<glyph name="Idotaccent" format="2">
	<unicode hex="0130"/>
	<advance width="251"/>
	<outline>
		<contour>
			<point x="176" y="0" type="line"/>
			<point x="75" y="0" type="line"/>
			<point x="75" y="680" type="line"/>
			<point x="176" y="680" type="line"/>
		</contour>
		<contour>
			<point x="175.5" y="740" type="line"/>
			<point x="75.5" y="740" type="line"/>
			<point x="75.5" y="850" type="line"/>
			<point x="175.5" y="850" type="line"/>
		</contour>
	</outline>
</glyph>
<glyph name="dotlessi" format="2">
	<unicode hex="0131"/>
	<advance width="280"/>
	<outline>
		<contour>
			<point x="190" y="0" type="line"/>
			<point x="90" y="0" type="line"/>
			<point x="90" y="460" type="line"/>
			<point x="190" y="460" type="line"/>
		</contour>
	</outline>
	<anchor name="top" x="140" y="520"/>
</glyph>
<glyph name="Jcircumflex" format="2">
	<unicode hex="0134"/>
	<advance width="286"/>
	<outline>
		<contour>
			<point x="99" y="0" type="curve" smooth="yes"/>
			<point x="50" y="0" type="line"/>
			<point x="50" y="90" type="line"/>
			<point x="76" y="90" type="line" smooth="yes"/>
			<point x="116" y="90"/>
			<point x="148" y="131"/>
			<point x="148" y="195" type="curve" smooth="yes"/>
			<point x="148" y="680" type="line"/>
			<point x="249" y="680" type="line"/>
			<point x="249" y="204" type="line" smooth="yes"/>
			<point x="249" y="85"/>
			<point x="212" y="0"/>
		</contour>
		<contour>
			<point x="193" y="863" type="line"/>
			<point x="95" y="750" type="line"/>
			<point x="38" y="750" type="line"/>
			<point x="148" y="920" type="line"/>
			<point x="238" y="920" type="line"/>
			<point x="348" y="750" type="line"/>
			<point x="291" y="750" type="line"/>
		</contour>
	</outline>
</glyph>
<glyph name="jcircumflex" format="2">
	<unicode hex="0135"/>
	<advance width="220"/>
	<outline>
		<contour>
			<point x="-103" y="-90" type="curve"/>
			<point x="-24" y="-90" type="line"/>
			<point x="-8" y="-114"/>
			<point x="7" y="-120"/>
			<point x="30" y="-120" type="curve" smooth="yes"/>
			<point x="55" y="-120"/>
			<point x="70" y="-103"/>
			<point x="70" y="-55" type="curve" smooth="yes"/>
			<point x="70" y="460" type="line"/>
			<point x="150" y="460" type="line"/>
			<point x="150" y="-31" type="line" smooth="yes"/>
			<point x="150" y="-139"/>
			<point x="93" y="-200"/>
			<point x="28" y="-200" type="curve" smooth="yes"/>
			<point x="-36" y="-200"/>
			<point x="-87" y="-149"/>
		</contour>
		<contour>
			<point x="110" y="633" type="line"/>
			<point x="12" y="520" type="line"/>
			<point x="-45" y="520" type="line"/>
			<point x="65" y="690" type="line"/>
			<point x="155" y="690" type="line"/>
			<point x="265" y="520" type="line"/>
			<point x="208" y="520" type="line"/>
		</contour>
	</outline>
</glyph>
<glyph name="uni0136" format="2">
	<unicode hex="0136"/>
	<advance width="603"/>
	<outline>
		<contour>
			<point x="176" y="273.5" type="line"/>
			<point x="176" y="0" type="line"/>
			<point x="75" y="0" type="line"/>
			<point x="75" y="680" type="line"/>
			<point x="176" y="680" type="line"/>
			<point x="176" y="358.5" type="line"/>
			<point x="257.5" y="375.5" type="line"/>
			<point x="440" y="680" type="line"/>
			<point x="553" y="680" type="line"/>
			<point x="353" y="350" type="line"/>
			<point x="593" y="0" type="line"/>
			<point x="470" y="0" type="line"/>
			<point x="269" y="296.5" type="line"/>
		</contour>
		<contour>
			<point x="283.5" y="-140" type="line"/>
			<point x="261.5" y="-140" type="line"/>
			<point x="261.5" y="-60" type="line"/>
			<point x="341.5" y="-60" type="line"/>
			<point x="341.5" y="-140" type="line"/>
			<point x="295.5" y="-270" type="line"/>
			<point x="261.5" y="-270" type="line"/>
		</contour>
	</outline>
</glyph>
<glyph name="Lacute" format="2">
	<unicode hex="0139"/>
	<advance width="535"/>
	<outline>
		<contour>
			<point x="176" y="680" type="line"/>
			<point x="176" y="90" type="line"/>
			<point x="475.5" y="90" type="line"/>
			<point x="475.5" y="0" type="line"/>
			<point x="75" y="0" type="line"/>
			<point x="75" y="680" type="line"/>
		</contour>
		<contour>
			<point x="239.5" y="905" type="line"/>
			<point x="167.5" y="710" type="line"/>
			<point x="70.5" y="710" type="line"/>
			<point x="130.5" y="905" type="line"/>
		</contour>
	</outline>
</glyph>
<glyph name="uni013B" format="2">
	<unicode hex="013B"/>
	<advance width="510"/>
	<outline>
		<contour>
			<point x="215" y="-140" type="line"/>
			<point x="215" y="-60" type="line"/>
			<point x="295" y="-60" type="line"/>
			<point x="295" y="-140" type="line"/>
			<point x="249" y="-270" type="line"/>
			<point x="215" y="-270" type="line"/>
			<point x="237" y="-140" type="line"/>
		</contour>
		<contour>
			<point x="460" y="0" type="line"/>
			<point x="50" y="0" type="line"/>
			<point x="50" y="700" type="line"/>
			<point x="140" y="700" type="line"/>
			<point x="140" y="80" type="line"/>
			<point x="460" y="80" type="line"/>
		</contour>
	</outline>
</glyph>
<glyph name="uni013C" format="2">
	<unicode hex="013C"/>
	<advance width="220"/>
	<outline>
		<contour>
			<point x="70" y="-60" type="curve"/>
			<point x="150" y="-60" type="line"/>
			<point x="150" y="-140" type="line"/>
			<point x="104" y="-270" type="line"/>
			<point x="70" y="-270" type="line"/>
			<point x="92" y="-140" type="line"/>
			<point x="70" y="-140" type="line"/>
			<point x="70" y="-113"/>
			<point x="70" y="-87"/>
		</contour>
		<contour>
			<point x="150" y="0" type="line"/>
			<point x="70" y="0" type="line"/>
			<point x="70" y="700" type="line"/>
			<point x="150" y="700" type="line"/>
		</contour>
	</outline>
</glyph>
<glyph name="lcaron" format="2">
	<unicode hex="013E"/>
	<advance width="220"/>
	<outline>
		<contour>
			<point x="204" y="490" type="line"/>
			<point x="170" y="490" type="line"/>
			<point x="192" y="620" type="line"/>
			<point x="170" y="620" type="line"/>
			<point x="170" y="700" type="line"/>
			<point x="250" y="700" type="line"/>
			<point x="250" y="620" type="line"/>
		</contour>
		<contour>
			<point x="150" y="0" type="line"/>
			<point x="70" y="0" type="line"/>
			<point x="70" y="700" type="line"/>
			<point x="150" y="700" type="line"/>
		</contour>
	</outline>
</glyph>
<glyph name="uni0145" format="2">
	<unicode hex="0145"/>
	<advance width="600"/>
	<outline>
		<contour>
			<point x="71" y="450" type="curve" smooth="yes"/>
			<point x="71" y="0" type="line"/>
			<point x="-30" y="0" type="line"/>
			<point x="-30" y="680" type="line"/>
			<point x="82" y="680" type="line"/>
			<point x="387.5" y="164.5" type="line"/>
			<point x="385" y="189.5"/>
			<point x="385" y="212.5"/>
			<point x="385" y="230" type="curve" smooth="yes"/>
			<point x="385" y="680" type="line"/>
			<point x="486" y="680" type="line"/>
			<point x="486" y="0" type="line"/>
			<point x="374" y="0" type="line"/>
			<point x="68.5" y="515.5" type="line"/>
			<point x="71" y="490.5"/>
			<point x="71" y="467.5"/>
		</contour>
		<contour>
			<point x="282" y="-140" type="line"/>
			<point x="260" y="-140" type="line"/>
			<point x="260" y="-60" type="line"/>
			<point x="340" y="-60" type="line"/>
			<point x="340" y="-140" type="line"/>
			<point x="294" y="-270" type="line"/>
			<point x="260" y="-270" type="line"/>
		</contour>
	</outline>
</glyph>
<glyph name="Omacron" format="2">
	<unicode hex="014C"/>
	<advance width="706"/>
	<outline>
		<contour>
			<point x="353" y="600" type="curve" smooth="yes"/>
			<point x="231.5" y="600"/>
			<point x="156" y="499.5"/>
			<point x="156" y="340" type="curve" smooth="yes"/>
			<point x="156" y="180.5"/>
			<point x="231.5" y="80"/>
			<point x="353" y="80" type="curve" smooth="yes"/>
			<point x="474.5" y="80"/>
			<point x="550" y="180.5"/>
			<point x="550" y="340" type="curve" smooth="yes"/>
			<point x="550" y="499.5"/>
			<point x="474.5" y="600"/>
		</contour>
		<contour>
			<point x="353" y="-10" type="curve" smooth="yes"/>
			<point x="166" y="-10"/>
			<point x="55" y="120.5"/>
			<point x="55" y="340" type="curve" smooth="yes"/>
			<point x="55" y="559.5"/>
			<point x="166" y="690"/>
			<point x="353" y="690" type="curve" smooth="yes"/>
			<point x="540" y="690"/>
			<point x="651" y="559.5"/>
			<point x="651" y="340" type="curve" smooth="yes"/>
			<point x="651" y="120.5"/>
			<point x="540" y="-10"/>
		</contour>
		<contour>
			<point x="489" y="860" type="line"/>
			<point x="489" y="790" type="line"/>
			<point x="219" y="790" type="line"/>
			<point x="219" y="860" type="line"/>
		</contour>
	</outline>
</glyph>
<glyph name="Obreve" format="2">
	<unicode hex="014E"/>
	<advance width="706"/>
	<outline>
		<contour>
			<point x="353" y="600" type="curve" smooth="yes"/>
			<point x="231.5" y="600"/>
			<point x="156" y="499.5"/>
			<point x="156" y="340" type="curve" smooth="yes"/>
			<point x="156" y="180.5"/>
			<point x="231.5" y="80"/>
			<point x="353" y="80" type="curve" smooth="yes"/>
			<point x="474.5" y="80"/>
			<point x="550" y="180.5"/>
			<point x="550" y="340" type="curve" smooth="yes"/>
			<point x="550" y="499.5"/>
			<point x="474.5" y="600"/>
		</contour>
		<contour>
			<point x="353" y="-10" type="curve" smooth="yes"/>
			<point x="166" y="-10"/>
			<point x="55" y="120.5"/>
			<point x="55" y="340" type="curve" smooth="yes"/>
			<point x="55" y="559.5"/>
			<point x="166" y="690"/>
			<point x="353" y="690" type="curve" smooth="yes"/>
			<point x="540" y="690"/>
			<point x="651" y="559.5"/>
			<point x="651" y="340" type="curve" smooth="yes"/>
			<point x="651" y="120.5"/>
			<point x="540" y="-10"/>
		</contour>
		<contour>
			<point x="199" y="880" type="curve"/>
			<point x="279" y="880" type="line"/>
			<point x="279" y="820"/>
			<point x="319" y="800"/>
			<point x="354" y="800" type="curve" smooth="yes"/>
			<point x="389" y="800"/>
			<point x="429" y="820"/>
			<point x="429" y="880" type="curve"/>
			<point x="509" y="880" type="line"/>
			<point x="509" y="780"/>
			<point x="434" y="740"/>
			<point x="354" y="740" type="curve" smooth="yes"/>
			<point x="274" y="740"/>
			<point x="199" y="780"/>
		</contour>
	</outline>
</glyph>
<glyph name="Ohungarumlaut" format="2">
	<unicode hex="0150"/>
	<advance width="706"/>
	<outline>
		<contour>
			<point x="353" y="600" type="curve" smooth="yes"/>
			<point x="231.5" y="600"/>
			<point x="156" y="499.5"/>
			<point x="156" y="340" type="curve" smooth="yes"/>
			<point x="156" y="180.5"/>
			<point x="231.5" y="80"/>
			<point x="353" y="80" type="curve" smooth="yes"/>
			<point x="474.5" y="80"/>
			<point x="550" y="180.5"/>
			<point x="550" y="340" type="curve" smooth="yes"/>
			<point x="550" y="499.5"/>
			<point x="474.5" y="600"/>
		</contour>
		<contour>
			<point x="353" y="-10" type="curve" smooth="yes"/>
			<point x="166" y="-10"/>
			<point x="55" y="120.5"/>
			<point x="55" y="340" type="curve" smooth="yes"/>
			<point x="55" y="559.5"/>
			<point x="166" y="690"/>
			<point x="353" y="690" type="curve" smooth="yes"/>
			<point x="540" y="690"/>
			<point x="651" y="559.5"/>
			<point x="651" y="340" type="curve" smooth="yes"/>
			<point x="651" y="120.5"/>
			<point x="540" y="-10"/>
		</contour>
		<contour>
			<point x="361" y="910" type="line"/>
			<point x="300" y="730" type="line"/>
			<point x="236" y="730" type="line"/>
			<point x="281" y="910" type="line"/>
		</contour>
		<contour>
			<point x="471" y="910" type="line"/>
			<point x="395" y="730" type="line"/>
			<point x="331" y="730" type="line"/>
			<point x="391" y="910" type="line"/>
		</contour>
	</outline>
</glyph>
<glyph name="scircumflex" format="2">
	<unicode hex="015D"/>
	<advance width="452"/>
	<outline>
		<contour>
			<point x="35" y="136" type="curve"/>
			<point x="114" y="136" type="line"/>
			<point x="114" y="62"/>
			<point x="192" y="55"/>
			<point x="237" y="55" type="curve" smooth="yes"/>
			<point x="261" y="55"/>
			<point x="335" y="67"/>
			<point x="335" y="130" type="curve" smooth="yes"/>
			<point x="335" y="236"/>
			<point name=".hr01" x="55" y="185"/>
			<point x="55" y="340" type="curve" smooth="yes"/>
			<point x="55" y="407"/>
			<point x="105" y="470"/>
			<point x="215" y="470" type="curve" smooth="yes"/>
			<point x="307" y="470"/>
			<point x="397" y="414"/>
			<point x="397" y="336" type="curve"/>
			<point x="316" y="336" type="line"/>
			<point x="304" y="378"/>
			<point x="265" y="405"/>
			<point x="215" y="405" type="curve" smooth="yes"/>
			<point x="170" y="405"/>
			<point x="135" y="385"/>
			<point x="135" y="340" type="curve" smooth="yes"/>
			<point x="135" y="263"/>
			<point x="417" y="288"/>
			<point x="417" y="130" type="curve" smooth="yes"/>
			<point x="417" y="10"/>
			<point x="314" y="-10"/>
			<point x="237" y="-10" type="curve" smooth="yes"/>
			<point x="133" y="-10"/>
			<point name=".hr02" x="35" y="52"/>
		</contour>
		<contour>
			<point x="210" y="633" type="line"/>
			<point x="112" y="520" type="line"/>
			<point x="55" y="520" type="line"/>
			<point name=".hr03" x="165" y="690" type="line"/>
			<point x="255" y="690" type="line"/>
			<point x="365" y="520" type="line"/>
			<point x="308" y="520" type="line"/>
		</contour>
	</outline>
</glyph>
<glyph name="Scaron" format="2">
	<unicode hex="0160"/>
	<advance width="582"/>
	<outline>
		<contour>
			<point x="41" y="208" type="curve"/>
			<point x="147" y="208" type="line"/>
			<point x="147" y="132.5"/>
			<point x="202.5" y="80"/>
			<point x="293.5" y="80" type="curve" smooth="yes"/>
			<point x="383" y="80"/>
			<point x="436" y="123"/>
			<point x="436" y="185.5" type="curve" smooth="yes"/>
			<point x="436" y="235"/>
			<point x="407.5" y="268.5"/>
			<point x="351.5" y="287" type="curve"/>
			<point name=".hr01" x="166" y="364.5" type="line"/>
			<point x="101.5" y="390"/>
			<point x="59.5" y="442"/>
			<point x="59.5" y="510.5" type="curve" smooth="yes"/>
			<point x="59.5" y="619.5"/>
			<point name=".hr02" x="146.5" y="690"/>
			<point x="291.5" y="690" type="curve" smooth="yes"/>
			<point x="436" y="690"/>
			<point x="540" y="601"/>
			<point x="540" y="491" type="curve"/>
			<point x="434" y="491" type="line"/>
			<point x="434" y="553.5"/>
			<point x="377.5" y="600"/>
			<point x="279.5" y="600" type="curve" smooth="yes"/>
			<point x="207.5" y="600"/>
			<point name=".hr03" x="165.5" y="568.5"/>
			<point x="165.5" y="511" type="curve" smooth="yes"/>
			<point x="165.5" y="469.5"/>
			<point x="191.5" y="437.5"/>
			<point x="241.5" y="420" type="curve"/>
			<point x="424.5" y="346" type="line"/>
			<point x="502.5" y="315.5"/>
			<point x="542" y="264.5"/>
			<point x="542" y="182.5" type="curve" smooth="yes"/>
			<point x="542" y="64"/>
			<point x="452" y="-10"/>
			<point x="291.5" y="-10" type="curve" smooth="yes"/>
			<point x="140.5" y="-10"/>
			<point name=".hr04" x="41" y="79"/>
		</contour>
		<contour>
			<point x="330" y="750" type="line"/>
			<point x="250" y="750" type="line"/>
			<point x="150" y="910" type="line"/>
			<point x="214" y="910" type="line"/>
			<point x="290" y="825" type="line"/>
			<point x="366" y="910" type="line"/>
			<point x="430" y="910" type="line"/>
		</contour>
	</outline>
</glyph>
<glyph name="uni0162" format="2">
	<unicode hex="0162"/>
	<advance width="480"/>
	<outline>
		<contour>
			<point x="290.5" y="590" type="line"/>
			<point x="290.5" y="0" type="line"/>
			<point x="189.5" y="0" type="line"/>
			<point x="189.5" y="590" type="line"/>
			<point x="10" y="590" type="line"/>
			<point x="10" y="680" type="line"/>
			<point x="470" y="680" type="line"/>
			<point x="470" y="590" type="line"/>
		</contour>
		<contour>
			<point x="222" y="-140" type="line"/>
			<point name=".hr01" x="200" y="-140" type="line"/>
			<point x="200" y="-60" type="line"/>
			<point x="280" y="-60" type="line"/>
			<point x="280" y="-140" type="line"/>
			<point x="234" y="-270" type="line"/>
			<point x="200" y="-270" type="line"/>
		</contour>
	</outline>
</glyph>
<glyph name="Tcaron" format="2">
	<unicode hex="0164"/>
	<advance width="480"/>
	<outline>
		<contour>
			<point x="290.5" y="590" type="line"/>
			<point x="290.5" y="0" type="line"/>
			<point x="189.5" y="0" type="line"/>
			<point x="189.5" y="590" type="line"/>
			<point x="10" y="590" type="line"/>
			<point x="10" y="680" type="line"/>
			<point x="470" y="680" type="line"/>
			<point x="470" y="590" type="line"/>
		</contour>
		<contour>
			<point x="280" y="740" type="line"/>
			<point x="200" y="740" type="line"/>
			<point x="100" y="900" type="line"/>
			<point x="164" y="900" type="line"/>
			<point x="240" y="815" type="line"/>
			<point x="316" y="900" type="line"/>
			<point x="380" y="900" type="line"/>
		</contour>
	</outline>
</glyph>
<glyph name="tbar" format="2">
	<unicode hex="0167"/>
	<advance width="331"/>
	<outline>
		<contour>
			<point x="105" y="380" type="line"/>
			<point x="30" y="380" type="line"/>
			<point x="30" y="460" type="line"/>
			<point x="105" y="460" type="line"/>
			<point x="105" y="580" type="line"/>
			<point x="185" y="580" type="line"/>
			<point x="185" y="460" type="line"/>
			<point x="290" y="460" type="line"/>
			<point x="290" y="380" type="line"/>
			<point x="185" y="380" type="line"/>
			<point x="185" y="312" type="line"/>
			<point x="270" y="312" type="line"/>
			<point x="270" y="238" type="line"/>
			<point x="242" y="238"/>
			<point x="213" y="238"/>
			<point x="185" y="238" type="curve"/>
			<point x="185" y="219"/>
			<point x="184" y="200"/>
			<point x="184" y="181" type="curve" smooth="yes"/>
			<point x="184" y="83"/>
			<point x="197" y="57"/>
			<point x="266" y="56" type="curve"/>
			<point x="300" y="56" type="line"/>
			<point x="300" y="-9" type="line"/>
			<point x="267" y="-9" type="line"/>
			<point x="116" y="2"/>
			<point x="105" y="41"/>
			<point x="105" y="180" type="curve" smooth="yes"/>
			<point x="105" y="238" type="line"/>
			<point x="50" y="238" type="line"/>
			<point x="50" y="312" type="line"/>
			<point x="105" y="312" type="line"/>
		</contour>
	</outline>
</glyph>
<glyph name="Utilde" format="2">
	<unicode hex="0168"/>
	<advance width="600"/>
	<outline>
		<contour>
			<point x="50" y="250" type="curve" smooth="yes"/>
			<point x="50" y="680" type="line"/>
			<point x="150" y="680" type="line"/>
			<point x="150" y="280" type="line" smooth="yes"/>
			<point x="150" y="145.5"/>
			<point x="200" y="85"/>
			<point x="300" y="85" type="curve" smooth="yes"/>
			<point x="400" y="85"/>
			<point x="450" y="145.5"/>
			<point x="450" y="280" type="curve" smooth="yes"/>
			<point x="450" y="680" type="line"/>
			<point x="550" y="680" type="line"/>
			<point x="550" y="250" type="line" smooth="yes"/>
			<point x="550" y="78"/>
			<point x="460" y="-10"/>
			<point x="300" y="-10" type="curve" smooth="yes"/>
			<point x="140" y="-10"/>
			<point x="50" y="78"/>
		</contour>
		<contour>
			<point x="197" y="760" type="curve"/>
			<point x="147" y="760" type="line"/>
			<point x="161" y="847"/>
			<point x="197" y="880"/>
			<point name=".hr01" x="237" y="880" type="curve" smooth="yes"/>
			<point x="262" y="880"/>
			<point x="284" y="870"/>
			<point x="306" y="859" type="curve"/>
			<point x="322" y="850"/>
			<point x="343" y="840"/>
			<point name=".hr02" x="363" y="840" type="curve" smooth="yes"/>
			<point x="383" y="840"/>
			<point x="398" y="852"/>
			<point x="403" y="880" type="curve"/>
			<point name=".hr03" x="453" y="880" type="line"/>
			<point x="439" y="793"/>
			<point x="403" y="760"/>
			<point name=".hr04" x="363" y="760" type="curve" smooth="yes"/>
			<point x="338" y="760"/>
			<point x="317" y="769"/>
			<point x="296" y="780" type="curve" smooth="yes"/>
			<point x="279" y="789"/>
			<point x="257" y="800"/>
			<point name=".hr05" x="237" y="800" type="curve" smooth="yes"/>
			<point x="217" y="800"/>
			<point x="202" y="788"/>
		</contour>
	</outline>
</glyph>
<glyph name="Umacron" format="2">
	<unicode hex="016A"/>
	<advance width="560"/>
	<outline>
		<contour>
			<point x="415" y="750" type="line"/>
			<point x="145" y="750" type="line"/>
			<point x="145" y="820" type="line"/>
			<point x="415" y="820" type="line"/>
		</contour>
		<contour>
			<point x="30" y="250" type="curve" smooth="yes"/>
			<point x="30" y="680" type="line"/>
			<point x="130" y="680" type="line"/>
			<point x="130" y="280" type="line" smooth="yes"/>
			<point x="130" y="145.5"/>
			<point x="180" y="85"/>
			<point x="280" y="85" type="curve" smooth="yes"/>
			<point x="380" y="85"/>
			<point x="430" y="145.5"/>
			<point x="430" y="280" type="curve" smooth="yes"/>
			<point x="430" y="680" type="line"/>
			<point x="530" y="680" type="line"/>
			<point x="530" y="250" type="line" smooth="yes"/>
			<point x="530" y="78"/>
			<point x="440" y="-10"/>
			<point x="280" y="-10" type="curve" smooth="yes"/>
			<point x="120" y="-10"/>
			<point x="30" y="78"/>
		</contour>
	</outline>
</glyph>
<glyph name="Ubreve" format="2">
	<unicode hex="016C"/>
	<advance width="560"/>
	<outline>
		<contour>
			<point x="125" y="890" type="curve"/>
			<point x="205" y="890" type="line"/>
			<point x="205" y="830"/>
			<point x="245" y="810"/>
			<point x="280" y="810" type="curve" smooth="yes"/>
			<point x="315" y="810"/>
			<point x="355" y="830"/>
			<point x="355" y="890" type="curve"/>
			<point x="435" y="890" type="line"/>
			<point x="435" y="790"/>
			<point x="360" y="750"/>
			<point x="280" y="750" type="curve" smooth="yes"/>
			<point x="200" y="750"/>
			<point x="125" y="790"/>
		</contour>
		<contour>
			<point x="30" y="250" type="curve" smooth="yes"/>
			<point name=".hr01" x="30" y="680" type="line"/>
			<point x="130" y="680" type="line"/>
			<point x="130" y="280" type="line" smooth="yes"/>
			<point x="130" y="145.5"/>
			<point x="180" y="85"/>
			<point x="280" y="85" type="curve" smooth="yes"/>
			<point x="380" y="85"/>
			<point x="430" y="145.5"/>
			<point x="430" y="280" type="curve" smooth="yes"/>
			<point x="430" y="680" type="line"/>
			<point x="530" y="680" type="line"/>
			<point x="530" y="250" type="line" smooth="yes"/>
			<point x="530" y="78"/>
			<point x="440" y="-10"/>
			<point x="280" y="-10" type="curve" smooth="yes"/>
			<point x="120" y="-10"/>
			<point x="30" y="78"/>
		</contour>
	</outline>
</glyph>
<glyph name="Uring" format="2">
	<unicode hex="016E"/>
	<advance width="560"/>
	<outline>
		<contour>
			<point x="240" y="819" type="curve" smooth="yes"/>
			<point x="240" y="802"/>
			<point x="254" y="788"/>
			<point x="271" y="788" type="curve" smooth="yes"/>
			<point x="288" y="788"/>
			<point x="302" y="802"/>
			<point x="302" y="819" type="curve" smooth="yes"/>
			<point x="302" y="836"/>
			<point x="288" y="850"/>
			<point x="271" y="850" type="curve" smooth="yes"/>
			<point x="254" y="850"/>
			<point x="240" y="836"/>
		</contour>
		<contour>
			<point x="30" y="250" type="curve" smooth="yes"/>
			<point x="30" y="680" type="line"/>
			<point x="130" y="680" type="line"/>
			<point x="130" y="280" type="line" smooth="yes"/>
			<point x="130" y="145.5"/>
			<point x="180" y="85"/>
			<point x="280" y="85" type="curve" smooth="yes"/>
			<point x="380" y="85"/>
			<point x="430" y="145.5"/>
			<point x="430" y="280" type="curve" smooth="yes"/>
			<point x="430" y="680" type="line"/>
			<point x="530" y="680" type="line"/>
			<point x="530" y="250" type="line" smooth="yes"/>
			<point x="530" y="78"/>
			<point x="440" y="-10"/>
			<point x="280" y="-10" type="curve" smooth="yes"/>
			<point x="120" y="-10"/>
			<point x="30" y="78"/>
		</contour>
		<contour>
			<point x="193" y="819" type="curve" smooth="yes"/>
			<point x="193" y="862"/>
			<point x="228" y="897"/>
			<point x="271" y="897" type="curve" smooth="yes"/>
			<point x="314" y="897"/>
			<point x="349" y="862"/>
			<point x="349" y="819" type="curve" smooth="yes"/>
			<point x="349" y="776"/>
			<point x="314" y="741"/>
			<point x="271" y="741" type="curve" smooth="yes"/>
			<point x="228" y="741"/>
			<point x="193" y="776"/>
		</contour>
	</outline>
</glyph>
<glyph name="uring" format="2">
	<unicode hex="016F"/>
	<advance width="478"/>
	<outline>
		<contour>
			<point x="208" y="619" type="curve" smooth="yes"/>
			<point x="208" y="602"/>
			<point x="222" y="588"/>
			<point x="239" y="588" type="curve" smooth="yes"/>
			<point x="256" y="588"/>
			<point x="270" y="602"/>
			<point x="270" y="619" type="curve" smooth="yes"/>
			<point x="270" y="636"/>
			<point x="256" y="650"/>
			<point x="239" y="650" type="curve" smooth="yes"/>
			<point x="222" y="650"/>
			<point x="208" y="636"/>
		</contour>
		<contour>
			<point x="354" y="154" type="curve"/>
			<point x="354" y="460" type="line"/>
			<point x="433" y="460" type="line"/>
			<point x="433" y="0" type="line"/>
			<point x="374" y="0" type="line"/>
			<point x="357" y="83" type="line"/>
			<point x="323" y="36"/>
			<point x="275" y="-10"/>
			<point x="200" y="-10" type="curve" smooth="yes"/>
			<point x="51" y="-10"/>
			<point x="45" y="98"/>
			<point x="45" y="165" type="curve" smooth="yes"/>
			<point x="45" y="460" type="line"/>
			<point x="125" y="460" type="line"/>
			<point x="125" y="165" type="line" smooth="yes"/>
			<point x="125" y="121"/>
			<point x="134" y="55"/>
			<point x="222" y="55" type="curve" smooth="yes"/>
			<point x="266" y="55"/>
			<point x="330" y="90"/>
		</contour>
		<contour>
			<point x="161" y="619" type="curve" smooth="yes"/>
			<point x="161" y="662"/>
			<point x="196" y="697"/>
			<point x="239" y="697" type="curve" smooth="yes"/>
			<point x="282" y="697"/>
			<point x="317" y="662"/>
			<point x="317" y="619" type="curve" smooth="yes"/>
			<point x="317" y="576"/>
			<point x="282" y="541"/>
			<point x="239" y="541" type="curve" smooth="yes"/>
			<point x="196" y="541"/>
			<point x="161" y="576"/>
		</contour>
	</outline>
</glyph>
<glyph name="Uhungarumlaut" format="2">
	<unicode hex="0170"/>
	<advance width="600"/>
	<outline>
		<contour>
			<point x="50" y="250" type="curve" smooth="yes"/>
			<point x="50" y="680" type="line"/>
			<point x="150" y="680" type="line"/>
			<point x="150" y="280" type="line" smooth="yes"/>
			<point x="150" y="145.5"/>
			<point x="200" y="85"/>
			<point x="300" y="85" type="curve" smooth="yes"/>
			<point x="400" y="85"/>
			<point x="450" y="145.5"/>
			<point x="450" y="280" type="curve" smooth="yes"/>
			<point x="450" y="680" type="line"/>
			<point x="550" y="680" type="line"/>
			<point x="550" y="250" type="line" smooth="yes"/>
			<point x="550" y="78"/>
			<point x="460" y="-10"/>
			<point x="300" y="-10" type="curve" smooth="yes"/>
			<point x="140" y="-10"/>
			<point x="50" y="78"/>
		</contour>
		<contour>
			<point x="342" y="730" type="line"/>
			<point x="278" y="730" type="line"/>
			<point x="338" y="910" type="line"/>
			<point x="418" y="910" type="line"/>
		</contour>
		<contour>
			<point x="247" y="730" type="line"/>
			<point x="183" y="730" type="line"/>
			<point x="228" y="910" type="line"/>
			<point x="308" y="910" type="line"/>
		</contour>
	</outline>
</glyph>
<glyph name="Ycircumflex" format="2">
	<unicode hex="0176"/>
	<advance width="594"/>
	<outline>
		<contour>
			<point x="252" y="310" type="line"/>
			<point x="40" y="700" type="line"/>
			<point x="147" y="700" type="line"/>
			<point x="297" y="388" type="line"/>
			<point x="447" y="700" type="line"/>
			<point x="554" y="700" type="line"/>
			<point x="342" y="310" type="line"/>
			<point x="342" y="0" type="line"/>
			<point x="252" y="0" type="line"/>
		</contour>
		<contour>
			<point x="201" y="760" type="line"/>
			<point x="137" y="760" type="line"/>
			<point x="257" y="940" type="line"/>
			<point x="337" y="940" type="line"/>
			<point x="457" y="760" type="line"/>
			<point x="393" y="760" type="line"/>
			<point x="297" y="887" type="line"/>
		</contour>
	</outline>
</glyph>
<glyph name="uni01C7" format="2">
	<unicode hex="01C7"/>
	<advance width="830"/>
	<outline>
		<contour>
			<point x="634" y="0" type="curve" smooth="yes"/>
			<point x="610" y="0" type="line"/>
			<point x="610" y="20" type="line"/>
			<point x="636" y="20" type="line" smooth="yes"/>
			<point x="676" y="20"/>
			<point x="708" y="86"/>
			<point x="708" y="150" type="curve" smooth="yes"/>
			<point x="708" y="680" type="line"/>
			<point x="730" y="680" type="line"/>
			<point x="730" y="164" type="line" smooth="yes"/>
			<point x="730" y="60"/>
			<point x="688" y="0"/>
		</contour>
		<contour>
			<point x="122" y="680" type="line"/>
			<point x="122" y="20" type="line"/>
			<point x="451" y="20" type="line"/>
			<point x="451" y="0" type="line"/>
			<point x="100" y="0" type="line"/>
			<point x="100" y="680" type="line"/>
		</contour>
	</outline>
</glyph>
<glyph name="uni01C9" format="2">
	<unicode hex="01C9"/>
	<advance width="450"/>
	<outline>
		<contour>
			<point x="380" y="560" type="line"/>
			<point x="300" y="560" type="line"/>
			<point x="300" y="640" type="line"/>
			<point x="380" y="640" type="line"/>
		</contour>
		<contour>
			<point x="152" y="-100" type="curve"/>
			<point x="217" y="-100" type="line"/>
			<point x="220" y="-132"/>
			<point x="241" y="-140"/>
			<point x="256" y="-140" type="curve" smooth="yes"/>
			<point x="280" y="-140"/>
			<point x="300" y="-136"/>
			<point x="300" y="-80" type="curve" smooth="yes"/>
			<point x="300" y="460" type="line"/>
			<point x="380" y="460" type="line"/>
			<point x="380" y="-60" type="line" smooth="yes"/>
			<point x="380" y="-181"/>
			<point x="324" y="-200"/>
			<point x="260" y="-200" type="curve" smooth="yes"/>
			<point x="204" y="-200"/>
			<point x="156" y="-162"/>
		</contour>
		<contour>
			<point x="170" y="0" type="line"/>
			<point name=".hr01" x="70" y="0" type="line"/>
			<point x="70" y="700" type="line"/>
			<point x="170" y="700" type="line"/>
		</contour>
	</outline>
</glyph>
<glyph name="uni01CA" format="2">
	<unicode hex="01CA"/>
	<advance width="886"/>
	<outline>
		<contour>
			<point x="71" y="450" type="curve" smooth="yes"/>
			<point x="71" y="0" type="line"/>
			<point x="-30" y="0" type="line"/>
			<point x="-30" y="680" type="line"/>
			<point x="82" y="680" type="line"/>
			<point x="387.5" y="164.5" type="line"/>
			<point x="385" y="189.5"/>
			<point x="385" y="212.5"/>
			<point x="385" y="230" type="curve" smooth="yes"/>
			<point x="385" y="680" type="line"/>
			<point x="486" y="680" type="line"/>
			<point x="486" y="0" type="line"/>
			<point x="374" y="0" type="line"/>
			<point x="68.5" y="515.5" type="line"/>
			<point x="71" y="490.5"/>
			<point x="71" y="467.5"/>
		</contour>
		<contour>
			<point x="699" y="0" type="curve" smooth="yes"/>
			<point x="650" y="0" type="line"/>
			<point x="650" y="90" type="line"/>
			<point x="676" y="90" type="line" smooth="yes"/>
			<point x="716" y="90"/>
			<point x="748" y="131"/>
			<point x="748" y="195" type="curve" smooth="yes"/>
			<point x="748" y="680" type="line"/>
			<point x="849" y="680" type="line"/>
			<point x="849" y="204" type="line" smooth="yes"/>
			<point x="849" y="85"/>
			<point x="812" y="0"/>
		</contour>
	</outline>
</glyph>
<glyph name="uni01CB" format="2">
	<unicode hex="01CB"/>
	<advance width="830"/>
	<outline>
		<contour>
			<point x="532" y="-100" type="curve"/>
			<point x="597" y="-100" type="line"/>
			<point x="600" y="-132"/>
			<point x="621" y="-140"/>
			<point x="636" y="-140" type="curve" smooth="yes"/>
			<point x="660" y="-140"/>
			<point x="680" y="-136"/>
			<point x="680" y="-80" type="curve" smooth="yes"/>
			<point x="680" y="460" type="line"/>
			<point x="760" y="460" type="line"/>
			<point x="760" y="-60" type="line" smooth="yes"/>
			<point x="760" y="-181"/>
			<point x="704" y="-200"/>
			<point x="640" y="-200" type="curve" smooth="yes"/>
			<point x="584" y="-200"/>
			<point x="536" y="-162"/>
		</contour>
		<contour>
			<point x="71" y="450" type="curve" smooth="yes"/>
			<point x="71" y="0" type="line"/>
			<point x="-30" y="0" type="line"/>
			<point x="-30" y="680" type="line"/>
			<point x="82" y="680" type="line"/>
			<point x="387.5" y="164.5" type="line"/>
			<point x="385" y="189.5"/>
			<point x="385" y="212.5"/>
			<point x="385" y="230" type="curve" smooth="yes"/>
			<point x="385" y="680" type="line"/>
			<point x="486" y="680" type="line"/>
			<point x="486" y="0" type="line"/>
			<point x="374" y="0" type="line"/>
			<point x="68.5" y="515.5" type="line"/>
			<point x="71" y="490.5"/>
			<point x="71" y="467.5"/>
		</contour>
		<contour>
			<point x="760" y="640" type="line"/>
			<point x="760" y="560" type="line"/>
			<point name=".hr01" x="680" y="560" type="line"/>
			<point x="680" y="640" type="line"/>
		</contour>
	</outline>
</glyph>
<glyph name="uni01CF" format="2">
	<unicode hex="01CF"/>
	<advance width="251"/>
	<outline>
		<contour>
			<point x="176" y="680" type="line"/>
			<point x="176" y="0" type="line"/>
			<point x="75" y="0" type="line"/>
			<point x="75" y="680" type="line"/>
		</contour>
		<contour>
			<point x="165.5" y="740" type="line"/>
			<point x="85.5" y="740" type="line"/>
			<point x="-14.5" y="900" type="line"/>
			<point x="49.5" y="900" type="line"/>
			<point x="125.5" y="815" type="line"/>
			<point x="201.5" y="900" type="line"/>
			<point x="265.5" y="900" type="line"/>
		</contour>
	</outline>
</glyph>
<glyph name="uni01D1" format="2">
	<unicode hex="01D1"/>
	<advance width="706"/>
	<outline>
		<contour>
			<point x="353" y="600" type="curve" smooth="yes"/>
			<point x="231.5" y="600"/>
			<point x="156" y="499.5"/>
			<point x="156" y="340" type="curve" smooth="yes"/>
			<point x="156" y="180.5"/>
			<point x="231.5" y="80"/>
			<point x="353" y="80" type="curve" smooth="yes"/>
			<point x="474.5" y="80"/>
			<point x="550" y="180.5"/>
			<point x="550" y="340" type="curve" smooth="yes"/>
			<point x="550" y="499.5"/>
			<point x="474.5" y="600"/>
		</contour>
		<contour>
			<point x="353" y="-10" type="curve" smooth="yes"/>
			<point x="166" y="-10"/>
			<point x="55" y="120.5"/>
			<point x="55" y="340" type="curve" smooth="yes"/>
			<point x="55" y="559.5"/>
			<point x="166" y="690"/>
			<point x="353" y="690" type="curve" smooth="yes"/>
			<point x="540" y="690"/>
			<point x="651" y="559.5"/>
			<point x="651" y="340" type="curve" smooth="yes"/>
			<point x="651" y="120.5"/>
			<point x="540" y="-10"/>
		</contour>
		<contour>
			<point x="394" y="740" type="line"/>
			<point x="314" y="740" type="line"/>
			<point x="214" y="900" type="line"/>
			<point x="278" y="900" type="line"/>
			<point x="354" y="815" type="line"/>
			<point x="430" y="900" type="line"/>
			<point x="494" y="900" type="line"/>
		</contour>
	</outline>
</glyph>
<glyph name="uni01D3" format="2">
	<unicode hex="01D3"/>
	<advance width="560"/>
	<outline>
		<contour>
			<point x="30" y="250" type="curve" smooth="yes"/>
			<point x="30" y="680" type="line"/>
			<point x="130" y="680" type="line"/>
			<point x="130" y="280" type="line" smooth="yes"/>
			<point x="130" y="145.5"/>
			<point x="180" y="85"/>
			<point x="280" y="85" type="curve" smooth="yes"/>
			<point x="380" y="85"/>
			<point x="430" y="145.5"/>
			<point x="430" y="280" type="curve" smooth="yes"/>
			<point x="430" y="680" type="line"/>
			<point x="530" y="680" type="line"/>
			<point x="530" y="250" type="line" smooth="yes"/>
			<point x="530" y="78"/>
			<point x="440" y="-10"/>
			<point x="280" y="-10" type="curve" smooth="yes"/>
			<point x="120" y="-10"/>
			<point x="30" y="78"/>
		</contour>
		<contour>
			<point x="320" y="750" type="line"/>
			<point x="240" y="750" type="line"/>
			<point x="140" y="910" type="line"/>
			<point x="204" y="910" type="line"/>
			<point x="280" y="825" type="line"/>
			<point x="356" y="910" type="line"/>
			<point x="420" y="910" type="line"/>
		</contour>
	</outline>
</glyph>
<glyph name="uni01DE" format="2">
	<unicode hex="01DE"/>
	<advance width="565"/>
	<outline>
		<contour>
			<point x="366" y="282.5" type="line"/>
			<point x="282.5" y="545.5" type="line"/>
			<point x="199" y="282.5" type="line"/>
		</contour>
		<contour>
			<point x="454" y="0" type="line"/>
			<point x="396.5" y="182.5" type="line"/>
			<point x="168.5" y="182.5" type="line"/>
			<point x="111" y="0" type="line"/>
			<point x="10" y="0" type="line"/>
			<point x="223.5" y="680" type="line"/>
			<point x="340.5" y="680" type="line"/>
			<point x="555" y="0" type="line"/>
		</contour>
		<contour>
			<point x="330" y="860" type="line"/>
			<point x="370" y="825" type="line"/>
			<point x="332.5" y="855" type="line"/>
			<point x="422.5" y="830" type="line"/>
			<point x="412.5" y="740" type="line"/>
			<point x="322.5" y="765" type="line"/>
			<point x="282.5" y="790" type="line"/>
			<point x="242.5" y="765" type="line"/>
			<point x="232.5" y="740" type="line"/>
			<point x="142.5" y="765" type="line"/>
			<point x="105" y="855" type="line"/>
			<point x="195" y="890" type="line"/>
		</contour>
	</outline>
</glyph>
<glyph name="uni01E8" format="2">
	<unicode hex="01E8"/>
	<advance width="603"/>
	<outline>
		<contour>
			<point x="176" y="273.5" type="line"/>
			<point x="176" y="0" type="line"/>
			<point x="75" y="0" type="line"/>
			<point x="75" y="680" type="line"/>
			<point x="176" y="680" type="line"/>
			<point x="176" y="358.5" type="line"/>
			<point x="257.5" y="375.5" type="line"/>
			<point x="440" y="680" type="line"/>
			<point x="553" y="680" type="line"/>
			<point x="353" y="350" type="line"/>
			<point x="593" y="0" type="line"/>
			<point x="470" y="0" type="line"/>
			<point x="269" y="296.5" type="line"/>
		</contour>
		<contour>
			<point x="341.5" y="760" type="line"/>
			<point x="261.5" y="760" type="line"/>
			<point x="161.5" y="920" type="line"/>
			<point x="225.5" y="920" type="line"/>
			<point x="301.5" y="835" type="line"/>
			<point x="377.5" y="920" type="line"/>
			<point x="441.5" y="920" type="line"/>
		</contour>
	</outline>
</glyph>
<glyph name="uni01F2" format="2">
	<unicode hex="01F2"/>
	<advance width="1085"/>
	<outline>
		<contour>
			<point x="176" y="590" type="line"/>
			<point x="176" y="90" type="line"/>
			<point x="298" y="90" type="line" smooth="yes"/>
			<point x="415" y="90"/>
			<point x="479.5" y="195"/>
			<point x="479.5" y="340" type="curve" smooth="yes"/>
			<point x="479.5" y="503"/>
			<point x="417" y="590"/>
			<point x="298" y="590" type="curve" smooth="yes"/>
		</contour>
		<contour>
			<point x="75" y="680" type="line"/>
			<point x="298" y="680" type="line" smooth="yes"/>
			<point x="488" y="680"/>
			<point x="580" y="549"/>
			<point x="580" y="340" type="curve" smooth="yes"/>
			<point x="580" y="129.5"/>
			<point x="488.5" y="0"/>
			<point x="298" y="0" type="curve" smooth="yes"/>
			<point x="75" y="0" type="line"/>
		</contour>
		<contour>
			<point name=".hr01" x="1045" y="65" type="line"/>
			<point x="1045" y="0" type="line"/>
			<point x="675" y="0" type="line"/>
			<point x="675" y="65" type="line"/>
			<point x="945" y="395" type="line"/>
			<point x="675" y="395" type="line"/>
			<point x="675" y="460" type="line"/>
			<point x="1045" y="460" type="line"/>
			<point x="1045" y="395" type="line"/>
			<point x="785" y="65" type="line"/>
		</contour>
	</outline>
</glyph>
<glyph name="uni0202" format="2">
	<unicode hex="0202"/>
	<advance width="570"/>
	<outline>
		<contour>
			<point x="356" y="282.5" type="line"/>
			<point x="272.5" y="545.5" type="line"/>
			<point x="189" y="282.5" type="line"/>
		</contour>
		<contour>
			<point x="444" y="0" type="line"/>
			<point x="386.5" y="182.5" type="line"/>
			<point x="158.5" y="182.5" type="line"/>
			<point x="101" y="0" type="line"/>
			<point x="0" y="0" type="line"/>
			<point x="213.5" y="680" type="line"/>
			<point x="330.5" y="680" type="line"/>
			<point x="545" y="0" type="line"/>
		</contour>
		<contour>
			<point x="205" y="720" type="curve"/>
			<point x="125" y="720" type="line"/>
			<point x="125" y="820"/>
			<point x="200" y="860"/>
			<point x="280" y="860" type="curve" smooth="yes"/>
			<point x="360" y="860"/>
			<point x="435" y="820"/>
			<point x="435" y="720" type="curve"/>
			<point x="355" y="720" type="line"/>
			<point x="355" y="780"/>
			<point x="315" y="800"/>
			<point x="280" y="800" type="curve" smooth="yes"/>
			<point x="245" y="800"/>
			<point x="205" y="780"/>
		</contour>
	</outline>
</glyph>
<glyph name="uni0204" format="2">
	<unicode hex="0204"/>
	<advance width="510"/>
	<outline>
		<contour>
			<point x="420" y="305" type="line"/>
			<point x="176" y="305" type="line"/>
			<point x="176" y="85" type="line"/>
			<point x="460" y="85" type="line"/>
			<point x="460" y="0" type="line"/>
			<point x="75" y="0" type="line"/>
			<point x="75" y="680" type="line"/>
			<point x="460" y="680" type="line"/>
			<point x="460" y="595" type="line"/>
			<point x="176" y="595" type="line"/>
			<point x="176" y="390" type="line"/>
			<point x="420" y="390" type="line"/>
		</contour>
		<contour>
			<point x="278" y="730" type="line"/>
			<point x="214" y="730" type="line"/>
			<point x="138" y="910" type="line"/>
			<point x="218" y="910" type="line"/>
		</contour>
		<contour>
			<point x="373" y="730" type="line"/>
			<point x="309" y="730" type="line"/>
			<point x="248" y="910" type="line"/>
			<point x="328" y="910" type="line"/>
		</contour>
	</outline>
</glyph>
<glyph name="uni0208" format="2">
	<unicode hex="0208"/>
	<advance width="251"/>
	<outline>
		<contour>
			<point x="176" y="0" type="line"/>
			<point x="75" y="0" type="line"/>
			<point x="75" y="680" type="line"/>
			<point x="176" y="680" type="line"/>
		</contour>
		<contour>
			<point x="179.5" y="730" type="line"/>
			<point x="118.5" y="910" type="line"/>
			<point x="198.5" y="910" type="line"/>
			<point x="243.5" y="730" type="line"/>
		</contour>
		<contour>
			<point x="84.5" y="730" type="line"/>
			<point x="8.5" y="910" type="line"/>
			<point x="88.5" y="910" type="line"/>
			<point x="148.5" y="730" type="line"/>
		</contour>
	</outline>
</glyph>
<glyph name="uni020A" format="2">
	<unicode hex="020A"/>
	<advance width="251"/>
	<outline>
		<contour>
			<point x="176" y="0" type="line"/>
			<point x="75" y="0" type="line"/>
			<point x="75" y="680" type="line"/>
			<point x="176" y="680" type="line"/>
		</contour>
		<contour>
			<point x="50.5" y="740" type="curve"/>
			<point x="-29.5" y="740" type="line"/>
			<point x="-29.5" y="840"/>
			<point x="45.5" y="880"/>
			<point x="125.5" y="880" type="curve" smooth="yes"/>
			<point x="205.5" y="880"/>
			<point x="280.5" y="840"/>
			<point x="280.5" y="740" type="curve"/>
			<point x="200.5" y="740" type="line"/>
			<point x="200.5" y="800"/>
			<point x="160.5" y="820"/>
			<point x="125.5" y="820" type="curve" smooth="yes"/>
			<point x="90.5" y="820"/>
			<point x="50.5" y="800"/>
		</contour>
	</outline>
</glyph>
<glyph name="uni020C" format="2">
	<unicode hex="020C"/>
	<advance width="706"/>
	<outline>
		<contour>
			<point x="353" y="600" type="curve" smooth="yes"/>
			<point x="231.5" y="600"/>
			<point x="156" y="499.5"/>
			<point x="156" y="340" type="curve" smooth="yes"/>
			<point x="156" y="180.5"/>
			<point x="231.5" y="80"/>
			<point x="353" y="80" type="curve" smooth="yes"/>
			<point x="474.5" y="80"/>
			<point x="550" y="180.5"/>
			<point x="550" y="340" type="curve" smooth="yes"/>
			<point x="550" y="499.5"/>
			<point x="474.5" y="600"/>
		</contour>
		<contour>
			<point x="353" y="-10" type="curve" smooth="yes"/>
			<point x="166" y="-10"/>
			<point x="55" y="120.5"/>
			<point x="55" y="340" type="curve" smooth="yes"/>
			<point x="55" y="559.5"/>
			<point x="166" y="690"/>
			<point x="353" y="690" type="curve" smooth="yes"/>
			<point x="540" y="690"/>
			<point x="651" y="559.5"/>
			<point x="651" y="340" type="curve" smooth="yes"/>
			<point x="651" y="120.5"/>
			<point x="540" y="-10"/>
		</contour>
		<contour>
			<point x="376" y="730" type="line"/>
			<point x="312" y="730" type="line"/>
			<point x="236" y="910" type="line"/>
			<point x="316" y="910" type="line"/>
		</contour>
		<contour>
			<point x="471" y="730" type="line"/>
			<point x="407" y="730" type="line"/>
			<point x="346" y="910" type="line"/>
			<point x="426" y="910" type="line"/>
		</contour>
	</outline>
</glyph>
<glyph name="uni020E" format="2">
	<unicode hex="020E"/>
	<advance width="706"/>
	<outline>
		<contour>
			<point x="353" y="600" type="curve" smooth="yes"/>
			<point x="231.5" y="600"/>
			<point x="156" y="499.5"/>
			<point x="156" y="340" type="curve" smooth="yes"/>
			<point x="156" y="180.5"/>
			<point x="231.5" y="80"/>
			<point x="353" y="80" type="curve" smooth="yes"/>
			<point x="474.5" y="80"/>
			<point x="550" y="180.5"/>
			<point x="550" y="340" type="curve" smooth="yes"/>
			<point x="550" y="499.5"/>
			<point x="474.5" y="600"/>
		</contour>
		<contour>
			<point x="353" y="-10" type="curve" smooth="yes"/>
			<point x="166" y="-10"/>
			<point x="55" y="120.5"/>
			<point x="55" y="340" type="curve" smooth="yes"/>
			<point x="55" y="559.5"/>
			<point x="166" y="690"/>
			<point x="353" y="690" type="curve" smooth="yes"/>
			<point x="540" y="690"/>
			<point x="651" y="559.5"/>
			<point x="651" y="340" type="curve" smooth="yes"/>
			<point x="651" y="120.5"/>
			<point x="540" y="-10"/>
		</contour>
		<contour>
			<point x="279" y="740" type="curve"/>
			<point x="199" y="740" type="line"/>
			<point x="199" y="840"/>
			<point x="274" y="880"/>
			<point x="354" y="880" type="curve" smooth="yes"/>
			<point x="434" y="880"/>
			<point x="509" y="840"/>
			<point x="509" y="740" type="curve"/>
			<point x="429" y="740" type="line"/>
			<point x="429" y="800"/>
			<point x="389" y="820"/>
			<point x="354" y="820" type="curve" smooth="yes"/>
			<point x="319" y="820"/>
			<point x="279" y="800"/>
		</contour>
	</outline>
</glyph>
<glyph name="uni0211" format="2">
	<unicode hex="0211"/>
	<advance width="370"/>
	<outline>
		<contour>
			<point x="205" y="530" type="line"/>
			<point x="144" y="710" type="line"/>
			<point x="224" y="710" type="line"/>
			<point x="269" y="530" type="line"/>
		</contour>
		<contour>
			<point x="110" y="530" type="line"/>
			<point x="34" y="710" type="line"/>
			<point x="114" y="710" type="line"/>
			<point x="174" y="530" type="line"/>
		</contour>
		<contour>
			<point x="124" y="0" type="line"/>
			<point x="44" y="0" type="line"/>
			<point x="44" y="460" type="line"/>
			<point x="124" y="460" type="line"/>
			<point x="124" y="370" type="line"/>
			<point x="147" y="421"/>
			<point x="211" y="470"/>
			<point x="271" y="470" type="curve" smooth="yes"/>
			<point x="294" y="470"/>
			<point x="316" y="466"/>
			<point x="334" y="460" type="curve"/>
			<point x="334" y="359" type="line"/>
			<point x="311" y="379"/>
			<point x="280" y="390"/>
			<point x="245" y="390" type="curve" smooth="yes"/>
			<point x="189" y="390"/>
			<point x="139" y="331"/>
			<point x="124" y="233" type="curve"/>
		</contour>
	</outline>
</glyph>
<glyph name="uni0214" format="2">
	<unicode hex="0214"/>
	<advance width="600"/>
	<outline>
		<contour>
			<point x="50" y="250" type="curve" smooth="yes"/>
			<point x="50" y="680" type="line"/>
			<point x="150" y="680" type="line"/>
			<point x="150" y="280" type="line" smooth="yes"/>
			<point x="150" y="145.5"/>
			<point x="200" y="85"/>
			<point x="300" y="85" type="curve" smooth="yes"/>
			<point x="400" y="85"/>
			<point x="450" y="145.5"/>
			<point x="450" y="280" type="curve" smooth="yes"/>
			<point x="450" y="680" type="line"/>
			<point x="550" y="680" type="line"/>
			<point x="550" y="250" type="line" smooth="yes"/>
			<point x="550" y="78"/>
			<point x="460" y="-10"/>
			<point x="300" y="-10" type="curve" smooth="yes"/>
			<point x="140" y="-10"/>
			<point x="50" y="78"/>
		</contour>
		<contour>
			<point x="354" y="730" type="line"/>
			<point x="293" y="910" type="line"/>
			<point x="373" y="910" type="line"/>
			<point x="418" y="730" type="line"/>
		</contour>
		<contour>
			<point x="259" y="730" type="line"/>
			<point x="183" y="910" type="line"/>
			<point x="263" y="910" type="line"/>
			<point x="323" y="730" type="line"/>
		</contour>
	</outline>
</glyph>
<glyph name="uni0216" format="2">
	<unicode hex="0216"/>
	<advance width="560"/>
	<outline>
		<contour>
			<point x="200" y="720" type="curve"/>
			<point x="120" y="720" type="line"/>
			<point x="120" y="820"/>
			<point x="195" y="860"/>
			<point x="275" y="860" type="curve" smooth="yes"/>
			<point x="355" y="860"/>
			<point x="430" y="820"/>
			<point x="430" y="720" type="curve"/>
			<point x="350" y="720" type="line"/>
			<point x="350" y="780"/>
			<point x="310" y="800"/>
			<point x="275" y="800" type="curve" smooth="yes"/>
			<point x="240" y="800"/>
			<point x="200" y="780"/>
		</contour>
		<contour>
			<point x="30" y="250" type="curve" smooth="yes"/>
			<point name=".hr01" x="30" y="680" type="line"/>
			<point x="130" y="680" type="line"/>
			<point x="130" y="280" type="line" smooth="yes"/>
			<point x="130" y="145.5"/>
			<point x="180" y="85"/>
			<point x="280" y="85" type="curve" smooth="yes"/>
			<point x="380" y="85"/>
			<point x="430" y="145.5"/>
			<point x="430" y="280" type="curve" smooth="yes"/>
			<point x="430" y="680" type="line"/>
			<point x="530" y="680" type="line"/>
			<point name=".hr02" x="530" y="250" type="line" smooth="yes"/>
			<point x="530" y="78"/>
			<point x="440" y="-10"/>
			<point x="280" y="-10" type="curve" smooth="yes"/>
			<point x="120" y="-10"/>
			<point x="30" y="78"/>
		</contour>
	</outline>
</glyph>
<glyph name="uni0218" format="2">
	<unicode hex="0218"/>
	<advance width="582"/>
	<outline>
		<contour>
			<point x="264" y="-151" type="line"/>
			<point x="264" y="-71" type="line"/>
			<point x="344" y="-71" type="line"/>
			<point x="344" y="-151" type="line"/>
			<point x="298" y="-281" type="line"/>
			<point x="264" y="-281" type="line"/>
			<point x="286" y="-151" type="line"/>
		</contour>
		<contour>
			<point x="41" y="208" type="curve"/>
			<point x="147" y="208" type="line"/>
			<point x="147" y="132.5"/>
			<point x="202.5" y="80"/>
			<point x="293.5" y="80" type="curve" smooth="yes"/>
			<point x="383" y="80"/>
			<point x="436" y="123"/>
			<point x="436" y="185.5" type="curve" smooth="yes"/>
			<point x="436" y="235"/>
			<point x="407.5" y="268.5"/>
			<point x="351.5" y="287" type="curve"/>
			<point name=".hr01" x="166" y="364.5" type="line"/>
			<point x="101.5" y="390"/>
			<point x="59.5" y="442"/>
			<point x="59.5" y="510.5" type="curve" smooth="yes"/>
			<point x="59.5" y="619.5"/>
			<point name=".hr02" x="146.5" y="690"/>
			<point x="291.5" y="690" type="curve" smooth="yes"/>
			<point x="436" y="690"/>
			<point x="540" y="601"/>
			<point x="540" y="491" type="curve"/>
			<point x="434" y="491" type="line"/>
			<point x="434" y="553.5"/>
			<point x="377.5" y="600"/>
			<point x="279.5" y="600" type="curve" smooth="yes"/>
			<point x="207.5" y="600"/>
			<point name=".hr03" x="165.5" y="568.5"/>
			<point x="165.5" y="511" type="curve" smooth="yes"/>
			<point x="165.5" y="469.5"/>
			<point x="191.5" y="437.5"/>
			<point x="241.5" y="420" type="curve"/>
			<point x="424.5" y="346" type="line"/>
			<point x="502.5" y="315.5"/>
			<point x="542" y="264.5"/>
			<point x="542" y="182.5" type="curve" smooth="yes"/>
			<point x="542" y="64"/>
			<point x="452" y="-10"/>
			<point x="291.5" y="-10" type="curve" smooth="yes"/>
			<point x="140.5" y="-10"/>
			<point name=".hr04" x="41" y="79"/>
		</contour>
	</outline>
</glyph>
<glyph name="uni0226" format="2">
	<unicode hex="0226"/>
	<advance width="570"/>
	<outline>
		<contour>
			<point x="356" y="282.5" type="line"/>
			<point x="272.5" y="545.5" type="line"/>
			<point x="189" y="282.5" type="line"/>
		</contour>
		<contour>
			<point x="444" y="0" type="line"/>
			<point x="386.5" y="182.5" type="line"/>
			<point x="158.5" y="182.5" type="line"/>
			<point x="101" y="0" type="line"/>
			<point x="0" y="0" type="line"/>
			<point x="213.5" y="680" type="line"/>
			<point x="330.5" y="680" type="line"/>
			<point x="545" y="0" type="line"/>
		</contour>
		<contour>
			<point x="350" y="860" type="line"/>
			<point x="350" y="750" type="line"/>
			<point x="250" y="750" type="line"/>
			<point x="250" y="860" type="line"/>
		</contour>
	</outline>
</glyph>
<glyph name="uni022E" format="2">
	<unicode hex="022E"/>
	<advance width="660"/>
	<outline>
		<contour>
			<point x="50" y="350" type="curve" smooth="yes"/>
			<point x="50" y="560"/>
			<point x="146" y="710"/>
			<point x="328" y="710" type="curve" smooth="yes"/>
			<point x="519" y="710"/>
			<point x="610" y="555"/>
			<point x="610" y="350" type="curve" smooth="yes"/>
			<point x="610" y="141"/>
			<point x="521" y="-10"/>
			<point x="334" y="-10" type="curve" smooth="yes"/>
			<point x="141" y="-10"/>
			<point x="50" y="138"/>
		</contour>
		<contour>
			<point x="140" y="350" type="curve" smooth="yes"/>
			<point x="140" y="200"/>
			<point x="187" y="70"/>
			<point x="328" y="70" type="curve" smooth="yes"/>
			<point x="477" y="70"/>
			<point x="520" y="236"/>
			<point x="520" y="350" type="curve" smooth="yes"/>
			<point x="520" y="503"/>
			<point x="477" y="630"/>
			<point x="328" y="630" type="curve" smooth="yes"/>
			<point x="189" y="630"/>
			<point x="140" y="502"/>
		</contour>
		<contour>
			<point x="370" y="760" type="line"/>
			<point x="290" y="760" type="line"/>
			<point x="290" y="840" type="line"/>
			<point x="370" y="840" type="line"/>
		</contour>
	</outline>
</glyph>
<glyph name="uni0233" format="2">
	<unicode hex="0233"/>
	<advance width="470"/>
	<outline>
		<contour>
			<point x="350" y="530" type="line"/>
			<point x="80" y="530" type="line"/>
			<point x="80" y="610" type="line"/>
			<point x="350" y="610" type="line"/>
		</contour>
		<contour>
			<point x="203" y="-12" type="curve"/>
			<point name=".hr01" x="35" y="460" type="line"/>
			<point x="115" y="460" type="line"/>
			<point x="244" y="98" type="line"/>
			<point x="359" y="460" type="line"/>
			<point x="435" y="460" type="line"/>
			<point x="263" y="-49" type="line" smooth="yes"/>
			<point x="257" y="-67"/>
			<point x="230" y="-200"/>
			<point x="155" y="-200" type="curve" smooth="yes"/>
			<point x="113" y="-200"/>
			<point x="94" y="-198"/>
			<point x="63" y="-190" type="curve"/>
			<point x="63" y="-120" type="line"/>
			<point x="83" y="-129"/>
			<point x="99" y="-135"/>
			<point x="121" y="-135" type="curve" smooth="yes"/>
			<point x="127" y="-135" type="line" smooth="yes"/>
			<point x="168" y="-135"/>
			<point x="192" y="-54"/>
		</contour>
	</outline>
</glyph>
<glyph name="circumflex" format="2">
	<unicode hex="02C6"/>
	<advance width="340"/>
	<outline>
		<contour>
			<point x="170" y="643" type="line"/>
			<point x="72" y="520" type="line"/>
			<point x="15" y="520" type="line"/>
			<point x="125" y="700" type="line"/>
			<point x="215" y="700" type="line"/>
			<point x="325" y="520" type="line"/>
			<point x="268" y="520" type="line"/>
		</contour>
	</outline>
</glyph>
<glyph name="dotaccent" format="2">
	<unicode hex="02D9"/>
	<advance width="230"/>
	<outline>
		<contour>
			<point x="165" y="520" type="line"/>
			<point x="65" y="520" type="line"/>
			<point x="65" y="630" type="line"/>
			<point x="165" y="630" type="line"/>
		</contour>
	</outline>
</glyph>
<glyph name="ogonek" format="2">
	<unicode hex="02DB"/>
	<advance width="309"/>
	<outline>
		<contour>
			<point x="70" y="-133.5" type="curve" smooth="yes"/>
			<point x="70" y="-83"/>
			<point x="98" y="-40.5"/>
			<point x="138.5" y="0" type="curve"/>
			<point x="208.5" y="0" type="line"/>
			<point x="163.5" y="-45"/>
			<point x="150.5" y="-74"/>
			<point x="150.5" y="-105.5" type="curve" smooth="yes"/>
			<point x="150.5" y="-131.5"/>
			<point x="165" y="-145"/>
			<point x="190.5" y="-145" type="curve" smooth="yes"/>
			<point x="203" y="-145"/>
			<point x="216" y="-138"/>
			<point x="225.5" y="-129.5" type="curve"/>
			<point x="238.5" y="-185.5" type="line"/>
			<point x="218.5" y="-200.5"/>
			<point x="189.5" y="-210"/>
			<point x="155.5" y="-210" type="curve" smooth="yes"/>
			<point x="101.5" y="-210"/>
			<point x="70" y="-182.5"/>
		</contour>
	</outline>
</glyph>
<glyph name="gravecomb" format="2">
	<unicode hex="0300"/>
	<outline>
		<contour>
			<point x="-289" y="520" type="line"/>
			<point x="-372" y="700" type="line"/>
			<point x="-250" y="700" type="line"/>
			<point x="-200" y="520" type="line"/>
		</contour>
	</outline>
	<anchor name="top" x="-244" y="520"/>
</glyph>
<glyph name="acutecomb" format="2">
	<unicode hex="0301"/>
	<outline>
		<contour>
			<point x="-160" y="520" type="line"/>
			<point x="-249" y="520" type="line"/>
			<point x="-199" y="710" type="line"/>
			<point x="-77" y="710" type="line"/>
		</contour>
	</outline>
	<anchor name="top" x="-206.5" y="520"/>
</glyph>
<glyph name="uni0307" format="2">
	<unicode hex="0307"/>
	<outline>
		<contour>
			<point x="-65" y="520" type="line"/>
			<point x="-165" y="520" type="line"/>
			<point x="-165" y="630" type="line"/>
			<point x="-65" y="630" type="line"/>
		</contour>
	</outline>
</glyph>
<glyph name="uni0308" format="2">
	<unicode hex="0308"/>
	<outline>
		<contour>
			<point x="-278.5" y="520" type="line"/>
			<point x="-373.5" y="520" type="line"/>
			<point x="-373.5" y="645" type="line"/>
			<point x="-278.5" y="645" type="line"/>
		</contour>
		<contour>
			<point x="-79.5" y="520" type="line"/>
			<point x="-174.5" y="520" type="line"/>
			<point x="-174.5" y="645" type="line"/>
			<point x="-79.5" y="645" type="line"/>
		</contour>
	</outline>
	<anchor name="top" x="-227" y="520"/>
</glyph>
<glyph name="uni0402" format="2">
	<unicode hex="0402"/>
	<advance width="1267"/>
	<outline>
		<contour>
			<point x="943.5" y="-90" type="curve"/>
			<point x="1022.5" y="-90" type="line"/>
			<point x="1038.5" y="-114"/>
			<point x="1053.5" y="-120"/>
			<point x="1076.5" y="-120" type="curve" smooth="yes"/>
			<point x="1101.5" y="-120"/>
			<point x="1116.5" y="-103"/>
			<point x="1116.5" y="-55" type="curve" smooth="yes"/>
			<point x="1116.5" y="460" type="line"/>
			<point x="1196.5" y="460" type="line"/>
			<point x="1196.5" y="-31" type="line" smooth="yes"/>
			<point x="1196.5" y="-139"/>
			<point x="1139.5" y="-200"/>
			<point x="1074.5" y="-200" type="curve" smooth="yes"/>
			<point x="1010.5" y="-200"/>
			<point x="959.5" y="-149"/>
		</contour>
		<contour>
			<point x="290.5" y="590" type="line"/>
			<point x="290.5" y="0" type="line"/>
			<point x="189.5" y="0" type="line"/>
			<point x="189.5" y="590" type="line"/>
			<point x="10" y="590" type="line"/>
			<point x="10" y="680" type="line"/>
			<point x="470" y="680" type="line"/>
			<point x="470" y="590" type="line"/>
		</contour>
		<contour>
			<point x="819" y="470" type="curve" smooth="yes"/>
			<point x="936.5" y="470"/>
			<point x="969" y="384.5"/>
			<point x="969" y="305" type="curve" smooth="yes"/>
			<point x="969" y="0" type="line"/>
			<point x="869" y="0" type="line"/>
			<point x="869" y="285" type="line" smooth="yes"/>
			<point x="869" y="348.5"/>
			<point x="837.5" y="409.5"/>
			<point x="773.5" y="409.5" type="curve" smooth="yes"/>
			<point x="704.5" y="409.5"/>
			<point x="650" y="343"/>
			<point x="650" y="255" type="curve" smooth="yes"/>
			<point x="650" y="0" type="line"/>
			<point x="550" y="0" type="line"/>
			<point x="550" y="700" type="line"/>
			<point name=".hr01" x="650" y="700" type="line"/>
			<point x="650" y="365" type="line"/>
			<point x="686.5" y="422.5"/>
			<point x="744.5" y="470"/>
		</contour>
	</outline>
</glyph>
<glyph name="uni040C" format="2">
	<unicode hex="040C"/>
	<advance width="603"/>
	<outline>
		<contour>
			<point x="176" y="273.5" type="line"/>
			<point x="176" y="0" type="line"/>
			<point x="75" y="0" type="line"/>
			<point x="75" y="680" type="line"/>
			<point x="176" y="680" type="line"/>
			<point x="176" y="358.5" type="line"/>
			<point x="257.5" y="375.5" type="line"/>
			<point x="440" y="680" type="line"/>
			<point x="553" y="680" type="line"/>
			<point x="353" y="350" type="line"/>
			<point x="593" y="0" type="line"/>
			<point x="470" y="0" type="line"/>
			<point x="269" y="296.5" type="line"/>
		</contour>
		<contour>
			<point x="386" y="925" type="line"/>
			<point x="314" y="730" type="line"/>
			<point x="217" y="730" type="line"/>
			<point x="277" y="925" type="line"/>
		</contour>
	</outline>
</glyph>
<glyph name="uni0413" format="2">
	<unicode hex="0413"/>
	<advance width="490"/>
	<outline>
		<contour>
			<point x="460" y="595" type="line"/>
			<point x="176" y="595" type="line"/>
			<point x="176" y="0" type="line"/>
			<point x="75" y="0" type="line"/>
			<point x="75" y="680" type="line"/>
			<point x="460" y="680" type="line"/>
		</contour>
	</outline>
</glyph>
<glyph name="uni041F" format="2">
	<unicode hex="041F"/>
	<advance width="590"/>
	<outline>
		<contour>
			<point x="140" y="0" type="line"/>
			<point x="50" y="0" type="line"/>
			<point x="50" y="700" type="line"/>
			<point x="540" y="700" type="line"/>
			<point x="540" y="0" type="line"/>
			<point x="450" y="0" type="line"/>
			<point x="450" y="620" type="line"/>
			<point x="140" y="620" type="line"/>
		</contour>
	</outline>
</glyph>
<glyph name="uni0424" format="2">
	<unicode hex="0424"/>
	<advance width="830"/>
	<outline>
		<contour>
			<point x="140" y="350" type="curve" smooth="yes"/>
			<point x="140" y="269"/>
			<point x="181" y="149"/>
			<point x="332" y="149" type="curve" smooth="yes"/>
			<point x="346" y="149"/>
			<point x="359" y="150"/>
			<point x="371" y="152" type="curve"/>
			<point x="371" y="547" type="line"/>
			<point x="359" y="549"/>
			<point x="346" y="550"/>
			<point x="332" y="550" type="curve" smooth="yes"/>
			<point x="203" y="550"/>
			<point x="140" y="483"/>
		</contour>
		<contour>
			<point x="459" y="547" type="curve"/>
			<point x="459" y="152" type="line"/>
			<point x="471" y="150"/>
			<point x="484" y="149"/>
			<point x="498" y="149" type="curve" smooth="yes"/>
			<point x="616" y="149"/>
			<point x="690" y="229"/>
			<point x="690" y="349" type="curve" smooth="yes"/>
			<point x="690" y="458"/>
			<point x="647" y="550"/>
			<point x="498" y="550" type="curve" smooth="yes"/>
			<point x="484" y="550"/>
			<point x="471" y="549"/>
		</contour>
		<contour>
			<point x="50" y="349" type="curve" smooth="yes"/>
			<point x="50" y="509"/>
			<point x="142" y="629"/>
			<point x="332" y="629" type="curve" smooth="yes"/>
			<point x="345" y="629"/>
			<point x="358" y="628"/>
			<point x="370" y="627" type="curve"/>
			<point x="370" y="699" type="line"/>
			<point x="460" y="699" type="line"/>
			<point name=".hr01" x="460" y="627" type="line"/>
			<point x="472" y="628"/>
			<point x="485" y="629"/>
			<point x="498" y="629" type="curve" smooth="yes"/>
			<point name=".hr02" x="688" y="629"/>
			<point x="780" y="509"/>
			<point x="780" y="349" type="curve" smooth="yes"/>
			<point x="780" y="186"/>
			<point x="691" y="69"/>
			<point x="504" y="69" type="curve" smooth="yes"/>
			<point x="489" y="69"/>
			<point x="474" y="70"/>
			<point x="460" y="71" type="curve"/>
			<point x="460" y="-1" type="line"/>
			<point x="370" y="-1" type="line"/>
			<point name=".hr03" x="370" y="71" type="line"/>
			<point x="356" y="70"/>
			<point x="341" y="69"/>
			<point x="326" y="69" type="curve" smooth="yes"/>
			<point name=".hr04" x="139" y="69"/>
			<point x="50" y="186"/>
		</contour>
	</outline>
</glyph>
<glyph name="uni0428" format="2">
	<unicode hex="0428"/>
	<advance width="846"/>
	<outline>
		<contour>
			<point x="796" y="0" type="line"/>
			<point x="50" y="0" type="line"/>
			<point x="50" y="700" type="line"/>
			<point x="140" y="700" type="line"/>
			<point x="140" y="70" type="line"/>
			<point x="378" y="70" type="line"/>
			<point x="378" y="700" type="line"/>
			<point x="468" y="700" type="line"/>
			<point x="468" y="70" type="line"/>
			<point x="706" y="70" type="line"/>
			<point x="706" y="700" type="line"/>
			<point x="796" y="700" type="line"/>
		</contour>
	</outline>
</glyph>
<glyph name="uni042B" format="2">
	<unicode hex="042B"/>
	<advance width="793"/>
	<outline>
		<component base="uni042C"/>
		<contour>
			<point x="709" y="690" type="line"/>
			<point x="709" y="0" type="line"/>
			<point x="608" y="0" type="line"/>
			<point x="608" y="690" type="line"/>
		</contour>
	</outline>
</glyph>
<glyph name="uni042C" format="2">
	<unicode hex="042C"/>
	<advance width="590"/>
	<outline>
		<contour>
			<point x="126" y="0" type="line"/>
			<point x="126" y="90" type="line"/>
			<point x="281" y="90" type="line" smooth="yes"/>
			<point x="367" y="90"/>
			<point x="404" y="152"/>
			<point x="404" y="215" type="curve" smooth="yes"/>
			<point x="404" y="280.5"/>
			<point x="364" y="332"/>
			<point x="281" y="332" type="curve" smooth="yes"/>
			<point x="126" y="332" type="line"/>
			<point x="126" y="422" type="line"/>
			<point x="291" y="422" type="line" smooth="yes"/>
			<point x="452" y="422"/>
			<point x="506" y="331"/>
			<point x="506" y="215" type="curve" smooth="yes"/>
			<point x="506" y="102"/>
			<point x="439" y="0"/>
			<point x="291" y="0" type="curve" smooth="yes"/>
		</contour>
		<contour>
			<point x="50" y="0" type="line"/>
			<point x="50" y="680" type="line"/>
			<point x="151" y="680" type="line"/>
			<point x="151" y="0" type="line"/>
		</contour>
	</outline>
</glyph>
<glyph name="uni0434" format="2">
	<unicode hex="0434"/>
	<advance width="531"/>
	<outline>
		<contour>
			<point x="173" y="68" type="curve"/>
			<point x="371" y="68" type="line"/>
			<point x="371" y="395" type="line"/>
			<point x="200" y="395" type="line"/>
			<point x="200" y="268" type="line" smooth="yes"/>
			<point x="200" y="208"/>
			<point x="198" y="129"/>
		</contour>
		<contour>
			<point x="100" y="-140" type="line"/>
			<point x="30" y="-140" type="line"/>
			<point x="30" y="68" type="line"/>
			<point x="92" y="68" type="line"/>
			<point x="117" y="117"/>
			<point x="120" y="166"/>
			<point x="120" y="215" type="curve" smooth="yes"/>
			<point x="120" y="460" type="line"/>
			<point x="451" y="460" type="line"/>
			<point x="451" y="68" type="line"/>
			<point x="511" y="68" type="line"/>
			<point x="511" y="-140" type="line"/>
			<point x="441" y="-140" type="line"/>
			<point x="431" y="0" type="line"/>
			<point x="110" y="0" type="line"/>
		</contour>
	</outline>
</glyph>
<glyph name="uni043B" format="2">
	<unicode hex="043B"/>
	<advance width="507"/>
	<outline>
		<contour>
			<point x="48" y="-10" type="curve" smooth="yes"/>
			<point x="20" y="-10" type="line"/>
			<point x="20" y="55" type="line"/>
			<point x="93" y="55"/>
			<point x="106" y="89"/>
			<point x="106" y="290" type="curve" smooth="yes"/>
			<point x="106" y="460" type="line"/>
			<point x="437" y="460" type="line"/>
			<point x="437" y="0" type="line"/>
			<point x="357" y="0" type="line"/>
			<point x="357" y="392" type="line"/>
			<point x="186" y="392" type="line"/>
			<point x="186" y="310" type="line" smooth="yes"/>
			<point x="186" y="107"/>
			<point x="164" y="-10"/>
		</contour>
	</outline>
</glyph>
<glyph name="uni0440" format="2">
	<unicode hex="0440"/>
	<advance width="499"/>
	<outline>
		<contour>
			<point x="132.5" y="231" type="curve" smooth="yes"/>
			<point x="132.5" y="226" type="line" smooth="yes"/>
			<point x="132.5" y="123"/>
			<point x="183.5" y="55"/>
			<point x="252.5" y="55" type="curve" smooth="yes"/>
			<point x="345.5" y="55"/>
			<point x="383.5" y="123"/>
			<point x="383.5" y="231" type="curve" smooth="yes"/>
			<point x="383.5" y="306"/>
			<point x="364.5" y="405"/>
			<point x="252.5" y="405" type="curve" smooth="yes"/>
			<point x="169.5" y="405"/>
			<point x="132.5" y="315"/>
		</contour>
		<contour>
			<point x="82.5" y="129.5" type="line"/>
			<point x="91" y="417.5" type="line"/>
			<point x="109.319" y="448"/>
			<point x="155.545" y="465"/>
			<point x="195" y="465" type="curve"/>
			<point x="259.334" y="457.755"/>
			<point x="296.254" y="372.398"/>
			<point x="298" y="306" type="curve"/>
			<point x="314" y="273.5"/>
			<point x="301" y="230"/>
			<point x="275.5" y="230" type="curve"/>
			<point x="306.5" y="230"/>
			<point x="309.5" y="184"/>
			<point x="298" y="148" type="curve"/>
			<point x="298" y="64.9489"/>
			<point x="266" y="-80.7964"/>
			<point x="203" y="-105" type="curve"/>
			<point x="158.08" y="-105"/>
			<point x="115.082" y="-89.5"/>
			<point x="92.5" y="-63" type="curve"/>
			<point x="92.5" y="129.5" type="line"/>
		</contour>
	</outline>
</glyph>
<glyph name="uni044A" format="2">
	<unicode hex="044A"/>
	<advance width="528"/>
	<outline>
		<contour>
			<point x="304" y="225" type="curve" smooth="yes"/>
			<point x="201" y="225" type="line"/>
			<point x="201" y="65" type="line"/>
			<point x="304" y="65" type="line" smooth="yes"/>
			<point x="374" y="65"/>
			<point x="398" y="95"/>
			<point x="398" y="140" type="curve" smooth="yes"/>
			<point x="398" y="191"/>
			<point x="374" y="225"/>
		</contour>
		<contour>
			<point x="120" y="0" type="line"/>
			<point x="120" y="380" type="line"/>
			<point x="30" y="380" type="line"/>
			<point x="30" y="460" type="line"/>
			<point x="200" y="460" type="line"/>
			<point x="200" y="290" type="line"/>
			<point x="304" y="290" type="line" smooth="yes"/>
			<point x="444" y="290"/>
			<point x="478" y="215"/>
			<point x="478" y="140" type="curve" smooth="yes"/>
			<point x="478" y="75"/>
			<point x="444" y="0"/>
			<point x="304" y="0" type="curve" smooth="yes"/>
		</contour>
	</outline>
</glyph>
<glyph name="uni0453" format="2">
	<unicode hex="0453"/>
	<advance width="397"/>
	<outline>
		<contour>
			<point x="125" y="0" type="line"/>
			<point x="45" y="0" type="line"/>
			<point x="45" y="460" type="line"/>
			<point x="362" y="460" type="line"/>
			<point x="362" y="388" type="line"/>
			<point x="125" y="388" type="line"/>
		</contour>
		<contour>
			<point x="254" y="530" type="line"/>
			<point x="190" y="530" type="line"/>
			<point x="240" y="710" type="line"/>
			<point x="320" y="710" type="line"/>
		</contour>
	</outline>
</glyph>
<glyph name="uni04D2" format="2">
	<unicode hex="04D2"/>
	<advance width="570"/>
	<outline>
		<contour>
			<point x="356" y="282.5" type="line"/>
			<point x="272.5" y="545.5" type="line"/>
			<point x="189" y="282.5" type="line"/>
		</contour>
		<contour>
			<point x="444" y="0" type="line"/>
			<point x="386.5" y="182.5" type="line"/>
			<point x="158.5" y="182.5" type="line"/>
			<point x="101" y="0" type="line"/>
			<point x="0" y="0" type="line"/>
			<point x="213.5" y="680" type="line"/>
			<point x="330.5" y="680" type="line"/>
			<point x="545" y="0" type="line"/>
		</contour>
		<contour>
			<point x="246" y="840" type="line"/>
			<point x="246" y="760" type="line"/>
			<point x="166" y="760" type="line"/>
			<point x="166" y="840" type="line"/>
		</contour>
		<contour>
			<point x="404" y="840" type="line"/>
			<point x="404" y="760" type="line"/>
			<point x="324" y="760" type="line"/>
			<point x="324" y="840" type="line"/>
		</contour>
	</outline>
</glyph>
<glyph name="uni04DC" format="2">
	<unicode hex="04DC"/>
	<advance width="930"/>
	<outline>
		<contour>
			<point x="426" y="760" type="line"/>
			<point x="346" y="760" type="line"/>
			<point x="346" y="840" type="line"/>
			<point x="426" y="840" type="line"/>
		</contour>
		<contour>
			<point x="584" y="760" type="line"/>
			<point x="504" y="760" type="line"/>
			<point x="504" y="840" type="line"/>
			<point x="584" y="840" type="line"/>
		</contour>
		<contour>
			<point x="140" y="0" type="line"/>
			<point x="30" y="0" type="line"/>
			<point x="270" y="350" type="line"/>
			<point x="70" y="700" type="line"/>
			<point x="180" y="700" type="line"/>
			<point x="350" y="397" type="line"/>
			<point name=".hr01" x="420" y="377" type="line"/>
			<point x="420" y="700" type="line"/>
			<point x="510" y="700" type="line"/>
			<point x="510" y="377" type="line"/>
			<point x="580" y="397" type="line"/>
			<point x="750" y="700" type="line"/>
			<point x="860" y="700" type="line"/>
			<point x="660" y="350" type="line"/>
			<point x="900" y="0" type="line"/>
			<point x="790" y="0" type="line"/>
			<point x="580" y="317" type="line"/>
			<point x="510" y="297" type="line"/>
			<point x="510" y="0" type="line"/>
			<point x="420" y="0" type="line"/>
			<point x="420" y="297" type="line"/>
			<point x="350" y="317" type="line"/>
		</contour>
	</outline>
</glyph>
<glyph name="uni04F4" format="2">
	<unicode hex="04F4"/>
	<advance width="560"/>
	<outline>
		<contour>
			<point x="241" y="770" type="line"/>
			<point x="161" y="770" type="line"/>
			<point x="161" y="850" type="line"/>
			<point x="241" y="850" type="line"/>
		</contour>
		<contour>
			<point x="398" y="770" type="line"/>
			<point x="318" y="770" type="line"/>
			<point x="318" y="850" type="line"/>
			<point x="398" y="850" type="line"/>
		</contour>
		<contour>
			<point x="49" y="500" type="curve" smooth="yes"/>
			<point x="49" y="700" type="line"/>
			<point x="139" y="700" type="line"/>
			<point x="139" y="500" type="line" smooth="yes"/>
			<point x="139" y="439"/>
			<point x="143" y="397"/>
			<point x="237" y="397" type="curve" smooth="yes"/>
			<point x="419" y="397" type="line"/>
			<point x="419" y="700" type="line"/>
			<point x="509" y="700" type="line"/>
			<point x="509" y="0" type="line"/>
			<point x="419" y="0" type="line"/>
			<point x="419" y="317" type="line"/>
			<point x="207" y="317" type="line" smooth="yes"/>
			<point x="153" y="317"/>
			<point x="49" y="352"/>
		</contour>
	</outline>
</glyph>
<glyph name="uni04F5" format="2">
	<unicode hex="04F5"/>
	<advance width="468"/>
	<outline>
		<contour>
			<point x="195" y="530" type="line"/>
			<point x="115" y="530" type="line"/>
			<point x="115" y="610" type="line"/>
			<point x="195" y="610" type="line"/>
		</contour>
		<contour>
			<point x="352" y="530" type="line"/>
			<point x="272" y="530" type="line"/>
			<point x="272" y="610" type="line"/>
			<point x="352" y="610" type="line"/>
		</contour>
		<contour>
			<point name=".hr01" x="44" y="326" type="curve" smooth="yes"/>
			<point x="44" y="460" type="line"/>
			<point x="124" y="460" type="line"/>
			<point x="124" y="359" type="line" smooth="yes"/>
			<point x="124" y="274"/>
			<point x="125" y="220"/>
			<point x="189" y="220" type="curve" smooth="yes"/>
			<point x="250" y="220"/>
			<point x="342" y="252"/>
			<point x="342" y="303" type="curve" smooth="yes"/>
			<point x="342" y="355"/>
			<point x="342" y="408"/>
			<point x="342" y="460" type="curve"/>
			<point x="422" y="460" type="line"/>
			<point x="422" y="0" type="line"/>
			<point x="342" y="0" type="line"/>
			<point x="342" y="205" type="line"/>
			<point x="307" y="175"/>
			<point x="261" y="140"/>
			<point x="187" y="140" type="curve" smooth="yes"/>
			<point x="65" y="140"/>
			<point x="44" y="236"/>
		</contour>
	</outline>
</glyph>
<glyph name="uni04F9" format="2">
	<unicode hex="04F9"/>
	<advance width="620"/>
	<outline>
		<contour>
			<point x="121" y="190" type="curve" smooth="yes"/>
			<point x="121" y="187" type="line" smooth="yes"/>
			<point x="121" y="106"/>
			<point x="166" y="55"/>
			<point x="240" y="55" type="curve" smooth="yes"/>
			<point x="314" y="55"/>
			<point x="361" y="117"/>
			<point x="361" y="190" type="curve" smooth="yes"/>
			<point x="361" y="266"/>
			<point x="315" y="325"/>
			<point x="240" y="325" type="curve" smooth="yes"/>
			<point x="185" y="325"/>
			<point x="121" y="286"/>
		</contour>
		<contour>
			<point x="40" y="190" type="curve" smooth="yes"/>
			<point x="40" y="460" type="line"/>
			<point x="120" y="460" type="line"/>
			<point x="120" y="310" type="line"/>
			<point x="144" y="344"/>
			<point x="197" y="390"/>
			<point x="260" y="390" type="curve" smooth="yes"/>
			<point x="379" y="390"/>
			<point x="441" y="307"/>
			<point x="441" y="190" type="curve" smooth="yes"/>
			<point x="441" y="100"/>
			<point x="380" y="-10"/>
			<point x="240" y="-10" type="curve" smooth="yes"/>
			<point x="117" y="-10"/>
			<point x="40" y="74"/>
		</contour>
		<contour>
			<point x="575" y="460" type="line"/>
			<point x="575" y="0" type="line"/>
			<point x="495" y="0" type="line"/>
			<point x="495" y="460" type="line"/>
		</contour>
		<contour>
			<point x="269" y="610" type="line"/>
			<point x="269" y="530" type="line"/>
			<point x="189" y="530" type="line"/>
			<point x="189" y="610" type="line"/>
		</contour>
		<contour>
			<point x="426" y="610" type="line"/>
			<point x="426" y="530" type="line"/>
			<point name=".hr01" x="346" y="530" type="line"/>
			<point x="346" y="610" type="line"/>
		</contour>
	</outline>
</glyph>
<glyph name="endash" format="2">
	<unicode hex="2013"/>
	<advance width="450"/>
	<outline>
		<contour>
			<point x="400" y="210" type="line"/>
			<point x="50" y="210" type="line"/>
			<point x="50" y="275" type="line"/>
			<point x="400" y="275" type="line"/>
		</contour>
	</outline>
</glyph>
<glyph name="dagger" format="2">
	<unicode hex="2020"/>
	<advance width="495"/>
	<outline>
		<contour>
			<point x="208" y="376" type="line"/>
			<point x="35" y="376" type="line"/>
			<point x="35" y="446" type="line"/>
			<point x="208" y="446" type="line"/>
			<point x="218" y="622" type="line"/>
			<point x="277" y="622" type="line"/>
			<point x="287" y="446" type="line"/>
			<point x="460" y="446" type="line"/>
			<point x="460" y="376" type="line"/>
			<point x="287" y="376" type="line"/>
			<point x="287" y="240" type="line"/>
			<point x="277" y="-150" type="line"/>
			<point x="218" y="-150" type="line"/>
			<point x="208" y="240" type="line"/>
		</contour>
	</outline>
</glyph>
<glyph name="ellipsis" format="2">
	<unicode hex="2026"/>
	<advance width="560"/>
	<outline>
		<contour>
			<point x="130" y="0" type="line"/>
			<point x="50" y="0" type="line"/>
			<point x="50" y="80" type="line"/>
			<point x="130" y="80" type="line"/>
		</contour>
		<contour>
			<point x="320" y="0" type="line"/>
			<point x="240" y="0" type="line"/>
			<point x="240" y="80" type="line"/>
			<point x="320" y="80" type="line"/>
		</contour>
		<contour>
			<point x="510" y="0" type="line"/>
			<point x="430" y="0" type="line"/>
			<point x="430" y="80" type="line"/>
			<point x="510" y="80" type="line"/>
		</contour>
	</outline>
</glyph>
<glyph name="fraction" format="2">
	<unicode hex="2044"/>
	<advance width="555"/>
	<outline>
		<contour>
			<point x="121" y="0" type="line"/>
			<point x="30" y="0" type="line"/>
			<point x="441" y="700" type="line"/>
			<point x="528" y="700" type="line"/>
		</contour>
	</outline>
</glyph>
<glyph name="minus" format="2">
	<unicode hex="2212"/>
	<advance width="422"/>
	<outline>
		<contour>
			<point x="372" y="204" type="line"/>
			<point x="50" y="204" type="line"/>
			<point x="50" y="269" type="line"/>
			<point x="372" y="269" type="line"/>
		</contour>
	</outline>
</glyph>
<glyph name="eight.inferior" format="2">
	<advance width="390"/>
	<outline>
		<contour>
			<point x="103" y="-115" type="curve" smooth="yes"/>
			<point x="103" y="-153"/>
			<point x="127" y="-189"/>
			<point x="188" y="-189" type="curve" smooth="yes"/>
			<point x="249" y="-189"/>
			<point x="273" y="-153"/>
			<point x="273" y="-115" type="curve" smooth="yes"/>
			<point x="273" y="-65"/>
			<point x="234" y="-46"/>
			<point x="188" y="-46" type="curve" smooth="yes"/>
			<point x="127" y="-46"/>
			<point x="103" y="-77"/>
		</contour>
		<contour>
			<point x="94" y="-322" type="curve" smooth="yes"/>
			<point name=".hr01" x="94" y="-379"/>
			<point x="126" y="-407"/>
			<point x="188" y="-407" type="curve" smooth="yes"/>
			<point x="250" y="-407"/>
			<point x="284" y="-379"/>
			<point x="284" y="-322" type="curve" smooth="yes"/>
			<point x="284" y="-265"/>
			<point x="248" y="-239"/>
			<point x="188" y="-238" type="curve"/>
			<point x="134" y="-238"/>
			<point x="94" y="-275"/>
		</contour>
		<contour>
			<point x="27" y="-327" type="curve" smooth="yes"/>
			<point x="27" y="-267"/>
			<point x="63" y="-233"/>
			<point x="101" y="-214" type="curve"/>
			<point x="82" y="-207"/>
			<point x="35" y="-190"/>
			<point x="35" y="-109" type="curve" smooth="yes"/>
			<point name=".hr02" x="35" y="-40"/>
			<point x="96" y="14"/>
			<point x="188" y="14" type="curve" smooth="yes"/>
			<point x="292" y="14"/>
			<point x="341" y="-40"/>
			<point x="341" y="-109" type="curve" smooth="yes"/>
			<point x="341" y="-190"/>
			<point x="298" y="-203"/>
			<point x="257" y="-214" type="curve"/>
			<point x="308" y="-233"/>
			<point x="351" y="-267"/>
			<point x="351" y="-327" type="curve" smooth="yes"/>
			<point name=".hr03" x="351" y="-413"/>
			<point x="295" y="-467"/>
			<point x="188" y="-467" type="curve" smooth="yes"/>
			<point x="98" y="-467"/>
			<point x="27" y="-429"/>
		</contour>
	</outline>
</glyph>
<glyph name="g.sc" format="2">
	<advance width="468"/>
	<outline>
		<contour>
			<point x="33" y="230" type="curve" smooth="yes"/>
			<point x="33" y="368"/>
			<point x="104" y="470"/>
			<point x="238" y="470" type="curve" smooth="yes"/>
			<point x="343" y="470"/>
			<point x="411" y="418"/>
			<point x="436" y="318" type="curve"/>
			<point x="357" y="318" type="line"/>
			<point x="340" y="371"/>
			<point x="308" y="405"/>
			<point x="238" y="405" type="curve" smooth="yes"/>
			<point x="143" y="405"/>
			<point x="113" y="312"/>
			<point x="113" y="230" type="curve" smooth="yes"/>
			<point x="113" y="141"/>
			<point x="143" y="55"/>
			<point x="236" y="55" type="curve" smooth="yes"/>
			<point x="306" y="55"/>
			<point x="348" y="91"/>
			<point x="348" y="143" type="curve"/>
			<point x="236" y="143" type="line"/>
			<point x="236" y="215" type="line"/>
			<point x="427" y="215" type="line"/>
			<point name=".hr01" x="427" y="0" type="line"/>
			<point x="348" y="0" type="line"/>
			<point x="348" y="37" type="line"/>
			<point x="318" y="7"/>
			<point name=".hr02" x="280" y="-10"/>
			<point x="233" y="-10" type="curve" smooth="yes"/>
			<point x="97" y="-10"/>
			<point x="33" y="90"/>
		</contour>
	</outline>
</glyph>
<glyph name="k.sc" format="2">
	<advance width="409"/>
	<outline>
		<contour>
			<point x="113" y="0" type="line"/>
			<point x="33" y="0" type="line"/>
			<point x="33" y="460" type="line"/>
			<point x="113" y="460" type="line"/>
			<point x="113" y="247" type="line"/>
			<point x="128" y="251"/>
			<point x="144" y="256"/>
			<point x="159" y="260" type="curve"/>
			<point x="270" y="460" type="line"/>
			<point x="348" y="460" type="line"/>
			<point x="221" y="230" type="line"/>
			<point x="384" y="0" type="line"/>
			<point x="297" y="0" type="line"/>
			<point x="159" y="209" type="line"/>
			<point x="113" y="196" type="line"/>
		</contour>
	</outline>
</glyph>
<glyph name="n.sc" format="2">
	<advance width="409"/>
	<outline>
		<contour>
			<point x="113" y="0" type="line"/>
			<point x="33" y="0" type="line"/>
			<point x="33" y="153"/>
			<point x="33" y="307"/>
			<point x="33" y="460" type="curve"/>
			<point x="146" y="460" type="line"/>
			<point x="297" y="74" type="line"/>
			<point x="297" y="460" type="line"/>
			<point x="377" y="460" type="line"/>
			<point x="377" y="0" type="line"/>
			<point x="264" y="0" type="line"/>
			<point x="113" y="387" type="line"/>
		</contour>
	</outline>
</glyph>
<glyph name="uni0414.loclBGR" format="2">
	<advance width="700"/>
	<outline>
		<contour>
			<point x="486" y="80" type="line"/>
			<point x="347" y="603" type="line"/>
			<point x="208" y="80" type="line"/>
		</contour>
		<contour>
			<point x="140" y="-150" type="line"/>
			<point x="50" y="-150" type="line"/>
			<point x="50" y="80" type="line"/>
			<point x="104" y="80" type="line"/>
			<point x="289" y="700" type="line"/>
			<point x="407" y="700" type="line"/>
			<point x="590" y="80" type="line"/>
			<point x="650" y="80" type="line"/>
			<point x="650" y="-150" type="line"/>
			<point x="560" y="-150" type="line"/>
			<point x="560" y="0" type="line"/>
			<point x="140" y="0" type="line"/>
		</contour>
	</outline>
</glyph>
<glyph name="uni0435.sc" format="2">
	<advance width="355"/>
	<outline>
		<contour>
			<point x="323" y="0" type="line"/>
			<point x="33" y="0" type="line"/>
			<point x="33" y="460" type="line"/>
			<point x="323" y="460" type="line"/>
			<point x="323" y="395" type="line"/>
			<point x="113" y="395" type="line"/>
			<point x="113" y="265" type="line"/>
			<point x="297" y="265" type="line"/>
			<point x="297" y="200" type="line"/>
			<point x="113" y="200" type="line"/>
			<point x="113" y="65" type="line"/>
			<point x="323" y="65" type="line"/>
		</contour>
	</outline>
</glyph>
<glyph name="uni043A.sc" format="2">
	<advance width="426"/>
	<outline>
		<contour>
			<point x="130" y="0" type="line"/>
			<point x="50" y="0" type="line"/>
			<point x="50" y="460" type="line"/>
			<point x="130" y="460" type="line"/>
			<point x="130" y="247" type="line"/>
			<point x="145" y="251"/>
			<point x="161" y="256"/>
			<point x="176" y="260" type="curve"/>
			<point x="287" y="460" type="line"/>
			<point x="380" y="460" type="line"/>
			<point x="248" y="230" type="line"/>
			<point x="396" y="0" type="line"/>
			<point x="294" y="0" type="line"/>
			<point x="176" y="199" type="line"/>
			<point x="130" y="186" type="line"/>
		</contour>
	</outline>
</glyph>
<glyph name="uni043F.loclBGR" format="2">
	<advance width="554"/>
	<outline>
		<contour>
			<point x="333.5" y="470" type="curve" smooth="yes"/>
			<point x="451" y="470"/>
			<point x="483.5" y="384.5"/>
			<point x="483.5" y="305" type="curve" smooth="yes"/>
			<point x="483.5" y="0" type="line"/>
			<point x="383.5" y="0" type="line"/>
			<point x="383.5" y="285" type="line" smooth="yes"/>
			<point x="383.5" y="348.5"/>
			<point x="352" y="409.5"/>
			<point x="288" y="409.5" type="curve" smooth="yes"/>
			<point x="229.5" y="409.5"/>
			<point x="176" y="359.5"/>
			<point x="170" y="301" type="curve"/>
			<point x="170" y="0" type="line"/>
			<point x="70" y="0" type="line"/>
			<point x="70" y="460" type="line"/>
			<point x="158" y="460" type="line"/>
			<point x="167.5" y="369" type="line"/>
			<point x="204" y="426"/>
			<point x="261.5" y="470"/>
		</contour>
	</outline>
</glyph>
<glyph name="uni0442.loclBGR" format="2">
	<advance width="816"/>
	<outline>
		<contour>
			<point x="150" y="310" type="curve"/>
			<point x="150" y="0" type="line"/>
			<point x="70" y="0" type="line"/>
			<point x="70" y="460" type="line"/>
			<point x="130" y="460" type="line"/>
			<point x="146" y="379" type="line"/>
			<point x="180" y="425"/>
			<point x="226" y="470"/>
			<point x="298" y="470" type="curve" smooth="yes"/>
			<point x="392" y="470"/>
			<point x="427" y="424"/>
			<point x="440" y="374" type="curve"/>
			<point x="474" y="422"/>
			<point x="521" y="470"/>
			<point x="596" y="470" type="curve" smooth="yes"/>
			<point x="740" y="470"/>
			<point x="746" y="362"/>
			<point x="746" y="295" type="curve" smooth="yes"/>
			<point x="746" y="0" type="line"/>
			<point x="666" y="0" type="line"/>
			<point x="666" y="295" type="line" smooth="yes"/>
			<point x="666" y="339"/>
			<point x="657" y="405"/>
			<point x="574" y="405" type="curve" smooth="yes"/>
			<point x="532" y="405"/>
			<point x="472" y="372"/>
			<point x="448" y="309" type="curve"/>
			<point x="448" y="304"/>
			<point x="448" y="300"/>
			<point x="448" y="295" type="curve" smooth="yes"/>
			<point x="448" y="0" type="line"/>
			<point x="368" y="0" type="line"/>
			<point x="368" y="295" type="line" smooth="yes"/>
			<point x="368" y="339"/>
			<point x="359" y="405"/>
			<point x="276" y="405" type="curve" smooth="yes"/>
			<point x="234" y="405"/>
			<point x="174" y="372"/>
		</contour>
	</outline>
</glyph>
<glyph name="uni0443.sc" format="2">
	<advance width="428"/>
	<outline>
		<contour>
			<point x="157" y="149" type="line"/>
			<point x="20" y="460" type="line"/>
			<point x="110" y="460" type="line"/>
			<point x="203" y="232" type="line"/>
			<point x="317" y="460" type="line"/>
			<point x="408" y="460" type="line"/>
			<point x="172" y="0" type="line"/>
			<point x="82" y="0" type="line"/>
		</contour>
	</outline>
</glyph>
<glyph name="uni0446.loclBGR" format="2">
	<advance width="538"/>
	<outline>
		<contour>
			<point x="45" y="130" type="curve" smooth="yes"/>
			<point x="45" y="460" type="line"/>
			<point x="125" y="460" type="line"/>
			<point x="125" y="160" type="line" smooth="yes"/>
			<point x="125" y="113"/>
			<point x="131" y="55"/>
			<point x="190" y="55" type="curve" smooth="yes"/>
			<point x="257" y="55"/>
			<point x="353" y="105"/>
			<point x="353" y="200" type="curve" smooth="yes"/>
			<point x="353" y="460" type="line"/>
			<point x="433" y="458" type="line"/>
			<point x="433" y="132" type="line" smooth="yes"/>
			<point x="433" y="85"/>
			<point name=".hr01" x="443" y="47"/>
			<point x="503" y="47" type="curve"/>
			<point x="503" y="-101" type="line"/>
			<point x="433" y="-101" type="line"/>
			<point x="433" y="-11" type="line"/>
			<point x="399" y="1"/>
			<point name=".hr02" x="353" y="21"/>
			<point x="353" y="90" type="curve"/>
			<point x="312" y="43"/>
			<point x="239" y="-10"/>
			<point x="168" y="-10" type="curve" smooth="yes"/>
			<point x="63" y="-10"/>
			<point x="45" y="63"/>
		</contour>
	</outline>
</glyph>
<glyph name="uni0449.sc" format="2">
	<advance width="679"/>
	<outline>
		<contour>
			<point x="585" y="0" type="line"/>
			<point x="33" y="0" type="line"/>
			<point x="33" y="460" type="line"/>
			<point x="113" y="460" type="line"/>
			<point x="113" y="65" type="line"/>
			<point x="269" y="65" type="line"/>
			<point x="269" y="460" type="line"/>
			<point x="349" y="460" type="line"/>
			<point x="349" y="65" type="line"/>
			<point x="505" y="65" type="line"/>
			<point x="505" y="197"/>
			<point x="505" y="328"/>
			<point x="505" y="460" type="curve"/>
			<point x="585" y="460" type="line"/>
			<point x="585" y="65" type="line"/>
			<point name=".hr01" x="647" y="65" type="line"/>
			<point x="647" y="-92" type="line"/>
			<point x="585" y="-92" type="line"/>
		</contour>
	</outline>
</glyph>
<glyph name="uni044A.sc" format="2">
	<advance width="521"/>
	<outline>
		<contour>
			<point x="273" y="208" type="curve" smooth="yes"/>
			<point x="212" y="208" type="line"/>
			<point x="212" y="65" type="line"/>
			<point x="304" y="65" type="line" smooth="yes"/>
			<point x="394" y="65"/>
			<point x="409" y="98"/>
			<point x="409" y="138" type="curve" smooth="yes"/>
			<point x="409" y="193"/>
			<point x="373" y="208"/>
		</contour>
		<contour>
			<point x="132" y="0" type="line"/>
			<point x="132" y="395" type="line"/>
			<point x="33" y="395" type="line"/>
			<point x="33" y="460" type="line"/>
			<point x="212" y="460" type="line"/>
			<point x="212" y="273" type="line"/>
			<point x="304" y="273" type="line" smooth="yes"/>
			<point x="464" y="273"/>
			<point x="489" y="218"/>
			<point x="489" y="138" type="curve" smooth="yes"/>
			<point x="489" y="58"/>
			<point x="464" y="0"/>
			<point x="304" y="0" type="curve" smooth="yes"/>
		</contour>
	</outline>
</glyph>
<glyph name="uni044C.loclBGR" format="2">
	<advance width="481"/>
	<outline>
		<contour>
			<point x="126" y="190" type="curve" smooth="yes"/>
			<point x="126" y="177" type="line" smooth="yes"/>
			<point x="126" y="96"/>
			<point x="171" y="55"/>
			<point x="245" y="55" type="curve" smooth="yes"/>
			<point x="312" y="55"/>
			<point x="366" y="114"/>
			<point x="366" y="190" type="curve" smooth="yes"/>
			<point x="366" y="266"/>
			<point x="320" y="325"/>
			<point x="245" y="325" type="curve" smooth="yes"/>
			<point x="190" y="325"/>
			<point x="126" y="286"/>
		</contour>
		<contour>
			<point x="45" y="190" type="curve" smooth="yes"/>
			<point x="45" y="460" type="line"/>
			<point x="125" y="460" type="line"/>
			<point x="125" y="310" type="line"/>
			<point x="149" y="344"/>
			<point x="202" y="390"/>
			<point x="265" y="390" type="curve" smooth="yes"/>
			<point x="395" y="390"/>
			<point x="446" y="293"/>
			<point x="446" y="190" type="curve" smooth="yes"/>
			<point x="446" y="100"/>
			<point x="385" y="-10"/>
			<point x="245" y="-10" type="curve" smooth="yes"/>
			<point x="122" y="-10"/>
			<point x="45" y="74"/>
		</contour>
	</outline>
</glyph>
<glyph name="uni044D.sc" format="2">
	<advance width="408"/>
	<outline>
		<contour>
			<point x="30" y="127" type="curve"/>
			<point x="109" y="127" type="line"/>
			<point x="109" y="101"/>
			<point x="137" y="55"/>
			<point x="187" y="55" type="curve" smooth="yes"/>
			<point x="268" y="55"/>
			<point x="299" y="153"/>
			<point x="299" y="201" type="curve"/>
			<point x="180" y="201" type="line"/>
			<point x="180" y="223"/>
			<point x="180" y="245"/>
			<point x="180" y="267" type="curve"/>
			<point x="299" y="267" type="line"/>
			<point x="299" y="325"/>
			<point x="273" y="405"/>
			<point x="187" y="405" type="curve" smooth="yes"/>
			<point x="141" y="405"/>
			<point x="118" y="374"/>
			<point x="109" y="336" type="curve"/>
			<point x="30" y="336" type="line"/>
			<point x="41" y="416"/>
			<point x="117" y="470"/>
			<point x="197" y="470" type="curve" smooth="yes"/>
			<point x="337" y="470"/>
			<point x="379" y="349"/>
			<point x="379" y="233" type="curve" smooth="yes"/>
			<point x="379" y="128"/>
			<point x="335" y="-10"/>
			<point x="197" y="-10" type="curve" smooth="yes"/>
			<point x="110" y="-10"/>
			<point x="45" y="43"/>
		</contour>
	</outline>
</glyph>
<glyph name="uni044F.sc" format="2">
	<advance width="422"/>
	<outline>
		<contour>
			<point x="113" y="318" type="curve" smooth="yes"/>
			<point x="113" y="272"/>
			<point x="156" y="245"/>
			<point x="215" y="245" type="curve" smooth="yes"/>
			<point x="310" y="245" type="line"/>
			<point x="310" y="395" type="line"/>
			<point x="215" y="395" type="line" smooth="yes"/>
			<point x="164" y="395"/>
			<point x="113" y="370"/>
		</contour>
		<contour>
			<point x="252" y="180" type="line"/>
			<point x="136" y="0" type="line"/>
			<point x="33" y="0" type="line"/>
			<point x="162" y="190" type="line"/>
			<point x="62" y="203"/>
			<point x="33" y="264"/>
			<point x="33" y="317" type="curve" smooth="yes"/>
			<point x="33" y="416"/>
			<point x="126" y="460"/>
			<point x="215" y="460" type="curve" smooth="yes"/>
			<point x="390" y="460" type="line"/>
			<point x="390" y="0" type="line"/>
			<point x="310" y="0" type="line"/>
			<point x="310" y="180" type="line"/>
		</contour>
	</outline>
</glyph>
<glyph name="zero.subscript" format="2">
	<advance width="439"/>
	<outline>
		<contour>
			<point x="70" y="-88" type="curve" smooth="yes"/>
			<point x="70" y="52"/>
			<point x="99" y="152"/>
			<point x="232" y="152" type="curve" smooth="yes"/>
			<point x="365" y="152"/>
			<point x="393" y="52"/>
			<point x="393" y="-88" type="curve" smooth="yes"/>
			<point x="393" y="-228"/>
			<point x="365" y="-329"/>
			<point x="232" y="-329" type="curve" smooth="yes"/>
			<point x="99" y="-329"/>
			<point x="70" y="-228"/>
		</contour>
		<contour>
			<point x="138" y="-88" type="curve" smooth="yes"/>
			<point x="138" y="-185"/>
			<point x="138" y="-269"/>
			<point x="232" y="-269" type="curve" smooth="yes"/>
			<point x="326" y="-269"/>
			<point x="325" y="-185"/>
			<point x="325" y="-88" type="curve" smooth="yes"/>
			<point x="325" y="9"/>
			<point x="326" y="92"/>
			<point x="232" y="92" type="curve" smooth="yes"/>
			<point x="138" y="92"/>
			<point x="138" y="9"/>
		</contour>
	</outline>
</glyph>
